<?xml version="1.0" encoding="utf-8"?>
<!-- Generator: Adobe Illustrator 25.2.1, SVG Export Plug-In . SVG Version: 6.00 Build 0)  -->
<svg version="1.1" id="图层_1" xmlns="http://www.w3.org/2000/svg" xmlns:xlink="http://www.w3.org/1999/xlink" x="0px" y="0px"
	 viewBox="0 0 370.9 285.7" style="enable-background:new 0 0 370.9 285.7;" xml:space="preserve">
<style type="text/css">
	.st0{fill:#FFFFFF;}
	.st1{clip-path:url(#SVGID_2_);}
	.st2{fill:#FF0000;stroke:#FF0000;stroke-linejoin:round;}
	.st3{stroke:#000000;stroke-width:0.8;stroke-linejoin:round;}
	.st4{font-family:'DejaVuSans';}
	.st5{font-size:10px;}
	.st6{clip-path:url(#SVGID_4_);fill:none;stroke:#008000;stroke-width:1.5;stroke-linecap:square;stroke-linejoin:round;}
	.st7{clip-path:url(#SVGID_6_);fill:none;stroke:#FFA500;stroke-width:1.5;stroke-linecap:square;stroke-linejoin:round;}
	.st8{clip-path:url(#SVGID_8_);fill:none;stroke:#0000FF;stroke-width:1.5;stroke-linecap:square;stroke-linejoin:round;}
	.st9{fill:none;stroke:#000000;stroke-width:0.8;stroke-linecap:square;}
	.st10{opacity:0.8;fill:#FFFFFF;stroke:#CCCCCC;enable-background:new    ;}
	.st11{fill:none;stroke:#008000;stroke-width:1.5;stroke-linecap:square;stroke-linejoin:round;}
	.st12{fill:none;stroke:#FFA500;stroke-width:1.5;stroke-linecap:square;stroke-linejoin:round;}
	.st13{fill:none;stroke:#0000FF;stroke-width:1.5;stroke-linecap:square;stroke-linejoin:round;}
</style>
<g id="figure_1">
	<g id="axes_1">
		<g id="patch_2">
			<path class="st0" d="M13.4,266.5h357.1V0.4H13.4V266.5z"/>
		</g>
		<g id="PathCollection_1">
			<g>
				<defs>
					<rect id="SVGID_1_" x="13.4" y="0.4" width="357.1" height="266.1"/>
				</defs>
				<clipPath id="SVGID_2_">
					<use xlink:href="#SVGID_1_"  style="overflow:visible;"/>
				</clipPath>
				<g class="st1">
					<g>
						<path id="mc0b09dfcb6" class="st2" d="M29.6,257.4c0.8,0,1.6-0.3,2.1-0.9c0.6-0.6,0.9-1.3,0.9-2.1s-0.3-1.6-0.9-2.1
							c-0.6-0.6-1.3-0.9-2.1-0.9s-1.6,0.3-2.1,0.9c-0.6,0.6-0.9,1.3-0.9,2.1s0.3,1.6,0.9,2.1C28,257.1,28.8,257.4,29.6,257.4z"/>
					</g>
					<g>
						<path id="mc0b09dfcb6_1_" class="st2" d="M62.7,255.6c0.8,0,1.6-0.3,2.1-0.9c0.6-0.6,0.9-1.3,0.9-2.1s-0.3-1.6-0.9-2.1
							c-0.6-0.6-1.3-0.9-2.1-0.9s-1.6,0.3-2.1,0.9c-0.6,0.6-0.9,1.3-0.9,2.1s0.3,1.6,0.9,2.1C61.2,255.3,61.9,255.6,62.7,255.6z"/>
					</g>
					<g>
						<path id="mc0b09dfcb6_2_" class="st2" d="M95.9,252.8c0.8,0,1.6-0.3,2.1-0.9c0.6-0.6,0.9-1.3,0.9-2.1s-0.3-1.6-0.9-2.1
							c-0.6-0.6-1.3-0.9-2.1-0.9s-1.6,0.3-2.1,0.9c-0.6,0.6-0.9,1.3-0.9,2.1s0.3,1.6,0.9,2.1C94.3,252.5,95.1,252.8,95.9,252.8z"/>
					</g>
					<g>
						<path id="mc0b09dfcb6_3_" class="st2" d="M129,247.7c0.8,0,1.6-0.3,2.1-0.9c0.6-0.6,0.9-1.3,0.9-2.1s-0.3-1.6-0.9-2.1
							c-0.6-0.6-1.3-0.9-2.1-0.9s-1.6,0.3-2.1,0.9c-0.6,0.6-0.9,1.3-0.9,2.1s0.3,1.6,0.9,2.1C127.4,247.4,128.2,247.7,129,247.7z"/>
					</g>
					<g>
						<path id="mc0b09dfcb6_4_" class="st2" d="M162.1,236.7c0.8,0,1.6-0.3,2.1-0.9c0.6-0.6,0.9-1.3,0.9-2.1s-0.3-1.6-0.9-2.1
							c-0.6-0.6-1.3-0.9-2.1-0.9s-1.6,0.3-2.1,0.9c-0.6,0.6-0.9,1.3-0.9,2.1s0.3,1.6,0.9,2.1C160.5,236.3,161.3,236.7,162.1,236.7z"
							/>
					</g>
					<g>
						<path id="mc0b09dfcb6_5_" class="st2" d="M195.2,200c0.8,0,1.6-0.3,2.1-0.9c0.6-0.6,0.9-1.3,0.9-2.1s-0.3-1.6-0.9-2.1
							c-0.6-0.6-1.3-0.9-2.1-0.9s-1.6,0.3-2.1,0.9c-0.6,0.6-0.9,1.3-0.9,2.1s0.3,1.6,0.9,2.1C193.7,199.6,194.4,200,195.2,200z"/>
					</g>
					<g>
						<path id="mc0b09dfcb6_6_" class="st2" d="M228.4,88.4c0.8,0,1.6-0.3,2.1-0.9c0.6-0.6,0.9-1.3,0.9-2.1s-0.3-1.6-0.9-2.1
							c-0.6-0.6-1.3-0.9-2.1-0.9s-1.6,0.3-2.1,0.9c-0.6,0.6-0.9,1.3-0.9,2.1s0.3,1.6,0.9,2.1C226.8,88.1,227.6,88.4,228.4,88.4z"/>
					</g>
					<g>
						<path id="mc0b09dfcb6_7_" class="st2" d="M261.5,44.6c0.8,0,1.6-0.3,2.1-0.9c0.6-0.6,0.9-1.3,0.9-2.1c0-0.8-0.3-1.6-0.9-2.1
							c-0.6-0.6-1.3-0.9-2.1-0.9s-1.6,0.3-2.1,0.9c-0.6,0.6-0.9,1.3-0.9,2.1c0,0.8,0.3,1.6,0.9,2.1
							C259.9,44.3,260.7,44.6,261.5,44.6z"/>
					</g>
					<g>
						<path id="mc0b09dfcb6_8_" class="st2" d="M294.6,32.2c0.8,0,1.6-0.3,2.1-0.9c0.6-0.6,0.9-1.3,0.9-2.1s-0.3-1.6-0.9-2.1
							c-0.6-0.6-1.3-0.9-2.1-0.9s-1.6,0.3-2.1,0.9c-0.6,0.6-0.9,1.3-0.9,2.1s0.3,1.6,0.9,2.1C293.1,31.9,293.8,32.2,294.6,32.2z"/>
					</g>
					<g>
						<path id="mc0b09dfcb6_9_" class="st2" d="M327.7,26.7c0.8,0,1.6-0.3,2.1-0.9c0.6-0.6,0.9-1.3,0.9-2.1s-0.3-1.6-0.9-2.1
							c-0.6-0.6-1.3-0.9-2.1-0.9s-1.6,0.3-2.1,0.9c-0.6,0.6-0.9,1.3-0.9,2.1s0.3,1.6,0.9,2.1C326.2,26.4,327,26.7,327.7,26.7z"/>
					</g>
				</g>
			</g>
		</g>
		<g id="matplotlib.axis_1">
			<g id="xtick_1">
				<g id="line2d_1">
					<g>
						<g>
							<path id="m93a8186b84" class="st3" d="M29.6,266.5v3.5"/>
						</g>
					</g>
				</g>
				<g id="text_1">
					<text transform="matrix(1 0 0 1 21.6432 281.1104)" class="st4 st5">3.0</text>
				</g>
			</g>
			<g id="xtick_2">
				<g id="line2d_2">
					<g>
						<g>
							<path id="m93a8186b84_1_" class="st3" d="M95.9,266.5v3.5"/>
						</g>
					</g>
				</g>
				<g id="text_2">
					<text transform="matrix(1 0 0 1 87.8993 281.1104)" class="st4 st5">3.2</text>
				</g>
			</g>
			<g id="xtick_3">
				<g id="line2d_3">
					<g>
						<g>
							<path id="m93a8186b84_2_" class="st3" d="M162.1,266.5v3.5"/>
						</g>
					</g>
				</g>
				<g id="text_3">
					<text transform="matrix(1 0 0 1 154.1553 281.1104)" class="st4 st5">3.4</text>
				</g>
			</g>
			<g id="xtick_4">
				<g id="line2d_4">
					<g>
						<g>
							<path id="m93a8186b84_3_" class="st3" d="M228.4,266.5v3.5"/>
						</g>
					</g>
				</g>
				<g id="text_4">
					<text transform="matrix(1 0 0 1 220.4114 281.1104)" class="st4 st5">3.6</text>
				</g>
			</g>
			<g id="xtick_5">
				<g id="line2d_5">
					<g>
						<g>
							<path id="m93a8186b84_4_" class="st3" d="M294.6,266.5v3.5"/>
						</g>
					</g>
				</g>
				<g id="text_5">
					<text transform="matrix(1 0 0 1 286.6674 281.1104)" class="st4 st5">3.8</text>
				</g>
			</g>
			<g id="xtick_6">
				<g id="line2d_6">
					<g>
						<g>
							<path id="m93a8186b84_5_" class="st3" d="M360.9,266.5v3.5"/>
						</g>
					</g>
				</g>
				<g id="text_6">
					<text transform="matrix(1 0 0 1 352.9235 281.1104)" class="st4 st5">4.0</text>
				</g>
			</g>
		</g>
		<g id="matplotlib.axis_2">
			<g id="ytick_1">
				<g id="line2d_7">
					<g>
						<g>
							<path id="mbb5432dd5b" class="st3" d="M13.4,246.7H9.9"/>
						</g>
					</g>
				</g>
				<g id="text_7">
					<text transform="matrix(1 0 0 1 -1.220703e-04 250.4822)" class="st4 st5">0</text>
				</g>
			</g>
			<g id="ytick_2">
				<g id="line2d_8">
					<g>
						<g>
							<path id="mbb5432dd5b_1_" class="st3" d="M13.4,192.7H9.9"/>
						</g>
					</g>
				</g>
				<g id="text_8">
					<text transform="matrix(1 0 0 1 -1.220703e-04 196.5368)" class="st4 st5">2</text>
				</g>
			</g>
			<g id="ytick_3">
				<g id="line2d_9">
					<g>
						<g>
							<path id="mbb5432dd5b_2_" class="st3" d="M13.4,138.8H9.9"/>
						</g>
					</g>
				</g>
				<g id="text_9">
					<text transform="matrix(1 0 0 1 -1.220703e-04 142.5914)" class="st4 st5">4</text>
				</g>
			</g>
			<g id="ytick_4">
				<g id="line2d_10">
					<g>
						<g>
							<path id="mbb5432dd5b_3_" class="st3" d="M13.4,84.8H9.9"/>
						</g>
					</g>
				</g>
				<g id="text_10">
					<text transform="matrix(1 0 0 1 -1.220703e-04 88.6461)" class="st4 st5">6</text>
				</g>
			</g>
			<g id="ytick_5">
				<g id="line2d_11">
					<g>
						<g>
							<path id="mbb5432dd5b_4_" class="st3" d="M13.4,30.9H9.9"/>
						</g>
					</g>
				</g>
				<g id="text_11">
					<text transform="matrix(1 0 0 1 -1.220703e-04 34.7007)" class="st4 st5">8</text>
				</g>
			</g>
		</g>
		<g id="line2d_12">
			<g>
				<defs>
					<rect id="SVGID_3_" x="13.4" y="0.4" width="357.1" height="266.1"/>
				</defs>
				<clipPath id="SVGID_4_">
					<use xlink:href="#SVGID_3_"  style="overflow:visible;"/>
				</clipPath>
				<path class="st6" d="M29.6,251.1l6.6-0.6l6.6-0.7l6.6-0.8l6.6-0.9l6.6-1.1l6.6-1.3l6.6-1.5l6.6-1.7l6.6-2l6.6-2.3l6.6-2.6l6.6-3
					l6.6-3.4l6.6-3.9l6.6-4.4l6.6-4.9l6.6-5.5l6.6-6l6.6-6.6l6.6-7.2l6.6-7.7l6.6-8.2l6.6-8.7l6.6-9l6.6-9.2l6.6-9.4l6.6-9.4
					l6.6-9.2l6.6-9l6.6-8.6l6.6-8.2l6.6-7.7l6.6-7.2l6.6-6.6l6.6-6l6.6-5.4l6.6-4.9l6.6-4.3l6.6-3.8l6.6-3.4l6.6-3l6.6-2.6l6.6-2.2
					l6.6-1.9l6.6-1.7l6.6-1.4L341,31l6.6-1.1l6.6-0.9"/>
			</g>
		</g>
		<g id="line2d_13">
			<g>
				<defs>
					<rect id="SVGID_5_" x="13.4" y="0.4" width="357.1" height="266.1"/>
				</defs>
				<clipPath id="SVGID_6_">
					<use xlink:href="#SVGID_5_"  style="overflow:visible;"/>
				</clipPath>
				<path class="st7" d="M29.6,249.8l6.6-0.7l6.6-0.8l6.6-0.9l6.6-1l6.6-1.1l6.6-1.3l6.6-1.5l6.6-1.6l6.6-1.9l6.6-2.1l6.6-2.4
					l6.6-2.7l6.6-3l6.6-3.3l6.6-3.7l6.6-4.1l6.6-4.5l6.6-5l6.6-5.4l6.6-5.9l6.6-6.4l6.6-6.8l6.6-7.2l6.6-7.6l6.6-8l6.6-8.3l6.6-8.6
					l6.6-8.7l6.6-8.8l6.6-8.8l6.6-8.8l6.6-8.6l6.6-8.4l6.6-8.1l6.6-7.7l6.6-7.3l6.6-6.9l6.6-6.5l6.6-6l6.6-5.5l6.6-5.1l6.6-4.6
					l6.6-4.2l6.6-3.8l6.6-3.4l6.6-3.1l6.6-2.7l6.6-2.4l6.6-2.2"/>
			</g>
		</g>
		<g id="line2d_14">
			<g>
				<defs>
					<rect id="SVGID_7_" x="13.4" y="0.4" width="357.1" height="266.1"/>
				</defs>
				<clipPath id="SVGID_8_">
					<use xlink:href="#SVGID_7_"  style="overflow:visible;"/>
				</clipPath>
				<path class="st8" d="M29.6,241.3l6.6,1.9l6.6,1.4l6.6,1l6.6,0.6l6.6,0.4l6.6,0.2l6.6,0l6.6-0.2l6.6-0.3l6.6-0.5l6.6-0.7l6.6-1
					l6.6-1.3l6.6-1.6l6.6-2.1l6.6-2.6l6.6-3.2l6.6-4l6.6-4.9l6.6-6l6.6-7.2l6.6-8.5l6.6-9.9l6.6-11.3l6.6-12.5l6.6-13.5l6.6-14
					l6.6-14.1l6.6-13.7l6.6-12.9l6.6-11.8l6.6-10.4l6.6-9l6.6-7.6l6.6-6.4l6.6-5.2l6.6-4.3l6.6-3.5l6.6-2.8l6.6-2.2l6.6-1.8l6.6-1.4
					l6.6-1.1l6.6-0.8l6.6-0.6l6.6-0.4l6.6-0.2l6.6-0.1l6.6,0.1"/>
			</g>
		</g>
		<g id="patch_3">
			<path class="st9" d="M13.4,266.5V0.4"/>
		</g>
		<g id="patch_4">
			<path class="st9" d="M370.5,266.5V0.4"/>
		</g>
		<g id="patch_5">
			<path class="st9" d="M13.4,266.5h357.1"/>
		</g>
		<g id="patch_6">
			<path class="st9" d="M13.4,0.4h357.1"/>
		</g>
		<g id="legend_1">
			<g id="patch_7">
				<path class="st10" d="M20.4,52.4h127.6c1.3,0,2-0.7,2-2v-43c0-1.3-0.7-2-2-2H20.4c-1.3,0-2,0.7-2,2v43
					C18.4,51.8,19,52.4,20.4,52.4z"/>
			</g>
			<g id="line2d_15">
				<path class="st11" d="M22.4,13.5h20"/>
			</g>
			<g id="line2d_16">
			</g>
			<g id="text_12">
				<text transform="matrix(1 0 0 1 50.3622 16.9984)" class="st4 st5">degree = 1</text>
			</g>
			<g id="line2d_17">
				<path class="st12" d="M22.4,28.2h20"/>
			</g>
			<g id="line2d_18">
			</g>
			<g id="text_13">
				<text transform="matrix(1 0 0 1 50.3622 31.6766)" class="st4 st5">degree = 1 (offset)</text>
			</g>
			<g id="line2d_19">
				<path class="st13" d="M22.4,42.9h20"/>
			</g>
			<g id="line2d_20">
			</g>
			<g id="text_14">
				<text transform="matrix(1 0 0 1 50.3622 46.3547)" class="st4 st5">degree = 3</text>
			</g>
		</g>
	</g>
</g>
</svg>
