<?xml version="1.0" encoding="utf-8"?>
<!-- Generator: Adobe Illustrator 25.2.1, SVG Export Plug-In . SVG Version: 6.00 Build 0)  -->
<svg version="1.1" id="图层_1" xmlns="http://www.w3.org/2000/svg" xmlns:xlink="http://www.w3.org/1999/xlink" x="0px" y="0px"
	 viewBox="0 0 377.2 285.7" enable-background="new 0 0 377.2 285.7" xml:space="preserve">
<g id="figure_1">
	<g id="axes_1">
		<g id="patch_2">
			<path fill="#FFFFFF" d="M19.7,266.5h357.1V0.4H19.7V266.5z"/>
		</g>
		<g id="matplotlib.axis_1">
			<g id="xtick_1">
				<g id="line2d_1">
					<g>
						<g>
							<path id="m78d9c0cde9" stroke="#000000" stroke-width="0.8" stroke-linejoin="round" d="M36,266.5v3.5"/>
						</g>
					</g>
				</g>
				<g id="text_1">
					<text transform="matrix(1 0 0 1 32.7761 281.1104)" font-family="'DejaVuSans'" font-size="10px">0</text>
				</g>
			</g>
			<g id="xtick_2">
				<g id="line2d_2">
					<g>
						<g>
							<path id="m78d9c0cde9_1_" stroke="#000000" stroke-width="0.8" stroke-linejoin="round" d="M104.3,266.5v3.5"/>
						</g>
					</g>
				</g>
				<g id="text_2">
					<text transform="matrix(1 0 0 1 101.1244 281.1104)" font-family="'DejaVuSans'" font-size="10px">2</text>
				</g>
			</g>
			<g id="xtick_3">
				<g id="line2d_3">
					<g>
						<g>
							<path id="m78d9c0cde9_2_" stroke="#000000" stroke-width="0.8" stroke-linejoin="round" d="M172.7,266.5v3.5"/>
						</g>
					</g>
				</g>
				<g id="text_3">
					<text transform="matrix(1 0 0 1 169.4727 281.1104)" font-family="'DejaVuSans'" font-size="10px">4</text>
				</g>
			</g>
			<g id="xtick_4">
				<g id="line2d_4">
					<g>
						<g>
							<path id="m78d9c0cde9_3_" stroke="#000000" stroke-width="0.8" stroke-linejoin="round" d="M241,266.5v3.5"/>
						</g>
					</g>
				</g>
				<g id="text_4">
					<text transform="matrix(1 0 0 1 237.821 281.1104)" font-family="'DejaVuSans'" font-size="10px">6</text>
				</g>
			</g>
			<g id="xtick_5">
				<g id="line2d_5">
					<g>
						<g>
							<path id="m78d9c0cde9_4_" stroke="#000000" stroke-width="0.8" stroke-linejoin="round" d="M309.4,266.5v3.5"/>
						</g>
					</g>
				</g>
				<g id="text_5">
					<text transform="matrix(1 0 0 1 306.1694 281.1104)" font-family="'DejaVuSans'" font-size="10px">8</text>
				</g>
			</g>
		</g>
		<g id="matplotlib.axis_2">
			<g id="ytick_1">
				<g id="line2d_6">
					<g>
						<g>
							<path id="md1ad6ac018" stroke="#000000" stroke-width="0.8" stroke-linejoin="round" d="M19.7,254.4h-3.5"/>
						</g>
					</g>
				</g>
				<g id="text_6">
					<text transform="matrix(1 0 0 1 6.3622 258.2152)" font-family="'DejaVuSans'" font-size="10px">0</text>
				</g>
			</g>
			<g id="ytick_2">
				<g id="line2d_7">
					<g>
						<g>
							<path id="md1ad6ac018_1_" stroke="#000000" stroke-width="0.8" stroke-linejoin="round" d="M19.7,210.3h-3.5"/>
						</g>
					</g>
				</g>
				<g id="text_7">
					<text transform="matrix(1 0 0 1 6.3622 214.1017)" font-family="'DejaVuSans'" font-size="10px">2</text>
				</g>
			</g>
			<g id="ytick_3">
				<g id="line2d_8">
					<g>
						<g>
							<path id="md1ad6ac018_2_" stroke="#000000" stroke-width="0.8" stroke-linejoin="round" d="M19.7,166.2h-3.5"/>
						</g>
					</g>
				</g>
				<g id="text_8">
					<text transform="matrix(1 0 0 1 6.3622 169.9882)" font-family="'DejaVuSans'" font-size="10px">4</text>
				</g>
			</g>
			<g id="ytick_4">
				<g id="line2d_9">
					<g>
						<g>
							<path id="md1ad6ac018_3_" stroke="#000000" stroke-width="0.8" stroke-linejoin="round" d="M19.7,122.1h-3.5"/>
						</g>
					</g>
				</g>
				<g id="text_9">
					<text transform="matrix(1 0 0 1 6.3622 125.8748)" font-family="'DejaVuSans'" font-size="10px">6</text>
				</g>
			</g>
			<g id="ytick_5">
				<g id="line2d_10">
					<g>
						<g>
							<path id="md1ad6ac018_4_" stroke="#000000" stroke-width="0.8" stroke-linejoin="round" d="M19.7,78h-3.5"/>
						</g>
					</g>
				</g>
				<g id="text_10">
					<text transform="matrix(1 0 0 1 6.3622 81.7613)" font-family="'DejaVuSans'" font-size="10px">8</text>
				</g>
			</g>
			<g id="ytick_6">
				<g id="line2d_11">
					<g>
						<g>
							<path id="md1ad6ac018_5_" stroke="#000000" stroke-width="0.8" stroke-linejoin="round" d="M19.7,33.8h-3.5"/>
						</g>
					</g>
				</g>
				<g id="text_11">
					<text transform="matrix(1 0 0 1 -1.220703e-04 37.6478)" font-family="'DejaVuSans'" font-size="10px">10</text>
				</g>
			</g>
		</g>
		<g id="line2d_12">
			<g>
				<defs>
					<rect id="SVGID_1_" x="19.7" y="0.4" width="357.1" height="266.1"/>
				</defs>
				<clipPath id="SVGID_2_">
					<use xlink:href="#SVGID_1_"  overflow="visible"/>
				</clipPath>
				
					<path clip-path="url(#SVGID_2_)" fill="none" stroke="#0000FF" stroke-width="1.5" stroke-linecap="square" stroke-linejoin="round" d="
					M36,254.4L53,211.7l17.1-35l17.1-21.4l17.1-5.2l17.1,9.5l17.1,19.2l17.1,21.5l17.1,15.8l17.1,3.6l17.1-12.3l17.1-27.8l17.1-39.2
					l17.1-43.8l17.1-40.3l17.1-29.6l17.1-14.4l17.1,1.6l17.1,14.5l17.1,21.2"/>
			</g>
		</g>
		<g id="line2d_13">
			<g>
				<defs>
					<rect id="SVGID_3_" x="19.7" y="0.4" width="357.1" height="266.1"/>
				</defs>
				<clipPath id="SVGID_4_">
					<use xlink:href="#SVGID_3_"  overflow="visible"/>
				</clipPath>
				
					<path clip-path="url(#SVGID_4_)" fill="none" stroke="#FF0000" stroke-width="1.5" stroke-linecap="square" stroke-linejoin="round" d="
					M36,240.2L53,214.3l17.1-33l17.1-20.5l17.1-5.7l17.1,7.9l17.1,16.8l17.1,18.9l17.1,13.6l17.1,2.4l17.1-12.2l17.1-26.4l17.1-36.9
					L258.1,98l17.1-37.9L292.3,32l17.1-14.1l17.1,0.6l17.1,12.5l17.1,11.9"/>
			</g>
		</g>
		<g id="line2d_14">
			<g>
				<defs>
					<rect id="SVGID_5_" x="19.7" y="0.4" width="357.1" height="266.1"/>
				</defs>
				<clipPath id="SVGID_6_">
					<use xlink:href="#SVGID_5_"  overflow="visible"/>
				</clipPath>
				
					<path clip-path="url(#SVGID_6_)" fill="none" stroke="#008000" stroke-width="1.5" stroke-linecap="square" stroke-linejoin="round" d="
					M36,222l17.1-9.5l17.1-7.6l17.1-5.4l17.1-3.8l17.1-3.5l17.1-4.7l17.1-3.2l17.1-3.6l17.1-5.9l17.1-9.4l17.1-13.3l17.1-16.6
					l17.1-18.6l17.1-18.8l17.1-17l17.1-15.8l17.1-13l17.1-9.1l17.1-4.7"/>
			</g>
		</g>
		<g id="patch_3">
			<path fill="none" stroke="#000000" stroke-width="0.8" stroke-linecap="square" d="M19.7,266.5V0.4"/>
		</g>
		<g id="patch_4">
			<path fill="none" stroke="#000000" stroke-width="0.8" stroke-linecap="square" d="M376.8,266.5V0.4"/>
		</g>
		<g id="patch_5">
			<path fill="none" stroke="#000000" stroke-width="0.8" stroke-linecap="square" d="M19.7,266.5h357.1"/>
		</g>
		<g id="patch_6">
			<path fill="none" stroke="#000000" stroke-width="0.8" stroke-linecap="square" d="M19.7,0.4h357.1"/>
		</g>
		<g id="legend_1">
			<g id="patch_7">
				<path opacity="0.8" fill="#FFFFFF" stroke="#CCCCCC" enable-background="new    " d="M26.7,52.4h97.4c1.3,0,2-0.7,2-2v-43
					c0-1.3-0.7-2-2-2H26.7c-1.3,0-2,0.7-2,2v43C24.7,51.8,25.4,52.4,26.7,52.4z"/>
			</g>
			<g id="line2d_15">
				<path fill="none" stroke="#0000FF" stroke-width="1.5" stroke-linecap="square" stroke-linejoin="round" d="M28.7,13.5h20"/>
			</g>
			<g id="line2d_16">
			</g>
			<g id="text_12">
				<text transform="matrix(1 0 0 1 56.7245 16.9984)" font-family="'DejaVuSans'" font-size="10px">original</text>
			</g>
			<g id="line2d_17">
				<path fill="none" stroke="#FF0000" stroke-width="1.5" stroke-linecap="square" stroke-linejoin="round" d="M28.7,28.2h20"/>
			</g>
			<g id="line2d_18">
			</g>
			<g id="text_13">
				<text transform="matrix(1 0 0 1 56.7245 31.6766)" font-family="'DejaVuSans'" font-size="10px">window = 3</text>
			</g>
			<g id="line2d_19">
				<path fill="none" stroke="#008000" stroke-width="1.5" stroke-linecap="square" stroke-linejoin="round" d="M28.7,42.9h20"/>
			</g>
			<g id="line2d_20">
			</g>
			<g id="text_14">
				<text transform="matrix(1 0 0 1 56.7245 46.3547)" font-family="'DejaVuSans'" font-size="10px">window = 10</text>
			</g>
		</g>
	</g>
</g>
</svg>
