<?xml version="1.0" encoding="utf-8"?>
<!-- Generator: Adobe Illustrator 25.2.1, SVG Export Plug-In . SVG Version: 6.00 Build 0)  -->
<svg version="1.1" id="图层_1" xmlns="http://www.w3.org/2000/svg" xmlns:xlink="http://www.w3.org/1999/xlink" x="0px" y="0px"
	 viewBox="0 0 382.1 285.7" style="enable-background:new 0 0 382.1 285.7;" xml:space="preserve">
<style type="text/css">
	.st0{fill:#FFFFFF;}
	.st1{clip-path:url(#SVGID_2_);}
	.st2{fill:#FF0000;stroke:#FF0000;stroke-linejoin:round;}
	.st3{stroke:#000000;stroke-width:0.8;stroke-linejoin:round;}
	.st4{font-family:'DejaVuSans';}
	.st5{font-size:10px;}
	.st6{clip-path:url(#SVGID_4_);fill:none;stroke:#008000;stroke-width:1.5;stroke-linecap:square;stroke-linejoin:round;}
	.st7{clip-path:url(#SVGID_6_);fill:none;stroke:#0000FF;stroke-width:1.5;stroke-linecap:square;stroke-linejoin:round;}
	.st8{fill:none;stroke:#000000;stroke-width:0.8;stroke-linecap:square;}
	.st9{opacity:0.8;fill:#FFFFFF;stroke:#CCCCCC;enable-background:new    ;}
	.st10{fill:none;stroke:#008000;stroke-width:1.5;stroke-linecap:square;stroke-linejoin:round;}
	.st11{fill:none;stroke:#0000FF;stroke-width:1.5;stroke-linecap:square;stroke-linejoin:round;}
	.st12{clip-path:url(#SVGID_8_);}
	.st13{clip-path:url(#SVGID_10_);fill:none;stroke:#008000;stroke-width:1.5;stroke-linecap:square;stroke-linejoin:round;}
	.st14{clip-path:url(#SVGID_12_);fill:none;stroke:#0000FF;stroke-width:1.5;stroke-linecap:square;stroke-linejoin:round;}
</style>
<g id="figure_1">
	<g id="axes_1">
		<g id="patch_2">
			<path class="st0" d="M19.7,266.5h162.3V0.4H19.7V266.5z"/>
		</g>
		<g id="PathCollection_1">
			<g>
				<defs>
					<rect id="SVGID_1_" x="19.7" y="0.4" width="162.3" height="266.1"/>
				</defs>
				<clipPath id="SVGID_2_">
					<use xlink:href="#SVGID_1_"  style="overflow:visible;"/>
				</clipPath>
				<g class="st1">
					<g>
						<path id="m5d78c2c536" class="st2" d="M27.1,257c0.8,0,1.6-0.3,2.1-0.9c0.6-0.6,0.9-1.3,0.9-2.1s-0.3-1.6-0.9-2.1
							c-0.6-0.6-1.3-0.9-2.1-0.9s-1.6,0.3-2.1,0.9c-0.6,0.6-0.9,1.3-0.9,2.1s0.3,1.6,0.9,2.1C25.5,256.7,26.3,257,27.1,257z"/>
					</g>
					<g>
						<path id="m5d78c2c536_1_" class="st2" d="M42,256.4c0.8,0,1.6-0.3,2.1-0.9c0.6-0.6,0.9-1.3,0.9-2.1s-0.3-1.6-0.9-2.1
							c-0.6-0.6-1.3-0.9-2.1-0.9s-1.6,0.3-2.1,0.9c-0.6,0.6-0.9,1.3-0.9,2.1s0.3,1.6,0.9,2.1C40.5,256.1,41.2,256.4,42,256.4z"/>
					</g>
					<g>
						<path id="m5d78c2c536_2_" class="st2" d="M56.9,255.4c0.8,0,1.6-0.3,2.1-0.9c0.6-0.6,0.9-1.3,0.9-2.1s-0.3-1.6-0.9-2.1
							c-0.6-0.6-1.3-0.9-2.1-0.9s-1.6,0.3-2.1,0.9c-0.6,0.6-0.9,1.3-0.9,2.1s0.3,1.6,0.9,2.1C55.4,255.1,56.1,255.4,56.9,255.4z"/>
					</g>
					<g>
						<path id="m5d78c2c536_3_" class="st2" d="M71.8,253.9c0.8,0,1.6-0.3,2.1-0.9c0.6-0.6,0.9-1.3,0.9-2.1s-0.3-1.6-0.9-2.1
							c-0.6-0.6-1.3-0.9-2.1-0.9s-1.6,0.3-2.1,0.9c-0.6,0.6-0.9,1.3-0.9,2.1s0.3,1.6,0.9,2.1C70.3,253.6,71,253.9,71.8,253.9z"/>
					</g>
					<g>
						<path id="m5d78c2c536_4_" class="st2" d="M86.7,251.4c0.8,0,1.6-0.3,2.1-0.9c0.6-0.6,0.9-1.3,0.9-2.1s-0.3-1.6-0.9-2.1
							c-0.6-0.6-1.3-0.9-2.1-0.9s-1.6,0.3-2.1,0.9c-0.6,0.6-0.9,1.3-0.9,2.1s0.3,1.6,0.9,2.1C85.2,251.1,85.9,251.4,86.7,251.4z"/>
					</g>
					<g>
						<path id="m5d78c2c536_5_" class="st2" d="M101.6,247.2c0.8,0,1.6-0.3,2.1-0.9c0.6-0.6,0.9-1.3,0.9-2.1s-0.3-1.6-0.9-2.1
							c-0.6-0.6-1.3-0.9-2.1-0.9s-1.6,0.3-2.1,0.9c-0.6,0.6-0.9,1.3-0.9,2.1s0.3,1.6,0.9,2.1C100.1,246.9,100.8,247.2,101.6,247.2z"
							/>
					</g>
					<g>
						<path id="m5d78c2c536_6_" class="st2" d="M116.5,239.7c0.8,0,1.6-0.3,2.1-0.9c0.6-0.6,0.9-1.3,0.9-2.1s-0.3-1.6-0.9-2.1
							c-0.6-0.6-1.3-0.9-2.1-0.9s-1.6,0.3-2.1,0.9c-0.6,0.6-0.9,1.3-0.9,2.1s0.3,1.6,0.9,2.1C115,239.4,115.7,239.7,116.5,239.7z"/>
					</g>
					<g>
						<path id="m5d78c2c536_7_" class="st2" d="M131.4,225.4c0.8,0,1.6-0.3,2.1-0.9c0.6-0.6,0.9-1.3,0.9-2.1s-0.3-1.6-0.9-2.1
							c-0.6-0.6-1.3-0.9-2.1-0.9s-1.6,0.3-2.1,0.9c-0.6,0.6-0.9,1.3-0.9,2.1s0.3,1.6,0.9,2.1C129.9,225.1,130.7,225.4,131.4,225.4z"
							/>
					</g>
					<g>
						<path id="m5d78c2c536_8_" class="st2" d="M146.4,196.9c0.8,0,1.6-0.3,2.1-0.9c0.6-0.6,0.9-1.3,0.9-2.1s-0.3-1.6-0.9-2.1
							c-0.6-0.6-1.3-0.9-2.1-0.9s-1.6,0.3-2.1,0.9c-0.6,0.6-0.9,1.3-0.9,2.1s0.3,1.6,0.9,2.1C144.8,196.6,145.6,196.9,146.4,196.9z"
							/>
					</g>
					<g>
						<path id="m5d78c2c536_9_" class="st2" d="M161.3,135.7c0.8,0,1.6-0.3,2.1-0.9c0.6-0.6,0.9-1.3,0.9-2.1s-0.3-1.6-0.9-2.1
							c-0.6-0.6-1.3-0.9-2.1-0.9s-1.6,0.3-2.1,0.9c-0.6,0.6-0.9,1.3-0.9,2.1s0.3,1.6,0.9,2.1C159.7,135.4,160.5,135.7,161.3,135.7z"
							/>
					</g>
				</g>
			</g>
		</g>
		<g id="matplotlib.axis_1">
			<g id="xtick_1">
				<g id="line2d_1">
					<g>
						<g>
							<path id="m16715cdb82" class="st3" d="M27.1,266.5v3.5"/>
						</g>
					</g>
				</g>
				<g id="text_1">
					<text transform="matrix(1 0 0 1 15.9702 281.1104)" class="st4 st5">1.00</text>
				</g>
			</g>
			<g id="xtick_2">
				<g id="line2d_2">
					<g>
						<g>
							<path id="m16715cdb82_1_" class="st3" d="M64.4,266.5v3.5"/>
						</g>
					</g>
				</g>
				<g id="text_2">
					<text transform="matrix(1 0 0 1 53.2354 281.1104)" class="st4 st5">1.25</text>
				</g>
			</g>
			<g id="xtick_3">
				<g id="line2d_3">
					<g>
						<g>
							<path id="m16715cdb82_2_" class="st3" d="M101.6,266.5v3.5"/>
						</g>
					</g>
				</g>
				<g id="text_3">
					<text transform="matrix(1 0 0 1 90.5006 281.1104)" class="st4 st5">1.50</text>
				</g>
			</g>
			<g id="xtick_4">
				<g id="line2d_4">
					<g>
						<g>
							<path id="m16715cdb82_3_" class="st3" d="M138.9,266.5v3.5"/>
						</g>
					</g>
				</g>
				<g id="text_4">
					<text transform="matrix(1 0 0 1 127.7659 281.1104)" class="st4 st5">1.75</text>
				</g>
			</g>
			<g id="xtick_5">
				<g id="line2d_5">
					<g>
						<g>
							<path id="m16715cdb82_4_" class="st3" d="M176.2,266.5v3.5"/>
						</g>
					</g>
				</g>
				<g id="text_5">
					<text transform="matrix(1 0 0 1 165.0311 281.1104)" class="st4 st5">2.00</text>
				</g>
			</g>
		</g>
		<g id="matplotlib.axis_2">
			<g id="ytick_1">
				<g id="line2d_6">
					<g>
						<g>
							<path id="m166ae8d0dd" class="st3" d="M19.7,249.3h-3.5"/>
						</g>
					</g>
				</g>
				<g id="text_6">
					<text transform="matrix(1 0 0 1 6.3622 253.058)" class="st4 st5">5</text>
				</g>
			</g>
			<g id="ytick_2">
				<g id="line2d_7">
					<g>
						<g>
							<path id="m166ae8d0dd_1_" class="st3" d="M19.7,216.6h-3.5"/>
						</g>
					</g>
				</g>
				<g id="text_7">
					<text transform="matrix(1 0 0 1 -1.220703e-04 220.4065)" class="st4 st5">10</text>
				</g>
			</g>
			<g id="ytick_3">
				<g id="line2d_8">
					<g>
						<g>
							<path id="m166ae8d0dd_2_" class="st3" d="M19.7,184h-3.5"/>
						</g>
					</g>
				</g>
				<g id="text_8">
					<text transform="matrix(1 0 0 1 -1.220703e-04 187.755)" class="st4 st5">15</text>
				</g>
			</g>
			<g id="ytick_4">
				<g id="line2d_9">
					<g>
						<g>
							<path id="m166ae8d0dd_3_" class="st3" d="M19.7,151.3h-3.5"/>
						</g>
					</g>
				</g>
				<g id="text_9">
					<text transform="matrix(1 0 0 1 -1.220703e-04 155.1035)" class="st4 st5">20</text>
				</g>
			</g>
			<g id="ytick_5">
				<g id="line2d_10">
					<g>
						<g>
							<path id="m166ae8d0dd_4_" class="st3" d="M19.7,118.7h-3.5"/>
						</g>
					</g>
				</g>
				<g id="text_10">
					<text transform="matrix(1 0 0 1 -1.220703e-04 122.452)" class="st4 st5">25</text>
				</g>
			</g>
			<g id="ytick_6">
				<g id="line2d_11">
					<g>
						<g>
							<path id="m166ae8d0dd_5_" class="st3" d="M19.7,86h-3.5"/>
						</g>
					</g>
				</g>
				<g id="text_11">
					<text transform="matrix(1 0 0 1 -1.220703e-04 89.8005)" class="st4 st5">30</text>
				</g>
			</g>
			<g id="ytick_7">
				<g id="line2d_12">
					<g>
						<g>
							<path id="m166ae8d0dd_6_" class="st3" d="M19.7,53.3h-3.5"/>
						</g>
					</g>
				</g>
				<g id="text_12">
					<text transform="matrix(1 0 0 1 -1.220703e-04 57.149)" class="st4 st5">35</text>
				</g>
			</g>
			<g id="ytick_8">
				<g id="line2d_13">
					<g>
						<g>
							<path id="m166ae8d0dd_7_" class="st3" d="M19.7,20.7h-3.5"/>
						</g>
					</g>
				</g>
				<g id="text_13">
					<text transform="matrix(1 0 0 1 -1.220703e-04 24.4975)" class="st4 st5">40</text>
				</g>
			</g>
		</g>
		<g id="line2d_14">
			<g>
				<defs>
					<rect id="SVGID_3_" x="19.7" y="0.4" width="162.3" height="266.1"/>
				</defs>
				<clipPath id="SVGID_4_">
					<use xlink:href="#SVGID_3_"  style="overflow:visible;"/>
				</clipPath>
				<path class="st6" d="M27.1,254.4l1.5-0.1l1.5-0.1l1.5-0.1l1.5-0.1l1.5-0.1L36,254l1.5-0.1l1.5-0.1l1.5-0.1l1.5-0.1l1.5-0.1
					l1.5-0.1l1.5-0.1l1.5-0.1l1.5-0.1l1.5-0.1l1.5-0.1l1.5-0.1l1.5-0.2l1.5-0.2l1.5-0.2l1.5-0.2l1.5-0.2l1.5-0.2l1.5-0.2l1.5-0.2
					l1.5-0.2l1.5-0.2l1.5-0.2l1.5-0.3l1.5-0.3l1.5-0.3l1.5-0.3l1.5-0.3l1.5-0.3l1.5-0.3l1.5-0.3l1.5-0.4l1.5-0.4l1.5-0.4l1.5-0.4
					l1.5-0.4l1.5-0.5l1.5-0.5l1.5-0.5l1.5-0.5l1.5-0.6l1.5-0.6l1.5-0.6l1.5-0.6l1.5-0.7l1.5-0.7l1.5-0.7l1.5-0.8l1.5-0.8l1.5-0.8
					l1.5-0.9l1.5-0.9l1.5-1l1.5-1l1.5-1.1l1.5-1.1l1.5-1.2l1.5-1.2l1.5-1.3l1.5-1.3l1.5-1.4l1.5-1.5l1.5-1.5l1.5-1.6l1.5-1.7
					l1.5-1.8l1.5-1.9l1.5-2l1.5-2l1.5-2.1l1.5-2.2l1.5-2.4l1.5-2.5l1.5-2.6l1.5-2.7l1.5-2.8l1.5-3l1.5-3.1l1.5-3.3l1.5-3.4l1.5-3.6
					l1.5-3.8l1.5-3.9l1.5-4.1l1.5-4.3l1.5-4.5l1.5-4.7l1.5-5l1.5-5.2l1.5-5.4l1.5-5.7l1.5-6l1.5-6.3"/>
			</g>
		</g>
		<g id="line2d_15">
			<g>
				<defs>
					<rect id="SVGID_5_" x="19.7" y="0.4" width="162.3" height="266.1"/>
				</defs>
				<clipPath id="SVGID_6_">
					<use xlink:href="#SVGID_5_"  style="overflow:visible;"/>
				</clipPath>
				<path class="st7" d="M27.1,254l1.5-0.1l1.5-0.1l1.5-0.1l1.5-0.1l1.5-0.1l1.5-0.1l1.5-0.1l1.5-0.1l1.5-0.1l1.5-0.1l1.5-0.1
					l1.5-0.1l1.5-0.1L48,253l1.5-0.1l1.5-0.1l1.5-0.1l1.5-0.1l1.5-0.1l1.5-0.1l1.5-0.1l1.5-0.1l1.5-0.1l1.5-0.1l1.5-0.1l1.5-0.2
					l1.5-0.2l1.5-0.2l1.5-0.2l1.5-0.2l1.5-0.2l1.5-0.2l1.5-0.2l1.5-0.2l1.5-0.2l1.5-0.2l1.5-0.3l1.5-0.3l1.5-0.3l1.5-0.3l1.5-0.3
					l1.5-0.3l1.5-0.4l1.5-0.4l1.5-0.4l1.5-0.4l1.5-0.5l1.5-0.5l1.5-0.5l1.5-0.5l1.5-0.6l1.5-0.6l1.5-0.6l1.5-0.7l1.5-0.7l1.5-0.8
					l1.5-0.8l1.5-0.9l1.5-0.9l1.5-1l1.5-1l1.5-1.1l1.5-1.2l1.5-1.3l1.5-1.3l1.5-1.4l1.5-1.5l1.5-1.6l1.5-1.8l1.5-1.9l1.5-2l1.5-2.2
					l1.5-2.3l1.5-2.5l1.5-2.7l1.5-2.9l1.5-3.1l1.5-3.3l1.5-3.6l1.5-3.9l1.5-4.2l1.5-4.5l1.5-4.9l1.5-5.3l1.5-5.7l1.5-6.2l1.5-6.7
					l1.5-7.3l1.5-7.9l1.5-8.5l1.5-9.3l1.5-10.1l1.5-11l1.5-11.9l1.5-13l1.5-14.2l1.5-15.5l1.5-16.9l1.5-18.4"/>
			</g>
		</g>
		<g id="patch_3">
			<path class="st8" d="M19.7,266.5V0.4"/>
		</g>
		<g id="patch_4">
			<path class="st8" d="M182.1,266.5V0.4"/>
		</g>
		<g id="patch_5">
			<path class="st8" d="M19.7,266.5h162.3"/>
		</g>
		<g id="patch_6">
			<path class="st8" d="M19.7,0.4h162.3"/>
		</g>
		<g id="legend_1">
			<g id="patch_7">
				<path class="st9" d="M26.7,37.8h88.1c1.3,0,2-0.7,2-2V7.4c0-1.3-0.7-2-2-2H26.7c-1.3,0-2,0.7-2,2v28.4
					C24.7,37.1,25.4,37.8,26.7,37.8z"/>
			</g>
			<g id="line2d_16">
				<path class="st10" d="M28.7,13.5h20"/>
			</g>
			<g id="line2d_17">
			</g>
			<g id="text_14">
				<text transform="matrix(1 0 0 1 56.7245 16.9984)" class="st4 st5">degree = 1</text>
			</g>
			<g id="line2d_18">
				<path class="st11" d="M28.7,28.2h20"/>
			</g>
			<g id="line2d_19">
			</g>
			<g id="text_15">
				<text transform="matrix(1 0 0 1 56.7245 31.6766)" class="st4 st5">degree = 3</text>
			</g>
		</g>
	</g>
	<g id="axes_2">
		<g id="patch_8">
			<path class="st0" d="M214.5,266.5h162.3V0.4H214.5V266.5z"/>
		</g>
		<g id="PathCollection_2">
			<g>
				<defs>
					<rect id="SVGID_7_" x="214.5" y="0.4" width="162.3" height="266.1"/>
				</defs>
				<clipPath id="SVGID_8_">
					<use xlink:href="#SVGID_7_"  style="overflow:visible;"/>
				</clipPath>
				<g class="st12">
					<g>
						<path id="m5d78c2c536_10_" class="st2" d="M221.9,15.9c0.8,0,1.6-0.3,2.1-0.9c0.6-0.6,0.9-1.3,0.9-2.1c0-0.8-0.3-1.6-0.9-2.1
							c-0.6-0.6-1.3-0.9-2.1-0.9s-1.6,0.3-2.1,0.9c-0.6,0.6-0.9,1.3-0.9,2.1c0,0.8,0.3,1.6,0.9,2.1
							C220.3,15.6,221.1,15.9,221.9,15.9z"/>
					</g>
					<g>
						<path id="m5d78c2c536_11_" class="st2" d="M236.8,16.5c0.8,0,1.6-0.3,2.1-0.9s0.9-1.3,0.9-2.1c0-0.8-0.3-1.6-0.9-2.1
							c-0.6-0.6-1.3-0.9-2.1-0.9s-1.6,0.3-2.1,0.9c-0.6,0.6-0.9,1.3-0.9,2.1c0,0.8,0.3,1.6,0.9,2.1S236,16.5,236.8,16.5z"/>
					</g>
					<g>
						<path id="m5d78c2c536_12_" class="st2" d="M251.7,17.5c0.8,0,1.6-0.3,2.1-0.9s0.9-1.3,0.9-2.1c0-0.8-0.3-1.6-0.9-2.1
							c-0.6-0.6-1.3-0.9-2.1-0.9s-1.6,0.3-2.1,0.9c-0.6,0.6-0.9,1.3-0.9,2.1c0,0.8,0.3,1.6,0.9,2.1S250.9,17.5,251.7,17.5z"/>
					</g>
					<g>
						<path id="m5d78c2c536_13_" class="st2" d="M266.6,19c0.8,0,1.6-0.3,2.1-0.9c0.6-0.6,0.9-1.3,0.9-2.1s-0.3-1.6-0.9-2.1
							c-0.6-0.6-1.3-0.9-2.1-0.9s-1.6,0.3-2.1,0.9c-0.6,0.6-0.9,1.3-0.9,2.1s0.3,1.6,0.9,2.1C265.1,18.7,265.8,19,266.6,19z"/>
					</g>
					<g>
						<path id="m5d78c2c536_14_" class="st2" d="M281.5,21.5c0.8,0,1.6-0.3,2.1-0.9c0.6-0.6,0.9-1.3,0.9-2.1s-0.3-1.6-0.9-2.1
							c-0.6-0.6-1.3-0.9-2.1-0.9s-1.6,0.3-2.1,0.9c-0.6,0.6-0.9,1.3-0.9,2.1s0.3,1.6,0.9,2.1C280,21.2,280.7,21.5,281.5,21.5z"/>
					</g>
					<g>
						<path id="m5d78c2c536_15_" class="st2" d="M296.4,25.7c0.8,0,1.6-0.3,2.1-0.9c0.6-0.6,0.9-1.3,0.9-2.1s-0.3-1.6-0.9-2.1
							c-0.6-0.6-1.3-0.9-2.1-0.9s-1.6,0.3-2.1,0.9c-0.6,0.6-0.9,1.3-0.9,2.1s0.3,1.6,0.9,2.1C294.9,25.4,295.6,25.7,296.4,25.7z"/>
					</g>
					<g>
						<path id="m5d78c2c536_16_" class="st2" d="M311.3,33.2c0.8,0,1.6-0.3,2.1-0.9c0.6-0.6,0.9-1.3,0.9-2.1s-0.3-1.6-0.9-2.1
							c-0.6-0.6-1.3-0.9-2.1-0.9s-1.6,0.3-2.1,0.9c-0.6,0.6-0.9,1.3-0.9,2.1s0.3,1.6,0.9,2.1C309.8,32.9,310.5,33.2,311.3,33.2z"/>
					</g>
					<g>
						<path id="m5d78c2c536_17_" class="st2" d="M326.2,47.5c0.8,0,1.6-0.3,2.1-0.9c0.6-0.6,0.9-1.3,0.9-2.1c0-0.8-0.3-1.6-0.9-2.1
							c-0.6-0.6-1.3-0.9-2.1-0.9s-1.6,0.3-2.1,0.9c-0.6,0.6-0.9,1.3-0.9,2.1c0,0.8,0.3,1.6,0.9,2.1
							C324.7,47.2,325.4,47.5,326.2,47.5z"/>
					</g>
					<g>
						<path id="m5d78c2c536_18_" class="st2" d="M341.1,76c0.8,0,1.6-0.3,2.1-0.9c0.6-0.6,0.9-1.3,0.9-2.1s-0.3-1.6-0.9-2.1
							c-0.6-0.6-1.3-0.9-2.1-0.9s-1.6,0.3-2.1,0.9c-0.6,0.6-0.9,1.3-0.9,2.1s0.3,1.6,0.9,2.1C339.6,75.7,340.3,76,341.1,76z"/>
					</g>
					<g>
						<path id="m5d78c2c536_19_" class="st2" d="M356.1,137.2c0.8,0,1.6-0.3,2.1-0.9c0.6-0.6,0.9-1.3,0.9-2.1s-0.3-1.6-0.9-2.1
							c-0.6-0.6-1.3-0.9-2.1-0.9s-1.6,0.3-2.1,0.9c-0.6,0.6-0.9,1.3-0.9,2.1s0.3,1.6,0.9,2.1C354.5,136.9,355.3,137.2,356.1,137.2z"
							/>
					</g>
				</g>
			</g>
		</g>
		<g id="matplotlib.axis_3">
			<g id="xtick_6">
				<g id="line2d_20">
					<g>
						<g>
							<path id="m16715cdb82_5_" class="st3" d="M221.9,266.5v3.5"/>
						</g>
					</g>
				</g>
				<g id="text_16">
					<text transform="matrix(1 0 0 1 210.7629 281.1104)" class="st4 st5">1.00</text>
				</g>
			</g>
			<g id="xtick_7">
				<g id="line2d_21">
					<g>
						<g>
							<path id="m16715cdb82_6_" class="st3" d="M259.2,266.5v3.5"/>
						</g>
					</g>
				</g>
				<g id="text_17">
					<text transform="matrix(1 0 0 1 248.0282 281.1104)" class="st4 st5">1.25</text>
				</g>
			</g>
			<g id="xtick_8">
				<g id="line2d_22">
					<g>
						<g>
							<path id="m16715cdb82_7_" class="st3" d="M296.4,266.5v3.5"/>
						</g>
					</g>
				</g>
				<g id="text_18">
					<text transform="matrix(1 0 0 1 285.2933 281.1104)" class="st4 st5">1.50</text>
				</g>
			</g>
			<g id="xtick_9">
				<g id="line2d_23">
					<g>
						<g>
							<path id="m16715cdb82_8_" class="st3" d="M333.7,266.5v3.5"/>
						</g>
					</g>
				</g>
				<g id="text_19">
					<text transform="matrix(1 0 0 1 322.5586 281.1104)" class="st4 st5">1.75</text>
				</g>
			</g>
			<g id="xtick_10">
				<g id="line2d_24">
					<g>
						<g>
							<path id="m16715cdb82_9_" class="st3" d="M371,266.5v3.5"/>
						</g>
					</g>
				</g>
				<g id="text_20">
					<text transform="matrix(1 0 0 1 359.8237 281.1104)" class="st4 st5">2.00</text>
				</g>
			</g>
		</g>
		<g id="matplotlib.axis_4">
			<g id="ytick_9">
				<g id="line2d_25">
					<g>
						<g>
							<path id="m166ae8d0dd_8_" class="st3" d="M214.5,246.2H211"/>
						</g>
					</g>
				</g>
				<g id="text_21">
					<text transform="matrix(1 0 0 1 186.4137 250.0129)" class="st4 st5">−40</text>
				</g>
			</g>
			<g id="ytick_10">
				<g id="line2d_26">
					<g>
						<g>
							<path id="m166ae8d0dd_9_" class="st3" d="M214.5,213.6H211"/>
						</g>
					</g>
				</g>
				<g id="text_22">
					<text transform="matrix(1 0 0 1 186.4137 217.3615)" class="st4 st5">−35</text>
				</g>
			</g>
			<g id="ytick_11">
				<g id="line2d_27">
					<g>
						<g>
							<path id="m166ae8d0dd_10_" class="st3" d="M214.5,180.9H211"/>
						</g>
					</g>
				</g>
				<g id="text_23">
					<text transform="matrix(1 0 0 1 186.4137 184.71)" class="st4 st5">−30</text>
				</g>
			</g>
			<g id="ytick_12">
				<g id="line2d_28">
					<g>
						<g>
							<path id="m166ae8d0dd_11_" class="st3" d="M214.5,148.3H211"/>
						</g>
					</g>
				</g>
				<g id="text_24">
					<text transform="matrix(1 0 0 1 186.4137 152.0584)" class="st4 st5">−25</text>
				</g>
			</g>
			<g id="ytick_13">
				<g id="line2d_29">
					<g>
						<g>
							<path id="m166ae8d0dd_12_" class="st3" d="M214.5,115.6H211"/>
						</g>
					</g>
				</g>
				<g id="text_25">
					<text transform="matrix(1 0 0 1 186.4137 119.4069)" class="st4 st5">−20</text>
				</g>
			</g>
			<g id="ytick_14">
				<g id="line2d_30">
					<g>
						<g>
							<path id="m166ae8d0dd_13_" class="st3" d="M214.5,83H211"/>
						</g>
					</g>
				</g>
				<g id="text_26">
					<text transform="matrix(1 0 0 1 186.4137 86.7554)" class="st4 st5">−15</text>
				</g>
			</g>
			<g id="ytick_15">
				<g id="line2d_31">
					<g>
						<g>
							<path id="m166ae8d0dd_14_" class="st3" d="M214.5,50.3H211"/>
						</g>
					</g>
				</g>
				<g id="text_27">
					<text transform="matrix(1 0 0 1 186.4137 54.104)" class="st4 st5">−10</text>
				</g>
			</g>
			<g id="ytick_16">
				<g id="line2d_32">
					<g>
						<g>
							<path id="m166ae8d0dd_15_" class="st3" d="M214.5,17.7H211"/>
						</g>
					</g>
				</g>
				<g id="text_28">
					<text transform="matrix(1 0 0 1 192.776 21.4524)" class="st4 st5">−5</text>
				</g>
			</g>
		</g>
		<g id="line2d_33">
			<g>
				<defs>
					<rect id="SVGID_9_" x="214.5" y="0.4" width="162.3" height="266.1"/>
				</defs>
				<clipPath id="SVGID_10_">
					<use xlink:href="#SVGID_9_"  style="overflow:visible;"/>
				</clipPath>
				<path class="st13" d="M221.9,12.5l1.5,0.1l1.5,0.1l1.5,0.1l1.5,0.1l1.5,0.1l1.5,0.1l1.5,0.1l1.5,0.1l1.5,0.1l1.5,0.1l1.5,0.1
					l1.5,0.1l1.5,0.1l1.5,0.1l1.5,0.1l1.5,0.1l1.5,0.1l1.5,0.1l1.5,0.2l1.5,0.2l1.5,0.2l1.5,0.2l1.5,0.2l1.5,0.2l1.5,0.2l1.5,0.2
					l1.5,0.2l1.5,0.2l1.5,0.2l1.5,0.3l1.5,0.3l1.5,0.3l1.5,0.3l1.5,0.3l1.5,0.3l1.5,0.3l1.5,0.3l1.5,0.4l1.5,0.4l1.5,0.4l1.5,0.4
					l1.5,0.4l1.5,0.5l1.5,0.5l1.5,0.5l1.5,0.5l1.5,0.6l1.5,0.6l1.5,0.6l1.5,0.6l1.5,0.7l1.5,0.7l1.5,0.7l1.5,0.8l1.5,0.8l1.5,0.8
					l1.5,0.9l1.5,0.9l1.5,1l1.5,1l1.5,1.1l1.5,1.1l1.5,1.2l1.5,1.2l1.5,1.3l1.5,1.3l1.5,1.4l1.5,1.5l1.5,1.5l1.5,1.6l1.5,1.7
					l1.5,1.8l1.5,1.9l1.5,2l1.5,2l1.5,2.1l1.5,2.2l1.5,2.4l1.5,2.5l1.5,2.6l1.5,2.7l1.5,2.8l1.5,3l1.5,3.1l1.5,3.3l1.5,3.4l1.5,3.6
					l1.5,3.8l1.5,3.9l1.5,4.1l1.5,4.3l1.5,4.5l1.5,4.7l1.5,5l1.5,5.2l1.5,5.4l1.5,5.7l1.5,6l1.5,6.3"/>
			</g>
		</g>
		<g id="line2d_34">
			<g>
				<defs>
					<rect id="SVGID_11_" x="214.5" y="0.4" width="162.3" height="266.1"/>
				</defs>
				<clipPath id="SVGID_12_">
					<use xlink:href="#SVGID_11_"  style="overflow:visible;"/>
				</clipPath>
				<path class="st14" d="M221.9,12.9l1.5,0.1l1.5,0.1l1.5,0.1l1.5,0.1l1.5,0.1l1.5,0.1l1.5,0.1l1.5,0.1l1.5,0.1l1.5,0.1l1.5,0.1
					l1.5,0.1l1.5,0.1l1.5,0.1l1.5,0.1l1.5,0.1l1.5,0.1l1.5,0.1l1.5,0.1l1.5,0.1l1.5,0.1l1.5,0.1l1.5,0.1l1.5,0.1l1.5,0.1l1.5,0.2
					l1.5,0.2l1.5,0.2l1.5,0.2l1.5,0.2l1.5,0.2l1.5,0.2l1.5,0.2l1.5,0.2l1.5,0.2l1.5,0.2l1.5,0.3l1.5,0.3l1.5,0.3l1.5,0.3l1.5,0.3
					l1.5,0.3l1.5,0.4l1.5,0.4l1.5,0.4l1.5,0.4l1.5,0.5l1.5,0.5l1.5,0.5l1.5,0.5l1.5,0.6l1.5,0.6l1.5,0.6l1.5,0.7l1.5,0.7l1.5,0.8
					l1.5,0.8l1.5,0.9l1.5,0.9l1.5,1l1.5,1l1.5,1.1l1.5,1.2l1.5,1.3l1.5,1.3l1.5,1.4l1.5,1.5l1.5,1.6l1.5,1.8l1.5,1.9l1.5,2l1.5,2.2
					l1.5,2.3l1.5,2.5l1.5,2.7l1.5,2.9l1.5,3.1l1.5,3.3l1.5,3.6l1.5,3.9l1.5,4.2l1.5,4.5l1.5,4.9l1.5,5.3l1.5,5.7l1.5,6.2l1.5,6.7
					l1.5,7.3l1.5,7.9l1.5,8.5l1.5,9.3l1.5,10.1l1.5,11l1.5,11.9l1.5,13l1.5,14.2l1.5,15.5L368,236l1.5,18.4"/>
			</g>
		</g>
		<g id="patch_9">
			<path class="st8" d="M214.5,266.5V0.4"/>
		</g>
		<g id="patch_10">
			<path class="st8" d="M376.8,266.5V0.4"/>
		</g>
		<g id="patch_11">
			<path class="st8" d="M214.5,266.5h162.3"/>
		</g>
		<g id="patch_12">
			<path class="st8" d="M214.5,0.4h162.3"/>
		</g>
		<g id="legend_2">
			<g id="patch_13">
				<path class="st9" d="M221.5,261.5h88.1c1.3,0,2-0.7,2-2v-28.4c0-1.3-0.7-2-2-2h-88.1c-1.3,0-2,0.7-2,2v28.4
					C219.5,260.8,220.2,261.5,221.5,261.5z"/>
			</g>
			<g id="line2d_35">
				<path class="st10" d="M223.5,237.3h20"/>
			</g>
			<g id="line2d_36">
			</g>
			<g id="text_29">
				<text transform="matrix(1 0 0 1 251.5172 240.7542)" class="st4 st5">degree = 1</text>
			</g>
			<g id="line2d_37">
				<path class="st11" d="M223.5,251.9h20"/>
			</g>
			<g id="line2d_38">
			</g>
			<g id="text_30">
				<text transform="matrix(1 0 0 1 251.5172 255.4323)" class="st4 st5">degree = 3</text>
			</g>
		</g>
	</g>
</g>
</svg>
