<?xml version="1.0" encoding="utf-8"?>
<!-- Generator: Adobe Illustrator 25.4.1, SVG Export Plug-In . SVG Version: 6.00 Build 0)  -->
<svg version="1.1" id="图层_1" xmlns="http://www.w3.org/2000/svg" xmlns:xlink="http://www.w3.org/1999/xlink" x="0px" y="0px"
	 viewBox="0 0 377.2 285.7" style="enable-background:new 0 0 377.2 285.7;" xml:space="preserve">
<style type="text/css">
	.st0{fill:#FFFFFF;}
	.st1{clip-path:url(#SVGID_00000075163013499500693480000002031252701218512823_);}
	.st2{fill:#FF0000;stroke:#FF0000;stroke-linejoin:round;}
	.st3{stroke:#000000;stroke-width:0.8;stroke-linejoin:round;}
	.st4{font-family:'DejaVuSans';}
	.st5{font-size:10px;}
	
		.st6{clip-path:url(#SVGID_00000173154157351307497860000000965569712578315939_);fill:none;stroke:#008000;stroke-width:1.5;stroke-linecap:square;stroke-linejoin:round;}
	.st7{fill:none;stroke:#000000;stroke-width:0.8;stroke-linecap:square;}
	.st8{opacity:0.8;fill:#FFFFFF;stroke:#CCCCCC;enable-background:new    ;}
</style>
<g id="figure_1">
	<g id="axes_1">
		<g id="patch_2">
			<path class="st0" d="M19.7,266.5h357.1V0.4H19.7V266.5z"/>
		</g>
		<g id="PathCollection_1">
			<g>
				<defs>
					<rect id="SVGID_1_" x="19.7" y="0.4" width="357.1" height="266.1"/>
				</defs>
				<clipPath id="SVGID_00000183947569985867758510000008077109671403971208_">
					<use xlink:href="#SVGID_1_"  style="overflow:visible;"/>
				</clipPath>
				<g style="clip-path:url(#SVGID_00000183947569985867758510000008077109671403971208_);">
					<g>
						<path id="m7475d73173" class="st2" d="M36,257.4c0.8,0,1.6-0.3,2.1-0.9c0.6-0.6,0.9-1.3,0.9-2.1s-0.3-1.6-0.9-2.1
							c-0.6-0.6-1.3-0.9-2.1-0.9s-1.6,0.3-2.1,0.9c-0.6,0.6-0.9,1.3-0.9,2.1s0.3,1.6,0.9,2.1C34.4,257.1,35.2,257.4,36,257.4z"/>
					</g>
					<g>
						<path id="m7475d73173_00000116955390791359171190000004414994403763882910_" class="st2" d="M52.4,214.7
							c0.8,0,1.6-0.3,2.1-0.9c0.6-0.6,0.9-1.3,0.9-2.1s-0.3-1.6-0.9-2.1c-0.6-0.6-1.3-0.9-2.1-0.9s-1.6,0.3-2.1,0.9
							c-0.6,0.6-0.9,1.3-0.9,2.1s0.3,1.6,0.9,2.1C50.8,214.3,51.6,214.7,52.4,214.7z"/>
					</g>
					<g>
						<path id="m7475d73173_00000077289116280371997330000011655144174626661311_" class="st2" d="M68.8,179.7
							c0.8,0,1.6-0.3,2.1-0.9c0.6-0.6,0.9-1.3,0.9-2.1s-0.3-1.6-0.9-2.1c-0.6-0.6-1.3-0.9-2.1-0.9s-1.6,0.3-2.1,0.9
							c-0.6,0.6-0.9,1.3-0.9,2.1s0.3,1.6,0.9,2.1C67.2,179.4,68,179.7,68.8,179.7z"/>
					</g>
					<g>
						<path id="m7475d73173_00000070811343293285973060000000266212888425061514_" class="st2" d="M85.1,158.3
							c0.8,0,1.6-0.3,2.1-0.9c0.6-0.6,0.9-1.3,0.9-2.1s-0.3-1.6-0.9-2.1c-0.6-0.6-1.3-0.9-2.1-0.9s-1.6,0.3-2.1,0.9
							c-0.6,0.6-0.9,1.3-0.9,2.1s0.3,1.6,0.9,2.1C83.6,158,84.4,158.3,85.1,158.3z"/>
					</g>
					<g>
						<path id="m7475d73173_00000118362692575693743190000005720317634122266289_" class="st2" d="M101.5,153.1
							c0.8,0,1.6-0.3,2.1-0.9c0.6-0.6,0.9-1.3,0.9-2.1s-0.3-1.6-0.9-2.1c-0.6-0.6-1.3-0.9-2.1-0.9s-1.6,0.3-2.1,0.9
							c-0.6,0.6-0.9,1.3-0.9,2.1s0.3,1.6,0.9,2.1C100,152.8,100.7,153.1,101.5,153.1z"/>
					</g>
					<g>
						<path id="m7475d73173_00000060017184734389592970000004399672754683005350_" class="st2" d="M117.9,162.7
							c0.8,0,1.6-0.3,2.1-0.9c0.6-0.6,0.9-1.3,0.9-2.1s-0.3-1.6-0.9-2.1c-0.6-0.6-1.3-0.9-2.1-0.9s-1.6,0.3-2.1,0.9
							c-0.6,0.6-0.9,1.3-0.9,2.1s0.3,1.6,0.9,2.1C116.4,162.4,117.1,162.7,117.9,162.7z"/>
					</g>
					<g>
						<path id="m7475d73173_00000066504069712808576790000005507023313335027587_" class="st2" d="M134.3,181.9
							c0.8,0,1.6-0.3,2.1-0.9c0.6-0.6,0.9-1.3,0.9-2.1s-0.3-1.6-0.9-2.1c-0.6-0.6-1.3-0.9-2.1-0.9s-1.6,0.3-2.1,0.9
							c-0.6,0.6-0.9,1.3-0.9,2.1s0.3,1.6,0.9,2.1C132.8,181.6,133.5,181.9,134.3,181.9z"/>
					</g>
					<g>
						<path id="m7475d73173_00000156585431296916804560000013096900907595037573_" class="st2" d="M150.7,203.4
							c0.8,0,1.6-0.3,2.1-0.9c0.6-0.6,0.9-1.3,0.9-2.1s-0.3-1.6-0.9-2.1c-0.6-0.6-1.3-0.9-2.1-0.9s-1.6,0.3-2.1,0.9
							c-0.6,0.6-0.9,1.3-0.9,2.1s0.3,1.6,0.9,2.1C149.2,203.1,149.9,203.4,150.7,203.4z"/>
					</g>
					<g>
						<path id="m7475d73173_00000067940219325977334760000008296319539013129875_" class="st2" d="M167.1,219.3
							c0.8,0,1.6-0.3,2.1-0.9c0.6-0.6,0.9-1.3,0.9-2.1s-0.3-1.6-0.9-2.1c-0.6-0.6-1.3-0.9-2.1-0.9s-1.6,0.3-2.1,0.9
							c-0.6,0.6-0.9,1.3-0.9,2.1s0.3,1.6,0.9,2.1C165.6,219,166.3,219.3,167.1,219.3z"/>
					</g>
					<g>
						<path id="m7475d73173_00000000217147704761366550000016771244698603119761_" class="st2" d="M183.5,222.8
							c0.8,0,1.6-0.3,2.1-0.9c0.6-0.6,0.9-1.3,0.9-2.1s-0.3-1.6-0.9-2.1c-0.6-0.6-1.3-0.9-2.1-0.9s-1.6,0.3-2.1,0.9
							c-0.6,0.6-0.9,1.3-0.9,2.1s0.3,1.6,0.9,2.1C182,222.5,182.7,222.8,183.5,222.8z"/>
					</g>
					<g>
						<path id="m7475d73173_00000058565518746858375540000002670671450754855845_" class="st2" d="M199.9,210.6
							c0.8,0,1.6-0.3,2.1-0.9c0.6-0.6,0.9-1.3,0.9-2.1s-0.3-1.6-0.9-2.1c-0.6-0.6-1.3-0.9-2.1-0.9s-1.6,0.3-2.1,0.9
							c-0.6,0.6-0.9,1.3-0.9,2.1s0.3,1.6,0.9,2.1C198.4,210.3,199.1,210.6,199.9,210.6z"/>
					</g>
					<g>
						<path id="m7475d73173_00000160169058663531232550000010118348286709747099_" class="st2" d="M216.3,182.8
							c0.8,0,1.6-0.3,2.1-0.9c0.6-0.6,0.9-1.3,0.9-2.1s-0.3-1.6-0.9-2.1c-0.6-0.6-1.3-0.9-2.1-0.9s-1.6,0.3-2.1,0.9
							c-0.6,0.6-0.9,1.3-0.9,2.1s0.3,1.6,0.9,2.1C214.8,182.5,215.5,182.8,216.3,182.8z"/>
					</g>
					<g>
						<path id="m7475d73173_00000052067694388798681110000012979194007649406138_" class="st2" d="M232.7,143.6
							c0.8,0,1.6-0.3,2.1-0.9c0.6-0.6,0.9-1.3,0.9-2.1s-0.3-1.6-0.9-2.1c-0.6-0.6-1.3-0.9-2.1-0.9s-1.6,0.3-2.1,0.9
							c-0.6,0.6-0.9,1.3-0.9,2.1s0.3,1.6,0.9,2.1C231.2,143.2,231.9,143.6,232.7,143.6z"/>
					</g>
					<g>
						<path id="m7475d73173_00000052792434653690362100000017006694410378856891_" class="st2" d="M249.1,99.8
							c0.8,0,1.6-0.3,2.1-0.9c0.6-0.6,0.9-1.3,0.9-2.1s-0.3-1.6-0.9-2.1c-0.6-0.6-1.3-0.9-2.1-0.9s-1.6,0.3-2.1,0.9
							c-0.6,0.6-0.9,1.3-0.9,2.1s0.3,1.6,0.9,2.1C247.6,99.5,248.3,99.8,249.1,99.8z"/>
					</g>
					<g>
						<path id="m7475d73173_00000135659917306351969340000007233960695905204914_" class="st2" d="M265.5,59.5
							c0.8,0,1.6-0.3,2.1-0.9c0.6-0.6,0.9-1.3,0.9-2.1c0-0.8-0.3-1.6-0.9-2.1c-0.6-0.6-1.3-0.9-2.1-0.9s-1.6,0.3-2.1,0.9
							c-0.6,0.6-0.9,1.3-0.9,2.1c0,0.8,0.3,1.6,0.9,2.1C264,59.2,264.7,59.5,265.5,59.5z"/>
					</g>
					<g>
						<path id="m7475d73173_00000165230976553996964580000012709147263610231719_" class="st2" d="M281.9,29.9
							c0.8,0,1.6-0.3,2.1-0.9c0.6-0.6,0.9-1.3,0.9-2.1s-0.3-1.6-0.9-2.1c-0.6-0.6-1.3-0.9-2.1-0.9s-1.6,0.3-2.1,0.9
							c-0.6,0.6-0.9,1.3-0.9,2.1s0.3,1.6,0.9,2.1C280.3,29.6,281.1,29.9,281.9,29.9z"/>
					</g>
					<g>
						<path id="m7475d73173_00000040575519171692135130000010648877219130213527_" class="st2" d="M298.3,15.5
							c0.8,0,1.6-0.3,2.1-0.9c0.6-0.6,0.9-1.3,0.9-2.1c0-0.8-0.3-1.6-0.9-2.1c-0.6-0.6-1.3-0.9-2.1-0.9s-1.6,0.3-2.1,0.9
							c-0.6,0.6-0.9,1.3-0.9,2.1c0,0.8,0.3,1.6,0.9,2.1C296.7,15.2,297.5,15.5,298.3,15.5z"/>
					</g>
					<g>
						<path id="m7475d73173_00000039127375427844973340000002843640446266709382_" class="st2" d="M314.7,17.1
							c0.8,0,1.6-0.3,2.1-0.9c0.6-0.6,0.9-1.3,0.9-2.1c0-0.8-0.3-1.6-0.9-2.1c-0.6-0.6-1.3-0.9-2.1-0.9s-1.6,0.3-2.1,0.9
							c-0.6,0.6-0.9,1.3-0.9,2.1c0,0.8,0.3,1.6,0.9,2.1C313.1,16.8,313.9,17.1,314.7,17.1z"/>
					</g>
					<g>
						<path id="m7475d73173_00000163774285234390726990000002440438529136936094_" class="st2" d="M331.1,31.6
							c0.8,0,1.6-0.3,2.1-0.9c0.6-0.6,0.9-1.3,0.9-2.1s-0.3-1.6-0.9-2.1c-0.6-0.6-1.3-0.9-2.1-0.9s-1.6,0.3-2.1,0.9
							c-0.6,0.6-0.9,1.3-0.9,2.1s0.3,1.6,0.9,2.1C329.5,31.3,330.3,31.6,331.1,31.6z"/>
					</g>
					<g>
						<path id="m7475d73173_00000078740324702795723990000012930074578881508258_" class="st2" d="M347.5,52.8
							c0.8,0,1.6-0.3,2.1-0.9c0.6-0.6,0.9-1.3,0.9-2.1c0-0.8-0.3-1.6-0.9-2.1c-0.6-0.6-1.3-0.9-2.1-0.9s-1.6,0.3-2.1,0.9
							c-0.6,0.6-0.9,1.3-0.9,2.1c0,0.8,0.3,1.6,0.9,2.1C345.9,52.5,346.7,52.8,347.5,52.8z"/>
					</g>
				</g>
			</g>
		</g>
		<g id="matplotlib.axis_1">
			<g id="xtick_1">
				<g id="line2d_1">
					<g>
						<g>
							<path id="m9befb9f2dd" class="st3" d="M36,266.5v3.5"/>
						</g>
					</g>
				</g>
				<g id="text_1">
					<text transform="matrix(1 0 0 1 32.7761 281.1104)" class="st4 st5">0</text>
				</g>
			</g>
			<g id="xtick_2">
				<g id="line2d_2">
					<g>
						<g>
							<path id="m9befb9f2dd_00000078727297512895200330000008038497319988561069_" class="st3" d="M101.5,266.5v3.5"/>
						</g>
					</g>
				</g>
				<g id="text_2">
					<text transform="matrix(1 0 0 1 98.3629 281.1104)" class="st4 st5">2</text>
				</g>
			</g>
			<g id="xtick_3">
				<g id="line2d_3">
					<g>
						<g>
							<path id="m9befb9f2dd_00000032643551244330832100000017789603212808159646_" class="st3" d="M167.1,266.5v3.5"/>
						</g>
					</g>
				</g>
				<g id="text_3">
					<text transform="matrix(1 0 0 1 163.9496 281.1104)" class="st4 st5">4</text>
				</g>
			</g>
			<g id="xtick_4">
				<g id="line2d_4">
					<g>
						<g>
							<path id="m9befb9f2dd_00000109026235870267047570000009682892156238931875_" class="st3" d="M232.7,266.5v3.5"/>
						</g>
					</g>
				</g>
				<g id="text_4">
					<text transform="matrix(1 0 0 1 229.5364 281.1104)" class="st4 st5">6</text>
				</g>
			</g>
			<g id="xtick_5">
				<g id="line2d_5">
					<g>
						<g>
							<path id="m9befb9f2dd_00000124859411300996564340000011014236871096333203_" class="st3" d="M298.3,266.5v3.5"/>
						</g>
					</g>
				</g>
				<g id="text_5">
					<text transform="matrix(1 0 0 1 295.1232 281.1104)" class="st4 st5">8</text>
				</g>
			</g>
			<g id="xtick_6">
				<g id="line2d_6">
					<g>
						<g>
							<path id="m9befb9f2dd_00000082366394765952077670000000530691048175949705_" class="st3" d="M363.9,266.5v3.5"/>
						</g>
					</g>
				</g>
				<g id="text_6">
					<text transform="matrix(1 0 0 1 357.5288 281.1104)" class="st4 st5">10</text>
				</g>
			</g>
		</g>
		<g id="matplotlib.axis_2">
			<g id="ytick_1">
				<g id="line2d_7">
					<g>
						<g>
							<path id="m678517112c" class="st3" d="M19.7,254.4h-3.5"/>
						</g>
					</g>
				</g>
				<g id="text_7">
					<text transform="matrix(1 0 0 1 6.3622 258.2152)" class="st4 st5">0</text>
				</g>
			</g>
			<g id="ytick_2">
				<g id="line2d_8">
					<g>
						<g>
							<path id="m678517112c_00000023963940403923438230000015325623805880595376_" class="st3" d="M19.7,210.3h-3.5"/>
						</g>
					</g>
				</g>
				<g id="text_8">
					<text transform="matrix(1 0 0 1 6.3622 214.1017)" class="st4 st5">2</text>
				</g>
			</g>
			<g id="ytick_3">
				<g id="line2d_9">
					<g>
						<g>
							<path id="m678517112c_00000060005453600380121570000017037142564487449790_" class="st3" d="M19.7,166.2h-3.5"/>
						</g>
					</g>
				</g>
				<g id="text_9">
					<text transform="matrix(1 0 0 1 6.3622 169.9882)" class="st4 st5">4</text>
				</g>
			</g>
			<g id="ytick_4">
				<g id="line2d_10">
					<g>
						<g>
							<path id="m678517112c_00000053510827147721456770000003523365091170293678_" class="st3" d="M19.7,122.1h-3.5"/>
						</g>
					</g>
				</g>
				<g id="text_10">
					<text transform="matrix(1 0 0 1 6.3622 125.8748)" class="st4 st5">6</text>
				</g>
			</g>
			<g id="ytick_5">
				<g id="line2d_11">
					<g>
						<g>
							<path id="m678517112c_00000105391974732727517130000004852652887642121127_" class="st3" d="M19.7,78h-3.5"/>
						</g>
					</g>
				</g>
				<g id="text_11">
					<text transform="matrix(1 0 0 1 6.3622 81.7613)" class="st4 st5">8</text>
				</g>
			</g>
			<g id="ytick_6">
				<g id="line2d_12">
					<g>
						<g>
							<path id="m678517112c_00000037661014491984262810000017485142038649307570_" class="st3" d="M19.7,33.8h-3.5"/>
						</g>
					</g>
				</g>
				<g id="text_12">
					<text transform="matrix(1 0 0 1 -1.220703e-04 37.6478)" class="st4 st5">10</text>
				</g>
			</g>
		</g>
		<g id="line2d_13">
			<g>
				<defs>
					<rect id="SVGID_00000171708654258548121000000010259182764960521633_" x="19.7" y="0.4" width="357.1" height="266.1"/>
				</defs>
				<clipPath id="SVGID_00000054972167401174159620000014427993822056717460_">
					<use xlink:href="#SVGID_00000171708654258548121000000010259182764960521633_"  style="overflow:visible;"/>
				</clipPath>
				
					<path style="clip-path:url(#SVGID_00000054972167401174159620000014427993822056717460_);fill:none;stroke:#008000;stroke-width:1.5;stroke-linecap:square;stroke-linejoin:round;" d="
					M36,225.7l3.3-5.4l3.3-5l3.3-4.5l3.3-4.2l3.3-3.8l3.3-3.4l3.3-3.1l3.3-2.7l3.3-2.4l3.3-2.1l3.3-1.8l3.3-1.5l3.3-1.3l3.3-1.1
					l3.3-0.8l3.3-0.6l3.3-0.4l3.3-0.2l3.3-0.1l3.3,0.1l3.3,0.2l3.3,0.3l3.3,0.4l3.3,0.5l3.3,0.6l3.3,0.6l3.3,0.7l3.3,0.7l3.3,0.7
					l3.3,0.7l3.3,0.7l3.3,0.6l3.3,0.6l3.3,0.5l3.3,0.4l3.3,0.3l3.3,0.2l3.3,0.1l3.3,0l3.3-0.2l3.3-0.4l3.3-0.6l3.3-0.8l3.3-1
					l3.3-1.2l3.3-1.5l3.3-1.7l3.3-2l3.3-2.3l3.3-2.6l3.3-3l3.3-3.3l3.3-3.6l3.3-3.8l3.3-4.1l3.3-4.3l3.3-4.5l3.3-4.7l3.3-4.9l3.3-5
					l3.3-5.1l3.3-5.2l3.3-5.3l3.3-5.4l3.3-5.4l3.3-5.4l3.3-5.5l3.3-5.4l3.3-5.4l3.3-5.3l3.3-5.3l3.3-5.2l3.3-5l3.3-4.9l3.3-4.8
					l3.3-4.6l3.3-4.4l3.3-4.2l3.3-3.9l3.3-3.7l3.3-3.4l3.3-3.1l3.3-2.8l3.3-2.4l3.3-2l3.3-1.7l3.3-1.3l3.3-0.8l3.3-0.4l3.3,0.1
					l3.3,0.5l3.3,1l3.3,1.6l3.3,2.1l3.3,2.7l3.3,3.3l3.3,3.9l3.3,4.5l3.3,5.1"/>
			</g>
		</g>
		<g id="patch_3">
			<path class="st7" d="M19.7,266.5V0.4"/>
		</g>
		<g id="patch_4">
			<path class="st7" d="M376.8,266.5V0.4"/>
		</g>
		<g id="patch_5">
			<path class="st7" d="M19.7,266.5h357.1"/>
		</g>
		<g id="patch_6">
			<path class="st7" d="M19.7,0.4h357.1"/>
		</g>
		<g id="legend_1">
			<g id="patch_7">
				<path class="st8" d="M365.8,13.4h4c1.3,0,2-0.7,2-2v-4c0-1.3-0.7-2-2-2h-4c-1.3,0-2,0.7-2,2v4C363.8,12.7,364.5,13.4,365.8,13.4
					z"/>
			</g>
		</g>
	</g>
</g>
</svg>
