<?xml version="1.0" encoding="utf-8"?>
<!-- Generator: Adobe Illustrator 25.2.1, SVG Export Plug-In . SVG Version: 6.00 Build 0)  -->
<svg version="1.1" id="图层_1" xmlns="http://www.w3.org/2000/svg" xmlns:xlink="http://www.w3.org/1999/xlink" x="0px" y="0px"
	 viewBox="0 0 386.8 285.7" style="enable-background:new 0 0 386.8 285.7;" xml:space="preserve">
<style type="text/css">
	.st0{fill:#FFFFFF;}
	.st1{clip-path:url(#SVGID_2_);}
	.st2{fill:#FF0000;stroke:#FF0000;stroke-linejoin:round;}
	.st3{stroke:#000000;stroke-width:0.8;stroke-linejoin:round;}
	.st4{font-family:'DejaVuSans';}
	.st5{font-size:10px;}
	.st6{clip-path:url(#SVGID_4_);fill:none;stroke:#008000;stroke-width:1.5;stroke-linecap:square;stroke-linejoin:round;}
	.st7{clip-path:url(#SVGID_6_);fill:none;stroke:#FFA500;stroke-width:1.5;stroke-linecap:square;stroke-linejoin:round;}
	.st8{clip-path:url(#SVGID_8_);fill:none;stroke:#0000FF;stroke-width:1.5;stroke-linecap:square;stroke-linejoin:round;}
	.st9{fill:none;stroke:#000000;stroke-width:0.8;stroke-linecap:square;}
	.st10{opacity:0.8;fill:#FFFFFF;stroke:#CCCCCC;enable-background:new    ;}
	.st11{fill:none;stroke:#008000;stroke-width:1.5;stroke-linecap:square;stroke-linejoin:round;}
	.st12{fill:none;stroke:#FFA500;stroke-width:1.5;stroke-linecap:square;stroke-linejoin:round;}
	.st13{fill:none;stroke:#0000FF;stroke-width:1.5;stroke-linecap:square;stroke-linejoin:round;}
</style>
<g id="figure_1">
	<g id="axes_1">
		<g id="patch_2">
			<path class="st0" d="M29.3,266.5h357.1V0.4H29.3V266.5z"/>
		</g>
		<g id="PathCollection_1">
			<g>
				<defs>
					<rect id="SVGID_1_" x="29.3" y="0.4" width="357.1" height="266.1"/>
				</defs>
				<clipPath id="SVGID_2_">
					<use xlink:href="#SVGID_1_"  style="overflow:visible;"/>
				</clipPath>
				<g class="st1">
					<g>
						<path id="m68e514235e" class="st2" d="M45.5,34.6c0.8,0,1.6-0.3,2.1-0.9c0.6-0.6,0.9-1.3,0.9-2.1c0-0.8-0.3-1.6-0.9-2.1
							c-0.6-0.6-1.3-0.9-2.1-0.9s-1.6,0.3-2.1,0.9c-0.6,0.6-0.9,1.3-0.9,2.1c0,0.8,0.3,1.6,0.9,2.1C43.9,34.3,44.7,34.6,45.5,34.6z"
							/>
					</g>
					<g>
						<path id="m68e514235e_1_" class="st2" d="M78.6,67.7c0.8,0,1.6-0.3,2.1-0.9c0.6-0.6,0.9-1.3,0.9-2.1c0-0.8-0.3-1.6-0.9-2.1
							c-0.6-0.6-1.3-0.9-2.1-0.9s-1.6,0.3-2.1,0.9c-0.6,0.6-0.9,1.3-0.9,2.1c0,0.8,0.3,1.6,0.9,2.1C77.1,67.4,77.8,67.7,78.6,67.7z"
							/>
					</g>
					<g>
						<path id="m68e514235e_2_" class="st2" d="M111.8,96.9c0.8,0,1.6-0.3,2.1-0.9c0.6-0.6,0.9-1.3,0.9-2.1s-0.3-1.6-0.9-2.1
							c-0.6-0.6-1.3-0.9-2.1-0.9s-1.6,0.3-2.1,0.9c-0.6,0.6-0.9,1.3-0.9,2.1s0.3,1.6,0.9,2.1C110.2,96.6,111,96.9,111.8,96.9z"/>
					</g>
					<g>
						<path id="m68e514235e_3_" class="st2" d="M144.9,122.9c0.8,0,1.6-0.3,2.1-0.9c0.6-0.6,0.9-1.3,0.9-2.1s-0.3-1.6-0.9-2.1
							c-0.6-0.6-1.3-0.9-2.1-0.9s-1.6,0.3-2.1,0.9c-0.6,0.6-0.9,1.3-0.9,2.1s0.3,1.6,0.9,2.1C143.3,122.6,144.1,122.9,144.9,122.9z"
							/>
					</g>
					<g>
						<path id="m68e514235e_4_" class="st2" d="M178,145.9c0.8,0,1.6-0.3,2.1-0.9c0.6-0.6,0.9-1.3,0.9-2.1s-0.3-1.6-0.9-2.1
							c-0.6-0.6-1.3-0.9-2.1-0.9s-1.6,0.3-2.1,0.9c-0.6,0.6-0.9,1.3-0.9,2.1s0.3,1.6,0.9,2.1C176.5,145.6,177.2,145.9,178,145.9z"/>
					</g>
					<g>
						<path id="m68e514235e_5_" class="st2" d="M211.1,166.5c0.8,0,1.6-0.3,2.1-0.9c0.6-0.6,0.9-1.3,0.9-2.1s-0.3-1.6-0.9-2.1
							c-0.6-0.6-1.3-0.9-2.1-0.9s-1.6,0.3-2.1,0.9c-0.6,0.6-0.9,1.3-0.9,2.1s0.3,1.6,0.9,2.1C209.6,166.2,210.3,166.5,211.1,166.5z"
							/>
					</g>
					<g>
						<path id="m68e514235e_6_" class="st2" d="M244.3,184.8c0.8,0,1.6-0.3,2.1-0.9c0.6-0.6,0.9-1.3,0.9-2.1s-0.3-1.6-0.9-2.1
							c-0.6-0.6-1.3-0.9-2.1-0.9s-1.6,0.3-2.1,0.9c-0.6,0.6-0.9,1.3-0.9,2.1s0.3,1.6,0.9,2.1C242.7,184.5,243.5,184.8,244.3,184.8z"
							/>
					</g>
					<g>
						<path id="m68e514235e_7_" class="st2" d="M277.4,201.3c0.8,0,1.6-0.3,2.1-0.9c0.6-0.6,0.9-1.3,0.9-2.1s-0.3-1.6-0.9-2.1
							c-0.6-0.6-1.3-0.9-2.1-0.9s-1.6,0.3-2.1,0.9c-0.6,0.6-0.9,1.3-0.9,2.1s0.3,1.6,0.9,2.1C275.8,200.9,276.6,201.3,277.4,201.3z"
							/>
					</g>
					<g>
						<path id="m68e514235e_8_" class="st2" d="M310.5,216c0.8,0,1.6-0.3,2.1-0.9c0.6-0.6,0.9-1.3,0.9-2.1s-0.3-1.6-0.9-2.1
							c-0.6-0.6-1.3-0.9-2.1-0.9s-1.6,0.3-2.1,0.9c-0.6,0.6-0.9,1.3-0.9,2.1s0.3,1.6,0.9,2.1C309,215.7,309.7,216,310.5,216z"/>
					</g>
					<g>
						<path id="m68e514235e_9_" class="st2" d="M343.7,229.3c0.8,0,1.6-0.3,2.1-0.9c0.6-0.6,0.9-1.3,0.9-2.1s-0.3-1.6-0.9-2.1
							c-0.6-0.6-1.3-0.9-2.1-0.9s-1.6,0.3-2.1,0.9c-0.6,0.6-0.9,1.3-0.9,2.1s0.3,1.6,0.9,2.1C342.1,229,342.9,229.3,343.7,229.3z"/>
					</g>
				</g>
			</g>
		</g>
		<g id="matplotlib.axis_1">
			<g id="xtick_1">
				<g id="line2d_1">
					<g>
						<g>
							<path id="m772aaf14c9" class="st3" d="M45.5,266.5v3.5"/>
						</g>
					</g>
				</g>
				<g id="text_1">
					<text transform="matrix(1 0 0 1 37.5466 281.1104)" class="st4 st5">3.0</text>
				</g>
			</g>
			<g id="xtick_2">
				<g id="line2d_2">
					<g>
						<g>
							<path id="m772aaf14c9_1_" class="st3" d="M111.8,266.5v3.5"/>
						</g>
					</g>
				</g>
				<g id="text_2">
					<text transform="matrix(1 0 0 1 103.8026 281.1104)" class="st4 st5">3.2</text>
				</g>
			</g>
			<g id="xtick_3">
				<g id="line2d_3">
					<g>
						<g>
							<path id="m772aaf14c9_2_" class="st3" d="M178,266.5v3.5"/>
						</g>
					</g>
				</g>
				<g id="text_3">
					<text transform="matrix(1 0 0 1 170.0587 281.1104)" class="st4 st5">3.4</text>
				</g>
			</g>
			<g id="xtick_4">
				<g id="line2d_4">
					<g>
						<g>
							<path id="m772aaf14c9_3_" class="st3" d="M244.3,266.5v3.5"/>
						</g>
					</g>
				</g>
				<g id="text_4">
					<text transform="matrix(1 0 0 1 236.3147 281.1104)" class="st4 st5">3.6</text>
				</g>
			</g>
			<g id="xtick_5">
				<g id="line2d_5">
					<g>
						<g>
							<path id="m772aaf14c9_4_" class="st3" d="M310.5,266.5v3.5"/>
						</g>
					</g>
				</g>
				<g id="text_5">
					<text transform="matrix(1 0 0 1 302.5707 281.1104)" class="st4 st5">3.8</text>
				</g>
			</g>
			<g id="xtick_6">
				<g id="line2d_6">
					<g>
						<g>
							<path id="m772aaf14c9_5_" class="st3" d="M376.8,266.5v3.5"/>
						</g>
					</g>
				</g>
				<g id="text_6">
					<text transform="matrix(1 0 0 1 368.8268 281.1104)" class="st4 st5">4.0</text>
				</g>
			</g>
		</g>
		<g id="matplotlib.axis_2">
			<g id="ytick_1">
				<g id="line2d_7">
					<g>
						<g>
							<path id="m9ff6b5ea34" class="st3" d="M29.3,216.5h-3.5"/>
						</g>
					</g>
				</g>
				<g id="text_7">
					<text transform="matrix(1 0 0 1 -1.220703e-04 220.2742)" class="st4 st5">4.15</text>
				</g>
			</g>
			<g id="ytick_2">
				<g id="line2d_8">
					<g>
						<g>
							<path id="m9ff6b5ea34_1_" class="st3" d="M29.3,160.7h-3.5"/>
						</g>
					</g>
				</g>
				<g id="text_8">
					<text transform="matrix(1 0 0 1 -1.220703e-04 164.5131)" class="st4 st5">4.20</text>
				</g>
			</g>
			<g id="ytick_3">
				<g id="line2d_9">
					<g>
						<g>
							<path id="m9ff6b5ea34_2_" class="st3" d="M29.3,105h-3.5"/>
						</g>
					</g>
				</g>
				<g id="text_9">
					<text transform="matrix(1 0 0 1 -1.220703e-04 108.752)" class="st4 st5">4.25</text>
				</g>
			</g>
			<g id="ytick_4">
				<g id="line2d_10">
					<g>
						<g>
							<path id="m9ff6b5ea34_3_" class="st3" d="M29.3,49.2h-3.5"/>
						</g>
					</g>
				</g>
				<g id="text_10">
					<text transform="matrix(1 0 0 1 -1.220703e-04 52.9908)" class="st4 st5">4.30</text>
				</g>
			</g>
		</g>
		<g id="line2d_11">
			<g>
				<defs>
					<rect id="SVGID_3_" x="29.3" y="0.4" width="357.1" height="266.1"/>
				</defs>
				<clipPath id="SVGID_4_">
					<use xlink:href="#SVGID_3_"  style="overflow:visible;"/>
				</clipPath>
				<path class="st6" d="M45.5,46.8l6.6,4.4l6.6,4.4l6.6,4.4l6.6,4.4l6.6,4.4l6.6,4.4l6.6,4.4l6.6,4.4l6.6,4.4l6.6,4.4l6.6,4.3
					l6.6,4.3l6.6,4.3l6.6,4.3l6.6,4.3l6.6,4.3l6.6,4.3l6.6,4.3l6.6,4.3l6.6,4.3l6.6,4.3l6.6,4.3l6.6,4.3l6.6,4.2l6.6,4.2l6.6,4.2
					l6.6,4.2l6.6,4.2l6.6,4.2l6.6,4.2l6.6,4.2l6.6,4.2l6.6,4.2l6.6,4.2l6.6,4.2l6.6,4.2l6.6,4.1l6.6,4.1l6.6,4.1l6.6,4.1l6.6,4.1
					l6.6,4.1l6.6,4.1l6.6,4.1l6.6,4.1l6.6,4.1l6.6,4.1l6.6,4.1l6.6,4.1"/>
			</g>
		</g>
		<g id="line2d_12">
			<g>
				<defs>
					<rect id="SVGID_5_" x="29.3" y="0.4" width="357.1" height="266.1"/>
				</defs>
				<clipPath id="SVGID_6_">
					<use xlink:href="#SVGID_5_"  style="overflow:visible;"/>
				</clipPath>
				<path class="st7" d="M45.5,12.5l6.6,10.4l6.6,9.9l6.6,9.3L72,51l6.6,8.4l6.6,8l6.6,7.6l6.6,7.3l6.6,6.9l6.6,6.6l6.6,6.3l6.6,6
					l6.6,5.8l6.6,5.6l6.6,5.3l6.6,5.1l6.6,4.9l6.6,4.7l6.6,4.6l6.6,4.4l6.6,4.2l6.6,4.1l6.6,3.9l6.6,3.8l6.6,3.7l6.6,3.6l6.6,3.4
					l6.6,3.3l6.6,3.2l6.6,3.1l6.6,3l6.6,2.9l6.6,2.9l6.6,2.8l6.6,2.7l6.6,2.6l6.6,2.5l6.6,2.5l6.6,2.4l6.6,2.3l6.6,2.3l6.6,2.2
					l6.6,2.2l6.6,2.1l6.6,2.1l6.6,2l6.6,2l6.6,1.9l6.6,1.9"/>
			</g>
		</g>
		<g id="line2d_13">
			<g>
				<defs>
					<rect id="SVGID_7_" x="29.3" y="0.4" width="357.1" height="266.1"/>
				</defs>
				<clipPath id="SVGID_8_">
					<use xlink:href="#SVGID_7_"  style="overflow:visible;"/>
				</clipPath>
				<path class="st8" d="M45.5,31.6l6.6,7l6.6,6.8l6.6,6.6l6.6,6.5l6.6,6.3l6.6,6.1l6.6,6l6.6,5.8l6.6,5.7l6.6,5.6l6.6,5.4l6.6,5.3
					l6.6,5.2l6.6,5.1l6.6,4.9l6.6,4.8l6.6,4.7l6.6,4.6l6.6,4.5l6.6,4.4l6.6,4.3l6.6,4.2l6.6,4.1l6.6,4l6.6,3.9l6.6,3.8l6.6,3.8
					l6.6,3.7l6.6,3.6l6.6,3.5l6.6,3.4l6.6,3.4l6.6,3.3l6.6,3.2l6.6,3.1l6.6,3.1l6.6,3l6.6,3l6.6,2.9l6.6,2.8l6.6,2.8l6.6,2.7
					l6.6,2.7l6.6,2.6l6.6,2.5l6.6,2.5l6.6,2.4l6.6,2.4l6.6,2.3"/>
			</g>
		</g>
		<g id="patch_3">
			<path class="st9" d="M29.3,266.5V0.4"/>
		</g>
		<g id="patch_4">
			<path class="st9" d="M386.4,266.5V0.4"/>
		</g>
		<g id="patch_5">
			<path class="st9" d="M29.3,266.5h357.1"/>
		</g>
		<g id="patch_6">
			<path class="st9" d="M29.3,0.4h357.1"/>
		</g>
		<g id="legend_1">
			<g id="patch_7">
				<path class="st10" d="M251.8,52.4h127.6c1.3,0,2-0.7,2-2v-43c0-1.3-0.7-2-2-2H251.8c-1.3,0-2,0.7-2,2v43
					C249.8,51.8,250.5,52.4,251.8,52.4z"/>
			</g>
			<g id="line2d_14">
				<path class="st11" d="M253.8,13.5h20"/>
			</g>
			<g id="line2d_15">
			</g>
			<g id="text_11">
				<text transform="matrix(1 0 0 1 281.8215 16.9984)" class="st4 st5">degree = 1</text>
			</g>
			<g id="line2d_16">
				<path class="st12" d="M253.8,28.2h20"/>
			</g>
			<g id="line2d_17">
			</g>
			<g id="text_12">
				<text transform="matrix(1 0 0 1 281.8215 31.6766)" class="st4 st5">degree = 1 (offset)</text>
			</g>
			<g id="line2d_18">
				<path class="st13" d="M253.8,42.9h20"/>
			</g>
			<g id="line2d_19">
			</g>
			<g id="text_13">
				<text transform="matrix(1 0 0 1 281.8215 46.3547)" class="st4 st5">degree = 3 (offset)</text>
			</g>
		</g>
	</g>
</g>
</svg>
