<?xml version="1.0" encoding="utf-8" standalone="no"?>
<!DOCTYPE svg PUBLIC "-//W3C//DTD SVG 1.1//EN"
  "http://www.w3.org/Graphics/SVG/1.1/DTD/svg11.dtd">
<svg xmlns:xlink="http://www.w3.org/1999/xlink" width="605.896563pt" height="354.625781pt" viewBox="0 0 605.896563 354.625781" xmlns="http://www.w3.org/2000/svg" version="1.1">
 <metadata>
  <rdf:RDF xmlns:dc="http://purl.org/dc/elements/1.1/" xmlns:cc="http://creativecommons.org/ns#" xmlns:rdf="http://www.w3.org/1999/02/22-rdf-syntax-ns#">
   <cc:Work>
    <dc:type rdf:resource="http://purl.org/dc/dcmitype/StillImage"/>
    <dc:date>2024-06-12T11:56:16.308708</dc:date>
    <dc:format>image/svg+xml</dc:format>
    <dc:creator>
     <cc:Agent>
      <dc:title>Matplotlib v3.8.4, https://matplotlib.org/</dc:title>
     </cc:Agent>
    </dc:creator>
   </cc:Work>
  </rdf:RDF>
 </metadata>
 <defs>
  <style type="text/css">*{stroke-linejoin: round; stroke-linecap: butt}</style>
 </defs>
 <g id="figure_1">
  <g id="patch_1">
   <path d="M 0 354.625781 
L 605.896563 354.625781 
L 605.896563 0 
L 0 0 
z
" style="fill: #ffffff"/>
  </g>
  <g id="axes_1">
   <g id="patch_2">
    <path d="M 47.896563 303.399219 
L 605.896562 303.399219 
L 605.896562 26.199219 
L 47.896563 26.199219 
z
" style="fill: #ffffff"/>
   </g>
   <g id="matplotlib.axis_1">
    <g id="xtick_1">
     <g id="line2d_1">
      <path d="M 60.610772 303.399219 
L 60.610772 26.199219 
" clip-path="url(#p817da76a21)" style="fill: none; stroke: #b0b0b0; stroke-opacity: 0.5; stroke-linecap: square"/>
     </g>
     <g id="line2d_2">
      <defs>
       <path id="ma328f0dfc6" d="M 0 0 
L 0 3.5 
" style="stroke: #000000; stroke-width: 0.8"/>
      </defs>
      <g>
       <use xlink:href="#ma328f0dfc6" x="60.610772" y="303.399219" style="stroke: #000000; stroke-width: 0.8"/>
      </g>
     </g>
     <g id="text_1">
      <!-- $-2\pi$ -->
      <g transform="translate(43.970772 322.431719)">
       <text>
        <tspan style="font: 16px 'DejaVu Sans'" x="0 13.40625" y="-0.125">−2</tspan>
        <tspan style="font: oblique 16px 'DejaVu Sans'" x="23.585938" y="-0.125">π</tspan>
       </text>
      </g>
     </g>
    </g>
    <g id="xtick_2">
     <g id="line2d_3">
      <path d="M 104.991737 303.399219 
L 104.991737 26.199219 
" clip-path="url(#p817da76a21)" style="fill: none; stroke: #b0b0b0; stroke-opacity: 0.5; stroke-linecap: square"/>
     </g>
     <g id="line2d_4">
      <g>
       <use xlink:href="#ma328f0dfc6" x="104.991737" y="303.399219" style="stroke: #000000; stroke-width: 0.8"/>
      </g>
     </g>
     <g id="text_2">
      <!-- $-\frac{5}{3}\pi$ -->
      <g transform="translate(88.831737 325.759219)">
       <text>
        <tspan style="font: 16px 'DejaVu Sans'" x="0" y="-0.6578124999999986">−</tspan>
        <tspan style="font: 11.2px 'DejaVu Sans'" x="13.40625 13.40625" y="-7.8296875 5.646875000000001">53</tspan>
        <tspan style="font: oblique 16px 'DejaVu Sans'" x="22.532031" y="-0.6578124999999986">π</tspan>
       </text>
       <rect x="13.40625" y="-4.665625" width="7.125781" height="1"/>
      </g>
     </g>
    </g>
    <g id="xtick_3">
     <g id="line2d_5">
      <path d="M 149.372702 303.399219 
L 149.372702 26.199219 
" clip-path="url(#p817da76a21)" style="fill: none; stroke: #b0b0b0; stroke-opacity: 0.5; stroke-linecap: square"/>
     </g>
     <g id="line2d_6">
      <g>
       <use xlink:href="#ma328f0dfc6" x="149.372702" y="303.399219" style="stroke: #000000; stroke-width: 0.8"/>
      </g>
     </g>
     <g id="text_3">
      <!-- -$\frac{4}{3}\pi$ -->
      <g transform="translate(137.292702 325.599219)">
       <text>
        <tspan style="font: 16px 'Optima'" x="0" y="-0.8218749999999986">-</tspan>
        <tspan style="font: 11.2px 'DejaVu Sans'" x="5.327988 5.327988" y="-7.8296875 5.482812500000001">43</tspan>
        <tspan style="font: oblique 16px 'DejaVu Sans'" x="14.453769" y="-0.8218749999999986">π</tspan>
       </text>
       <rect x="5.327988" y="-4.829688" width="7.125781" height="1"/>
      </g>
     </g>
    </g>
    <g id="xtick_4">
     <g id="line2d_7">
      <path d="M 193.753667 303.399219 
L 193.753667 26.199219 
" clip-path="url(#p817da76a21)" style="fill: none; stroke: #b0b0b0; stroke-opacity: 0.5; stroke-linecap: square"/>
     </g>
     <g id="line2d_8">
      <g>
       <use xlink:href="#ma328f0dfc6" x="193.753667" y="303.399219" style="stroke: #000000; stroke-width: 0.8"/>
      </g>
     </g>
     <g id="text_4">
      <!-- $-\pi$ -->
      <g transform="translate(182.233667 322.431719)">
       <text>
        <tspan style="font: 16px 'DejaVu Sans'" x="0" y="-0.25">−</tspan>
        <tspan style="font: oblique 16px 'DejaVu Sans'" x="13.40625" y="-0.25">π</tspan>
       </text>
      </g>
     </g>
    </g>
    <g id="xtick_5">
     <g id="line2d_9">
      <path d="M 238.134632 303.399219 
L 238.134632 26.199219 
" clip-path="url(#p817da76a21)" style="fill: none; stroke: #b0b0b0; stroke-opacity: 0.5; stroke-linecap: square"/>
     </g>
     <g id="line2d_10">
      <g>
       <use xlink:href="#ma328f0dfc6" x="238.134632" y="303.399219" style="stroke: #000000; stroke-width: 0.8"/>
      </g>
     </g>
     <g id="text_5">
      <!-- $-\frac{2}{3}\pi$ -->
      <g transform="translate(221.974632 325.759219)">
       <text>
        <tspan style="font: 16px 'DejaVu Sans'" x="0" y="-0.6796875">−</tspan>
        <tspan style="font: 11.2px 'DejaVu Sans'" x="13.40625 13.40625" y="-7.6875 5.625">23</tspan>
        <tspan style="font: oblique 16px 'DejaVu Sans'" x="22.532031" y="-0.6796875">π</tspan>
       </text>
       <rect x="13.40625" y="-4.6875" width="7.125781" height="1"/>
      </g>
     </g>
    </g>
    <g id="xtick_6">
     <g id="line2d_11">
      <path d="M 282.515597 303.399219 
L 282.515597 26.199219 
" clip-path="url(#p817da76a21)" style="fill: none; stroke: #b0b0b0; stroke-opacity: 0.5; stroke-linecap: square"/>
     </g>
     <g id="line2d_12">
      <g>
       <use xlink:href="#ma328f0dfc6" x="282.515597" y="303.399219" style="stroke: #000000; stroke-width: 0.8"/>
      </g>
     </g>
     <g id="text_6">
      <!-- $-\frac{1}{3}\pi$ -->
      <g transform="translate(266.355597 325.599219)">
       <text>
        <tspan style="font: 16px 'DejaVu Sans'" x="0" y="-0.8218749999999986">−</tspan>
        <tspan style="font: 11.2px 'DejaVu Sans'" x="13.40625 13.40625" y="-7.8296875 5.482812500000001">13</tspan>
        <tspan style="font: oblique 16px 'DejaVu Sans'" x="22.532031" y="-0.8218749999999986">π</tspan>
       </text>
       <rect x="13.40625" y="-4.829688" width="7.125781" height="1"/>
      </g>
     </g>
    </g>
    <g id="xtick_7">
     <g id="line2d_13">
      <path d="M 326.896562 303.399219 
L 326.896562 26.199219 
" clip-path="url(#p817da76a21)" style="fill: none; stroke: #b0b0b0; stroke-opacity: 0.5; stroke-linecap: square"/>
     </g>
     <g id="line2d_14">
      <g>
       <use xlink:href="#ma328f0dfc6" x="326.896562" y="303.399219" style="stroke: #000000; stroke-width: 0.8"/>
      </g>
     </g>
     <g id="text_7">
      <!-- $0$ -->
      <g transform="translate(321.776562 322.431719)">
       <text>
        <tspan style="font: 16px 'DejaVu Sans'" x="0" y="-0.125">0</tspan>
       </text>
      </g>
     </g>
    </g>
    <g id="xtick_8">
     <g id="line2d_15">
      <path d="M 371.277528 303.399219 
L 371.277528 26.199219 
" clip-path="url(#p817da76a21)" style="fill: none; stroke: #b0b0b0; stroke-opacity: 0.5; stroke-linecap: square"/>
     </g>
     <g id="line2d_16">
      <g>
       <use xlink:href="#ma328f0dfc6" x="371.277528" y="303.399219" style="stroke: #000000; stroke-width: 0.8"/>
      </g>
     </g>
     <g id="text_8">
      <!-- $\frac{1}{3}\pi$ -->
      <g transform="translate(361.837528 325.599219)">
       <text>
        <tspan style="font: 11.2px 'DejaVu Sans'" x="0 0" y="-7.8296875 5.482812500000001">13</tspan>
        <tspan style="font: oblique 16px 'DejaVu Sans'" x="9.125781" y="-0.8218749999999986">π</tspan>
       </text>
       <rect x="0" y="-4.829688" width="7.125781" height="1"/>
      </g>
     </g>
    </g>
    <g id="xtick_9">
     <g id="line2d_17">
      <path d="M 415.658493 303.399219 
L 415.658493 26.199219 
" clip-path="url(#p817da76a21)" style="fill: none; stroke: #b0b0b0; stroke-opacity: 0.5; stroke-linecap: square"/>
     </g>
     <g id="line2d_18">
      <g>
       <use xlink:href="#ma328f0dfc6" x="415.658493" y="303.399219" style="stroke: #000000; stroke-width: 0.8"/>
      </g>
     </g>
     <g id="text_9">
      <!-- $\frac{2}{3}\pi$ -->
      <g transform="translate(406.218493 325.759219)">
       <text>
        <tspan style="font: 11.2px 'DejaVu Sans'" x="0 0" y="-7.6875 5.625">23</tspan>
        <tspan style="font: oblique 16px 'DejaVu Sans'" x="9.125781" y="-0.6796875">π</tspan>
       </text>
       <rect x="0" y="-4.6875" width="7.125781" height="1"/>
      </g>
     </g>
    </g>
    <g id="xtick_10">
     <g id="line2d_19">
      <path d="M 460.039458 303.399219 
L 460.039458 26.199219 
" clip-path="url(#p817da76a21)" style="fill: none; stroke: #b0b0b0; stroke-opacity: 0.5; stroke-linecap: square"/>
     </g>
     <g id="line2d_20">
      <g>
       <use xlink:href="#ma328f0dfc6" x="460.039458" y="303.399219" style="stroke: #000000; stroke-width: 0.8"/>
      </g>
     </g>
     <g id="text_10">
      <!-- $\pi$ -->
      <g transform="translate(455.159458 322.431719)">
       <text>
        <tspan style="font: oblique 16px 'DejaVu Sans'" x="0" y="-0.25">π</tspan>
       </text>
      </g>
     </g>
    </g>
    <g id="xtick_11">
     <g id="line2d_21">
      <path d="M 504.420423 303.399219 
L 504.420423 26.199219 
" clip-path="url(#p817da76a21)" style="fill: none; stroke: #b0b0b0; stroke-opacity: 0.5; stroke-linecap: square"/>
     </g>
     <g id="line2d_22">
      <g>
       <use xlink:href="#ma328f0dfc6" x="504.420423" y="303.399219" style="stroke: #000000; stroke-width: 0.8"/>
      </g>
     </g>
     <g id="text_11">
      <!-- $\frac{4}{3}\pi$ -->
      <g transform="translate(494.980423 325.599219)">
       <text>
        <tspan style="font: 11.2px 'DejaVu Sans'" x="0 0" y="-7.8296875 5.482812500000001">43</tspan>
        <tspan style="font: oblique 16px 'DejaVu Sans'" x="9.125781" y="-0.8218749999999986">π</tspan>
       </text>
       <rect x="0" y="-4.829688" width="7.125781" height="1"/>
      </g>
     </g>
    </g>
    <g id="xtick_12">
     <g id="line2d_23">
      <path d="M 548.801388 303.399219 
L 548.801388 26.199219 
" clip-path="url(#p817da76a21)" style="fill: none; stroke: #b0b0b0; stroke-opacity: 0.5; stroke-linecap: square"/>
     </g>
     <g id="line2d_24">
      <g>
       <use xlink:href="#ma328f0dfc6" x="548.801388" y="303.399219" style="stroke: #000000; stroke-width: 0.8"/>
      </g>
     </g>
     <g id="text_12">
      <!-- $\frac{5}{3}\pi$ -->
      <g transform="translate(539.361388 325.759219)">
       <text>
        <tspan style="font: 11.2px 'DejaVu Sans'" x="0 0" y="-7.8296875 5.646875000000001">53</tspan>
        <tspan style="font: oblique 16px 'DejaVu Sans'" x="9.125781" y="-0.6578124999999986">π</tspan>
       </text>
       <rect x="0" y="-4.665625" width="7.125781" height="1"/>
      </g>
     </g>
    </g>
    <g id="xtick_13">
     <g id="line2d_25">
      <path d="M 593.182353 303.399219 
L 593.182353 26.199219 
" clip-path="url(#p817da76a21)" style="fill: none; stroke: #b0b0b0; stroke-opacity: 0.5; stroke-linecap: square"/>
     </g>
     <g id="line2d_26">
      <g>
       <use xlink:href="#ma328f0dfc6" x="593.182353" y="303.399219" style="stroke: #000000; stroke-width: 0.8"/>
      </g>
     </g>
     <g id="text_13">
      <!-- $2\pi$ -->
      <g transform="translate(583.262353 322.431719)">
       <text>
        <tspan style="font: 16px 'DejaVu Sans'" x="0" y="-0.125">2</tspan>
        <tspan style="font: oblique 16px 'DejaVu Sans'" x="10.179688" y="-0.125">π</tspan>
       </text>
      </g>
     </g>
    </g>
    <g id="text_14">
     <text style="font: 18px 'Optima'; text-anchor: middle" x="326.896563" y="349.855781" transform="rotate(-0 326.896563 349.855781)">x</text>
    </g>
   </g>
   <g id="matplotlib.axis_2">
    <g id="ytick_1">
     <g id="line2d_27">
      <path d="M 47.896563 297.683755 
L 605.896562 297.683755 
" clip-path="url(#p817da76a21)" style="fill: none; stroke: #b0b0b0; stroke-opacity: 0.5; stroke-linecap: square"/>
     </g>
     <g id="line2d_28">
      <defs>
       <path id="mccfb71576b" d="M 0 0 
L -3.5 0 
" style="stroke: #000000; stroke-width: 0.8"/>
      </defs>
      <g>
       <use xlink:href="#mccfb71576b" x="47.896563" y="297.683755" style="stroke: #000000; stroke-width: 0.8"/>
      </g>
     </g>
     <g id="text_15">
      <text style="font: 16px 'Optima'; text-anchor: end" x="40.896563" y="303.700005" transform="rotate(-0 40.896563 303.700005)">−2</text>
     </g>
    </g>
    <g id="ytick_2">
     <g id="line2d_29">
      <path d="M 47.896563 240.529116 
L 605.896562 240.529116 
" clip-path="url(#p817da76a21)" style="fill: none; stroke: #b0b0b0; stroke-opacity: 0.5; stroke-linecap: square"/>
     </g>
     <g id="line2d_30">
      <g>
       <use xlink:href="#mccfb71576b" x="47.896563" y="240.529116" style="stroke: #000000; stroke-width: 0.8"/>
      </g>
     </g>
     <g id="text_16">
      <text style="font: 16px 'Optima'; text-anchor: end" x="40.896563" y="246.545366" transform="rotate(-0 40.896563 246.545366)">−1</text>
     </g>
    </g>
    <g id="ytick_3">
     <g id="line2d_31">
      <path d="M 47.896563 183.374476 
L 605.896562 183.374476 
" clip-path="url(#p817da76a21)" style="fill: none; stroke: #b0b0b0; stroke-opacity: 0.5; stroke-linecap: square"/>
     </g>
     <g id="line2d_32">
      <g>
       <use xlink:href="#mccfb71576b" x="47.896563" y="183.374476" style="stroke: #000000; stroke-width: 0.8"/>
      </g>
     </g>
     <g id="text_17">
      <text style="font: 16px 'Optima'; text-anchor: end" x="40.896563" y="189.390726" transform="rotate(-0 40.896563 189.390726)">0</text>
     </g>
    </g>
    <g id="ytick_4">
     <g id="line2d_33">
      <path d="M 47.896563 126.219837 
L 605.896562 126.219837 
" clip-path="url(#p817da76a21)" style="fill: none; stroke: #b0b0b0; stroke-opacity: 0.5; stroke-linecap: square"/>
     </g>
     <g id="line2d_34">
      <g>
       <use xlink:href="#mccfb71576b" x="47.896563" y="126.219837" style="stroke: #000000; stroke-width: 0.8"/>
      </g>
     </g>
     <g id="text_18">
      <text style="font: 16px 'Optima'; text-anchor: end" x="40.896563" y="132.236087" transform="rotate(-0 40.896563 132.236087)">1</text>
     </g>
    </g>
    <g id="ytick_5">
     <g id="line2d_35">
      <path d="M 47.896563 69.065198 
L 605.896562 69.065198 
" clip-path="url(#p817da76a21)" style="fill: none; stroke: #b0b0b0; stroke-opacity: 0.5; stroke-linecap: square"/>
     </g>
     <g id="line2d_36">
      <g>
       <use xlink:href="#mccfb71576b" x="47.896563" y="69.065198" style="stroke: #000000; stroke-width: 0.8"/>
      </g>
     </g>
     <g id="text_19">
      <text style="font: 16px 'Optima'; text-anchor: end" x="40.896563" y="75.081448" transform="rotate(-0 40.896563 75.081448)">2</text>
     </g>
    </g>
    <g id="text_20">
     <text style="font: 18px 'Optima'; text-anchor: middle" x="13.536563" y="164.799219" transform="rotate(-90 13.536563 164.799219)">y</text>
    </g>
   </g>
   <g id="line2d_37">
    <path d="M 60.610772 183.374476 
L 71.629754 168.68113 
L 77.563052 161.117412 
L 82.648736 154.975471 
L 87.310613 149.70212 
L 91.548683 145.259783 
L 95.362946 141.5861 
L 98.753402 138.60371 
L 102.143858 135.907699 
L 105.534314 133.515314 
L 108.500963 131.683124 
L 111.467612 130.104119 
L 114.434261 128.786032 
L 117.40091 127.735319 
L 119.943752 127.051453 
L 122.486594 126.570289 
L 125.029436 126.293559 
L 127.572278 126.222258 
L 130.11512 126.356644 
L 132.657962 126.696232 
L 135.200804 127.239801 
L 137.743646 127.985394 
L 140.710295 129.106969 
L 143.676944 130.494346 
L 146.643593 132.14073 
L 149.610242 134.038057 
L 152.576891 136.177033 
L 155.967347 138.903984 
L 159.357803 141.915394 
L 163.172066 145.619196 
L 166.986329 149.62861 
L 171.224399 154.402398 
L 175.886276 159.985988 
L 181.395767 166.943774 
L 188.600486 176.442004 
L 207.671801 201.808899 
L 213.181292 208.666573 
L 217.843169 214.140276 
L 222.081239 218.795312 
L 225.895502 222.683503 
L 229.709764 226.253506 
L 233.10022 229.136298 
L 236.490676 231.72637 
L 239.457325 233.739489 
L 242.423974 235.50592 
L 245.390623 237.017012 
L 248.357272 238.265363 
L 251.323921 239.244858 
L 253.866763 239.866765 
L 256.409605 240.285361 
L 258.952447 240.499139 
L 261.495289 240.507331 
L 264.038131 240.309905 
L 266.580973 239.907574 
L 269.123815 239.301784 
L 271.666657 238.494717 
L 274.633306 237.30266 
L 277.599955 235.846463 
L 280.566604 234.133258 
L 283.533253 232.171437 
L 286.923709 229.637308 
L 290.314165 226.807254 
L 293.704621 223.699379 
L 297.518884 219.895754 
L 301.756954 215.324205 
L 306.418831 209.928646 
L 311.504515 203.678866 
L 317.437813 196.024915 
L 326.33776 184.128056 
L 338.204356 168.305074 
L 344.137654 160.759186 
L 349.223338 154.638126 
L 353.885215 149.388185 
L 358.123285 144.970431 
L 361.937548 141.321354 
L 365.328004 138.362639 
L 368.71846 135.691847 
L 372.108916 133.326061 
L 375.075565 131.518145 
L 378.042214 129.964222 
L 381.008863 128.671901 
L 383.975512 127.647514 
L 386.518354 126.98656 
L 389.061196 126.528542 
L 391.604038 126.275108 
L 394.14688 126.22717 
L 396.689722 126.3849 
L 399.232564 126.747732 
L 401.775406 127.314358 
L 404.318248 128.08274 
L 407.284897 129.230454 
L 410.251545 130.643366 
L 413.218194 132.314554 
L 416.184843 134.235834 
L 419.575299 136.725691 
L 422.965755 139.51394 
L 426.356211 142.582748 
L 430.170474 146.346003 
L 434.408544 150.877524 
L 438.646614 155.733744 
L 443.732298 161.921292 
L 449.665596 169.523569 
L 457.717929 180.245227 
L 471.70356 198.906857 
L 477.636858 206.430264 
L 482.722542 212.525174 
L 486.960612 217.287539 
L 491.198682 221.711057 
L 495.012945 225.3659 
L 498.403401 228.33016 
L 501.793857 231.006857 
L 505.184313 233.378869 
L 508.150962 235.192466 
L 511.117611 236.752258 
L 514.08426 238.050606 
L 517.050909 239.08115 
L 519.593751 239.747461 
L 522.136593 240.210891 
L 524.679435 240.46977 
L 527.222277 240.523169 
L 529.765119 240.370894 
L 532.307961 240.013493 
L 534.850803 239.452253 
L 537.393645 238.689193 
L 540.360294 237.547584 
L 543.326943 236.140634 
L 546.293592 234.475236 
L 549.260241 232.559546 
L 552.22689 230.402948 
L 555.617346 227.656877 
L 559.007802 224.627549 
L 562.822065 220.90517 
L 566.636328 216.878997 
L 570.874398 212.088885 
L 575.536275 206.490317 
L 581.045766 199.519091 
L 588.250485 190.010595 
L 592.912361 183.738584 
L 592.912361 183.738584 
" clip-path="url(#p817da76a21)" style="fill: none; stroke: #db3236; stroke-width: 2; stroke-linecap: square"/>
   </g>
   <g id="line2d_38">
    <path d="M 60.610772 240.529116 
L 63.153614 221.882722 
L 66.54407 195.195606 
L 73.324982 141.357127 
L 75.867824 123.003896 
L 77.986859 109.17628 
L 79.682087 99.300246 
L 81.377315 90.633428 
L 83.072543 83.300479 
L 84.343964 78.740331 
L 85.615385 75.027147 
L 86.462999 73.03736 
L 87.310613 71.444667 
L 88.158227 70.2548 
L 89.005841 69.472042 
L 89.853455 69.09921 
L 90.701069 69.137646 
L 91.548683 69.587211 
L 92.396297 70.446287 
L 93.243911 71.711782 
L 94.091525 73.379143 
L 94.939139 75.442368 
L 96.21056 79.262826 
L 97.481981 83.926018 
L 98.753402 89.3942 
L 100.44863 97.859916 
L 102.143858 107.555565 
L 104.262893 121.190752 
L 106.805735 139.367134 
L 109.772384 162.326173 
L 118.672331 232.560054 
L 121.215173 250.238777 
L 123.334208 263.342882 
L 125.029436 272.545924 
L 126.724664 280.466438 
L 127.996085 285.495894 
L 129.267506 289.698724 
L 130.538927 293.040909 
L 131.386541 294.777242 
L 132.234155 296.112646 
L 133.081769 297.042314 
L 133.929383 297.562901 
L 134.776997 297.672533 
L 135.624611 297.370815 
L 136.472225 296.658834 
L 137.319839 295.539151 
L 138.167453 294.015796 
L 139.015067 292.094253 
L 140.286488 288.480846 
L 141.557909 284.016651 
L 142.82933 278.737806 
L 144.524558 270.50687 
L 146.219786 261.022733 
L 148.338821 247.614616 
L 150.457856 232.763804 
L 153.424505 210.18888 
L 164.01968 127.250748 
L 166.138715 112.999486 
L 168.25775 100.328695 
L 169.952978 91.522584 
L 171.648206 84.037555 
L 172.919627 79.356263 
L 174.191048 75.51695 
L 175.462469 72.550694 
L 176.310083 71.070375 
L 177.157697 69.994229 
L 178.005311 69.32613 
L 178.852925 69.068482 
L 179.700539 69.222212 
L 180.548153 69.786767 
L 181.395767 70.760115 
L 182.243381 72.138754 
L 183.090995 73.91772 
L 184.362416 77.322393 
L 185.633837 81.585507 
L 186.905258 86.672556 
L 188.176679 92.542362 
L 189.871907 101.503404 
L 191.567135 111.641976 
L 193.68617 125.747499 
L 196.229012 144.352432 
L 199.619468 171.010247 
L 206.40038 224.883418 
L 208.943222 243.280587 
L 211.062257 257.156358 
L 212.757485 267.077707 
L 214.452713 275.795176 
L 216.147941 283.183383 
L 217.419362 287.787523 
L 218.690783 291.546488 
L 219.962204 294.429851 
L 220.809818 295.853824 
L 221.657432 296.872992 
L 222.505046 297.483689 
L 223.35266 297.683716 
L 224.200274 297.472353 
L 225.047888 296.85036 
L 225.895502 295.819978 
L 226.743116 294.384912 
L 227.59073 292.550329 
L 228.86215 289.06419 
L 230.133571 284.722541 
L 231.404992 279.560527 
L 233.10022 271.474852 
L 234.795448 262.122053 
L 236.914483 248.855674 
L 239.033518 234.118729 
L 242.000167 211.651654 
L 247.509658 167.419939 
L 251.323921 137.806523 
L 253.866763 119.774342 
L 255.985798 106.294528 
L 257.681026 96.743757 
L 259.376254 88.438972 
L 260.647675 83.10064 
L 261.919096 78.573977 
L 263.190517 74.895626 
L 264.038131 72.92967 
L 264.885745 71.361195 
L 265.733359 70.195848 
L 266.580973 69.437821 
L 267.428587 69.089843 
L 268.276201 69.153167 
L 269.123815 69.627563 
L 269.971429 70.511326 
L 270.819043 71.801275 
L 271.666657 73.492766 
L 272.514271 75.579713 
L 273.785692 79.4348 
L 275.057113 84.13123 
L 276.328534 89.630988 
L 278.023762 98.135783 
L 279.71899 107.866543 
L 281.838025 121.539275 
L 284.380867 139.750318 
L 287.347516 162.734089 
L 296.247463 232.934232 
L 298.790305 250.574828 
L 300.90934 263.638803 
L 302.604568 272.804909 
L 304.299796 280.684761 
L 305.571217 285.681625 
L 306.842638 289.850361 
L 308.114059 293.157224 
L 308.961673 294.869468 
L 309.809287 296.180451 
L 310.656901 297.085455 
L 311.504515 297.581222 
L 312.352129 297.665967 
L 313.199743 297.339387 
L 314.047357 296.602656 
L 314.894971 295.458426 
L 315.742585 293.910815 
L 316.590199 291.965392 
L 317.86162 288.317063 
L 319.133041 283.819272 
L 320.404462 278.508427 
L 322.09969 270.237758 
L 323.794918 260.717757 
L 325.913953 247.271033 
L 328.032988 232.38933 
L 330.999637 209.785407 
L 341.594812 126.889694 
L 343.713847 112.673024 
L 345.832882 100.044156 
L 347.52811 91.276236 
L 349.223338 83.832939 
L 350.494759 79.184913 
L 351.76618 75.380253 
L 353.037601 72.449756 
L 353.885215 70.993748 
L 354.732829 69.94219 
L 355.580443 69.298866 
L 356.428057 69.06609 
L 357.275671 69.244702 
L 358.123285 69.834057 
L 358.970899 70.832035 
L 359.818513 72.235045 
L 360.666127 74.038036 
L 361.937548 77.477907 
L 363.208969 81.774962 
L 364.48039 86.894417 
L 366.175618 94.927105 
L 367.870846 104.231908 
L 369.989881 117.446355 
L 372.108916 132.141405 
L 375.075565 154.568433 
L 380.161249 195.383629 
L 383.975512 225.269697 
L 386.518354 243.633528 
L 388.637389 257.472749 
L 390.332617 267.359698 
L 392.027845 276.038709 
L 393.723073 283.384957 
L 394.994494 287.95569 
L 396.265915 291.679887 
L 397.537336 294.527402 
L 398.38495 295.92702 
L 399.232564 296.921569 
L 400.080178 297.507472 
L 400.927792 297.68262 
L 401.775406 297.446381 
L 402.62302 296.799607 
L 403.470634 295.744625 
L 404.318248 294.285232 
L 405.165862 292.42668 
L 406.437283 288.905447 
L 407.708704 284.52999 
L 408.980124 279.335727 
L 410.675352 271.209926 
L 412.37058 261.820812 
L 414.489615 248.515187 
L 416.60865 233.746642 
L 419.575299 211.249491 
L 425.08479 167.009233 
L 428.899053 137.426341 
L 431.441895 119.430034 
L 433.56093 105.988675 
L 435.256158 96.47366 
L 436.951386 88.208515 
L 438.222807 82.902122 
L 439.494228 78.409005 
L 440.765649 74.765534 
L 441.613263 72.823435 
L 442.460877 71.279199 
L 443.308491 70.138386 
L 444.156105 69.4051 
L 445.003719 69.081981 
L 445.851333 69.170192 
L 446.698947 69.669415 
L 447.546561 70.577853 
L 448.394175 71.892237 
L 449.241789 73.607837 
L 450.089403 75.718478 
L 451.360824 79.608144 
L 452.632245 84.33775 
L 453.903666 89.869012 
L 455.598894 98.412773 
L 457.294122 108.178515 
L 459.413157 121.888613 
L 461.955999 140.134077 
L 465.346455 166.526011 
L 472.974981 227.052018 
L 475.517823 245.25825 
L 477.636858 258.925765 
L 479.332086 268.651645 
L 481.027314 277.151005 
L 482.298735 282.646372 
L 483.570156 287.338178 
L 484.841577 291.188447 
L 486.112998 294.166012 
L 486.960612 295.65402 
L 487.808226 296.737944 
L 488.65584 297.413881 
L 489.503454 297.6794 
L 490.351068 297.533544 
L 491.198682 296.976839 
L 492.046296 296.011289 
L 492.89391 294.640367 
L 493.741524 292.869008 
L 495.012945 289.475484 
L 496.284366 285.223122 
L 497.555787 280.146343 
L 498.827208 274.286241 
L 500.522436 265.33712 
L 502.217664 255.209153 
L 504.336699 241.114804 
L 506.879541 222.519901 
L 510.269997 195.86922 
L 517.050909 141.987893 
L 519.593751 123.580224 
L 521.712786 109.692925 
L 523.408014 99.760716 
L 525.103242 91.031101 
L 526.79847 83.629635 
L 528.069891 79.014936 
L 529.341312 75.244978 
L 530.612733 72.350279 
L 531.460347 70.918602 
L 532.307961 69.891645 
L 533.155575 69.273104 
L 534.003189 69.065204 
L 534.850803 69.268694 
L 535.698417 69.882842 
L 536.546031 70.905438 
L 537.393645 72.3328 
L 538.241259 74.159792 
L 539.51268 77.634817 
L 540.784101 81.965754 
L 542.055522 87.117548 
L 543.75075 95.190503 
L 545.445978 104.531783 
L 547.565013 117.785706 
L 549.684048 132.512611 
L 552.650697 154.970105 
L 557.736381 195.796126 
L 561.550644 225.655424 
L 564.093486 243.985676 
L 566.212521 257.788164 
L 567.907749 267.640581 
L 569.602977 276.281022 
L 571.298205 283.585214 
L 572.569626 288.12248 
L 573.841047 291.811859 
L 574.688661 293.78536 
L 575.536275 295.361501 
L 576.383889 296.53461 
L 577.231503 297.300464 
L 578.079117 297.656308 
L 578.926731 297.600861 
L 579.774345 297.134322 
L 580.621959 296.25837 
L 581.469573 294.976159 
L 582.317187 293.292301 
L 583.164801 291.212859 
L 584.436222 287.368725 
L 585.707643 282.682807 
L 586.979064 277.193034 
L 588.674291 268.700594 
L 590.369519 258.980931 
L 592.488554 245.320062 
L 592.912361 242.410534 
L 592.912361 242.410534 
" clip-path="url(#p817da76a21)" style="fill: none; stroke: #6876ab; stroke-width: 2; stroke-linecap: square"/>
   </g>
   <g id="line2d_39">
    <path d="M 47.896563 183.374476 
L 605.896562 183.374476 
" clip-path="url(#p817da76a21)" style="fill: none; stroke: #000000; stroke-linecap: square"/>
   </g>
   <g id="line2d_40">
    <path d="M 326.896563 303.399219 
L 326.896563 26.199219 
" clip-path="url(#p817da76a21)" style="fill: none; stroke: #000000; stroke-linecap: square"/>
   </g>
   <g id="patch_3">
    <path d="M 47.896563 303.399219 
L 605.896563 303.399219 
" style="fill: none; stroke: #000000; stroke-width: 0.8; stroke-linejoin: miter; stroke-linecap: square"/>
   </g>
   <g id="text_21">
    <text style="font: 25px 'Microsoft YaHei'; text-anchor: middle" x="326.896563" y="19.984375" transform="rotate(-0 326.896563 19.984375)">24年高考新一卷第7题</text>
   </g>
   <g id="legend_1">
    <g id="patch_4">
     <path d="M 193.376563 66.999219 
L 460.416562 66.999219 
Q 463.616562 66.999219 463.616562 63.799219 
L 463.616562 37.399219 
Q 463.616562 34.199219 460.416562 34.199219 
L 193.376563 34.199219 
Q 190.176563 34.199219 190.176563 37.399219 
L 190.176563 63.799219 
Q 190.176563 66.999219 193.376563 66.999219 
z
" style="fill: #ffffff"/>
    </g>
    <g id="line2d_41">
     <path d="M 196.576563 48.439219 
L 212.576563 48.439219 
L 228.576563 48.439219 
" style="fill: none; stroke: #db3236; stroke-width: 2; stroke-linecap: square"/>
    </g>
    <g id="text_22">
     <!-- $\sin(x)$ -->
     <g transform="translate(241.376563 54.039219)">
      <text>
       <tspan style="font: 16px 'DejaVu Sans'" x="0 8.335938 12.78125 22.921875 38.632812" y="-0.84375">sin()</tspan>
       <tspan style="font: oblique 16px 'DejaVu Sans'" x="29.164062" y="-0.84375">x</tspan>
      </text>
     </g>
    </g>
    <g id="line2d_42">
     <path d="M 318.336563 48.439219 
L 334.336563 48.439219 
L 350.336563 48.439219 
" style="fill: none; stroke: #6876ab; stroke-width: 2; stroke-linecap: square"/>
    </g>
    <g id="text_23">
     <!-- $2\sin(3x-\frac{\pi}{6})$ -->
     <g transform="translate(363.136563 54.039219)">
      <text>
       <tspan style="font: 16px 'DejaVu Sans'" x="0 10.179688 18.515625 22.960938 33.101562 39.34375 62.109375 87.758594" y="-0.6484375">2sin(3−)</tspan>
       <tspan style="font: oblique 16px 'DejaVu Sans'" x="49.523438" y="-0.6484375">x</tspan>
       <tspan style="font: oblique 11.2px 'DejaVu Sans'" x="78.632812" y="-7.875">π</tspan>
       <tspan style="font: 11.2px 'DejaVu Sans'" x="78.632812" y="5.65625">6</tspan>
      </text>
      <rect x="78.632812" y="-4.65625" width="7.125781" height="1"/>
     </g>
    </g>
   </g>
  </g>
 </g>
 <defs>
  <clipPath id="p817da76a21">
   <rect x="47.896563" y="26.199219" width="558" height="277.2"/>
  </clipPath>
 </defs>
</svg>
