<?xml version="1.0" encoding="utf-8"?>
<!-- Generator: Adobe Illustrator 25.2.1, SVG Export Plug-In . SVG Version: 6.00 Build 0)  -->
<svg version="1.1" id="图层_1" xmlns="http://www.w3.org/2000/svg" xmlns:xlink="http://www.w3.org/1999/xlink" x="0px" y="0px"
	 viewBox="0 0 382.1 285.7" style="enable-background:new 0 0 382.1 285.7;" xml:space="preserve">
<style type="text/css">
	.st0{fill:#FFFFFF;}
	.st1{clip-path:url(#SVGID_2_);}
	.st2{fill:#FF0000;stroke:#FF0000;stroke-linejoin:round;}
	.st3{stroke:#000000;stroke-width:0.8;stroke-linejoin:round;}
	.st4{font-family:'DejaVuSans';}
	.st5{font-size:10px;}
	.st6{clip-path:url(#SVGID_4_);fill:none;stroke:#008000;stroke-width:1.5;stroke-linecap:square;stroke-linejoin:round;}
	.st7{clip-path:url(#SVGID_6_);fill:none;stroke:#0000FF;stroke-width:1.5;stroke-linecap:square;stroke-linejoin:round;}
	.st8{fill:none;stroke:#000000;stroke-width:0.8;stroke-linecap:square;}
	.st9{opacity:0.8;fill:#FFFFFF;stroke:#CCCCCC;enable-background:new    ;}
	.st10{fill:none;stroke:#008000;stroke-width:1.5;stroke-linecap:square;stroke-linejoin:round;}
	.st11{fill:none;stroke:#0000FF;stroke-width:1.5;stroke-linecap:square;stroke-linejoin:round;}
	.st12{clip-path:url(#SVGID_8_);}
	.st13{clip-path:url(#SVGID_10_);fill:none;stroke:#008000;stroke-width:1.5;stroke-linecap:square;stroke-linejoin:round;}
	.st14{clip-path:url(#SVGID_12_);fill:none;stroke:#0000FF;stroke-width:1.5;stroke-linecap:square;stroke-linejoin:round;}
</style>
<g id="figure_1">
	<g id="axes_1">
		<g id="patch_2">
			<path class="st0" d="M19.7,266.5h162.3V0.4H19.7V266.5z"/>
		</g>
		<g id="PathCollection_1">
			<g>
				<defs>
					<rect id="SVGID_1_" x="19.7" y="0.4" width="162.3" height="266.1"/>
				</defs>
				<clipPath id="SVGID_2_">
					<use xlink:href="#SVGID_1_"  style="overflow:visible;"/>
				</clipPath>
				<g class="st1">
					<g>
						<path id="m65e247a979" class="st2" d="M27.1,110.1c0.8,0,1.6-0.3,2.1-0.9c0.6-0.6,0.9-1.3,0.9-2.1s-0.3-1.6-0.9-2.1
							c-0.6-0.6-1.3-0.9-2.1-0.9s-1.6,0.3-2.1,0.9c-0.6,0.6-0.9,1.3-0.9,2.1s0.3,1.6,0.9,2.1C25.5,109.8,26.3,110.1,27.1,110.1z"/>
					</g>
					<g>
						<path id="m65e247a979_1_" class="st2" d="M42,152.2c0.8,0,1.6-0.3,2.1-0.9c0.6-0.6,0.9-1.3,0.9-2.1s-0.3-1.6-0.9-2.1
							c-0.6-0.6-1.3-0.9-2.1-0.9s-1.6,0.3-2.1,0.9c-0.6,0.6-0.9,1.3-0.9,2.1s0.3,1.6,0.9,2.1C40.5,151.9,41.2,152.2,42,152.2z"/>
					</g>
					<g>
						<path id="m65e247a979_2_" class="st2" d="M56.9,179.8c0.8,0,1.6-0.3,2.1-0.9c0.6-0.6,0.9-1.3,0.9-2.1s-0.3-1.6-0.9-2.1
							c-0.6-0.6-1.3-0.9-2.1-0.9s-1.6,0.3-2.1,0.9c-0.6,0.6-0.9,1.3-0.9,2.1s0.3,1.6,0.9,2.1C55.4,179.5,56.1,179.8,56.9,179.8z"/>
					</g>
					<g>
						<path id="m65e247a979_3_" class="st2" d="M71.8,199.5c0.8,0,1.6-0.3,2.1-0.9c0.6-0.6,0.9-1.3,0.9-2.1s-0.3-1.6-0.9-2.1
							c-0.6-0.6-1.3-0.9-2.1-0.9s-1.6,0.3-2.1,0.9c-0.6,0.6-0.9,1.3-0.9,2.1s0.3,1.6,0.9,2.1C70.3,199.2,71,199.5,71.8,199.5z"/>
					</g>
					<g>
						<path id="m65e247a979_4_" class="st2" d="M86.7,214.3c0.8,0,1.6-0.3,2.1-0.9c0.6-0.6,0.9-1.3,0.9-2.1s-0.3-1.6-0.9-2.1
							c-0.6-0.6-1.3-0.9-2.1-0.9s-1.6,0.3-2.1,0.9c-0.6,0.6-0.9,1.3-0.9,2.1s0.3,1.6,0.9,2.1C85.2,214,85.9,214.3,86.7,214.3z"/>
					</g>
					<g>
						<path id="m65e247a979_5_" class="st2" d="M101.6,225.8c0.8,0,1.6-0.3,2.1-0.9c0.6-0.6,0.9-1.3,0.9-2.1s-0.3-1.6-0.9-2.1
							c-0.6-0.6-1.3-0.9-2.1-0.9s-1.6,0.3-2.1,0.9c-0.6,0.6-0.9,1.3-0.9,2.1s0.3,1.6,0.9,2.1C100.1,225.4,100.8,225.8,101.6,225.8z"
							/>
					</g>
					<g>
						<path id="m65e247a979_6_" class="st2" d="M116.5,234.9c0.8,0,1.6-0.3,2.1-0.9c0.6-0.6,0.9-1.3,0.9-2.1s-0.3-1.6-0.9-2.1
							c-0.6-0.6-1.3-0.9-2.1-0.9s-1.6,0.3-2.1,0.9c-0.6,0.6-0.9,1.3-0.9,2.1s0.3,1.6,0.9,2.1C115,234.6,115.7,234.9,116.5,234.9z"/>
					</g>
					<g>
						<path id="m65e247a979_7_" class="st2" d="M131.4,242.4c0.8,0,1.6-0.3,2.1-0.9c0.6-0.6,0.9-1.3,0.9-2.1s-0.3-1.6-0.9-2.1
							c-0.6-0.6-1.3-0.9-2.1-0.9s-1.6,0.3-2.1,0.9c-0.6,0.6-0.9,1.3-0.9,2.1s0.3,1.6,0.9,2.1C129.9,242,130.7,242.4,131.4,242.4z"/>
					</g>
					<g>
						<path id="m65e247a979_8_" class="st2" d="M146.4,248.5c0.8,0,1.6-0.3,2.1-0.9c0.6-0.6,0.9-1.3,0.9-2.1s-0.3-1.6-0.9-2.1
							c-0.6-0.6-1.3-0.9-2.1-0.9s-1.6,0.3-2.1,0.9c-0.6,0.6-0.9,1.3-0.9,2.1s0.3,1.6,0.9,2.1C144.8,248.2,145.6,248.5,146.4,248.5z"
							/>
					</g>
					<g>
						<path id="m65e247a979_9_" class="st2" d="M161.3,253.6c0.8,0,1.6-0.3,2.1-0.9c0.6-0.6,0.9-1.3,0.9-2.1s-0.3-1.6-0.9-2.1
							c-0.6-0.6-1.3-0.9-2.1-0.9s-1.6,0.3-2.1,0.9c-0.6,0.6-0.9,1.3-0.9,2.1s0.3,1.6,0.9,2.1C159.7,253.3,160.5,253.6,161.3,253.6z"
							/>
					</g>
				</g>
			</g>
		</g>
		<g id="matplotlib.axis_1">
			<g id="xtick_1">
				<g id="line2d_1">
					<g>
						<g>
							<path id="m7665214432" class="st3" d="M27.1,266.5v3.5"/>
						</g>
					</g>
				</g>
				<g id="text_1">
					<text transform="matrix(1 0 0 1 15.9702 281.1104)" class="st4 st5">1.00</text>
				</g>
			</g>
			<g id="xtick_2">
				<g id="line2d_2">
					<g>
						<g>
							<path id="m7665214432_1_" class="st3" d="M64.4,266.5v3.5"/>
						</g>
					</g>
				</g>
				<g id="text_2">
					<text transform="matrix(1 0 0 1 53.2354 281.1104)" class="st4 st5">1.25</text>
				</g>
			</g>
			<g id="xtick_3">
				<g id="line2d_3">
					<g>
						<g>
							<path id="m7665214432_2_" class="st3" d="M101.6,266.5v3.5"/>
						</g>
					</g>
				</g>
				<g id="text_3">
					<text transform="matrix(1 0 0 1 90.5006 281.1104)" class="st4 st5">1.50</text>
				</g>
			</g>
			<g id="xtick_4">
				<g id="line2d_4">
					<g>
						<g>
							<path id="m7665214432_3_" class="st3" d="M138.9,266.5v3.5"/>
						</g>
					</g>
				</g>
				<g id="text_4">
					<text transform="matrix(1 0 0 1 127.7659 281.1104)" class="st4 st5">1.75</text>
				</g>
			</g>
			<g id="xtick_5">
				<g id="line2d_5">
					<g>
						<g>
							<path id="m7665214432_4_" class="st3" d="M176.2,266.5v3.5"/>
						</g>
					</g>
				</g>
				<g id="text_5">
					<text transform="matrix(1 0 0 1 165.0311 281.1104)" class="st4 st5">2.00</text>
				</g>
			</g>
		</g>
		<g id="matplotlib.axis_2">
			<g id="ytick_1">
				<g id="line2d_6">
					<g>
						<g>
							<path id="m3569b07c26" class="st3" d="M19.7,225.3h-3.5"/>
						</g>
					</g>
				</g>
				<g id="text_6">
					<text transform="matrix(1 0 0 1 6.3622 229.1326)" class="st4 st5">6</text>
				</g>
			</g>
			<g id="ytick_2">
				<g id="line2d_7">
					<g>
						<g>
							<path id="m3569b07c26_1_" class="st3" d="M19.7,166.2h-3.5"/>
						</g>
					</g>
				</g>
				<g id="text_7">
					<text transform="matrix(1 0 0 1 6.3622 170.0116)" class="st4 st5">8</text>
				</g>
			</g>
			<g id="ytick_3">
				<g id="line2d_8">
					<g>
						<g>
							<path id="m3569b07c26_2_" class="st3" d="M19.7,107.1h-3.5"/>
						</g>
					</g>
				</g>
				<g id="text_8">
					<text transform="matrix(1 0 0 1 -1.220703e-04 110.8907)" class="st4 st5">10</text>
				</g>
			</g>
			<g id="ytick_4">
				<g id="line2d_9">
					<g>
						<g>
							<path id="m3569b07c26_3_" class="st3" d="M19.7,48h-3.5"/>
						</g>
					</g>
				</g>
				<g id="text_9">
					<text transform="matrix(1 0 0 1 -1.220703e-04 51.7698)" class="st4 st5">12</text>
				</g>
			</g>
		</g>
		<g id="line2d_10">
			<g>
				<defs>
					<rect id="SVGID_3_" x="19.7" y="0.4" width="162.3" height="266.1"/>
				</defs>
				<clipPath id="SVGID_4_">
					<use xlink:href="#SVGID_3_"  style="overflow:visible;"/>
				</clipPath>
				<path class="st6" d="M27.1,12.5l1.5,20.2l1.5,17.4l1.5,15.1l1.5,13.2l1.5,11.7l1.5,10.4l1.5,9.3l1.5,8.4l1.5,7.6l1.5,6.9
					l1.5,6.3l1.5,5.8l1.5,5.4l1.5,4.9l1.5,4.6l1.5,4.3l1.5,4l1.5,3.7l1.5,3.5l1.5,3.3l1.5,3.1l1.5,2.9l1.5,2.7l1.5,2.6l1.5,2.4
					l1.5,2.3l1.5,2.2l1.5,2.1l1.5,2l1.5,1.9l1.5,1.8l1.5,1.7l1.5,1.6l1.5,1.6l1.5,1.5l1.5,1.4l1.5,1.4l1.5,1.3l1.5,1.3l1.5,1.2
					l1.5,1.2l1.5,1.1l1.5,1.1l1.5,1.1l1.5,1l1.5,1l1.5,0.9l1.5,0.9l1.5,0.9l1.5,0.9l1.5,0.8l1.5,0.8l1.5,0.8l1.5,0.8l1.5,0.7
					l1.5,0.7l1.5,0.7l1.5,0.7l1.5,0.7l1.5,0.6l1.5,0.6l1.5,0.6l1.5,0.6l1.5,0.6l1.5,0.6l1.5,0.5l1.5,0.5l1.5,0.5l1.5,0.5l1.5,0.5
					l1.5,0.5l1.5,0.5l1.5,0.5l1.5,0.4l1.5,0.4l1.5,0.4l1.5,0.4l1.5,0.4l1.5,0.4l1.5,0.4l1.5,0.4l1.5,0.4l1.5,0.4l1.5,0.4l1.5,0.3
					l1.5,0.3l1.5,0.3l1.5,0.3l1.5,0.3l1.5,0.3l1.5,0.3l1.5,0.3l1.5,0.3l1.5,0.3l1.5,0.3l1.5,0.3l1.5,0.3l1.5,0.3l1.5,0.3"/>
			</g>
		</g>
		<g id="line2d_11">
			<g>
				<defs>
					<rect id="SVGID_5_" x="19.7" y="0.4" width="162.3" height="266.1"/>
				</defs>
				<clipPath id="SVGID_6_">
					<use xlink:href="#SVGID_5_"  style="overflow:visible;"/>
				</clipPath>
				<path class="st7" d="M27.1,106.7l1.5,5.3l1.5,5l1.5,4.8l1.5,4.5l1.5,4.3l1.5,4.1l1.5,3.9l1.5,3.7l1.5,3.6l1.5,3.4l1.5,3.3
					l1.5,3.1l1.5,3l1.5,2.9l1.5,2.8l1.5,2.7l1.5,2.6l1.5,2.5l1.5,2.4l1.5,2.3l1.5,2.2l1.5,2.2l1.5,2.1l1.5,2l1.5,2l1.5,1.9l1.5,1.9
					l1.5,1.8l1.5,1.8l1.5,1.7l1.5,1.7l1.5,1.6l1.5,1.6l1.5,1.5l1.5,1.5l1.5,1.4l1.5,1.4l1.5,1.4l1.5,1.3l1.5,1.3l1.5,1.3l1.5,1.2
					l1.5,1.2l1.5,1.2l1.5,1.2l1.5,1.1l1.5,1.1l1.5,1.1l1.5,1.1l1.5,1l1.5,1l1.5,1l1.5,1l1.5,0.9l1.5,0.9l1.5,0.9l1.5,0.9l1.5,0.9
					l1.5,0.9l1.5,0.8l1.5,0.8l1.5,0.8l1.5,0.8l1.5,0.8l1.5,0.8l1.5,0.7l1.5,0.7l1.5,0.7l1.5,0.7l1.5,0.7l1.5,0.7l1.5,0.7l1.5,0.6
					l1.5,0.6l1.5,0.6l1.5,0.6l1.5,0.6l1.5,0.6l1.5,0.6l1.5,0.6l1.5,0.6l1.5,0.5l1.5,0.5l1.5,0.5l1.5,0.5l1.5,0.5l1.5,0.5l1.5,0.5
					l1.5,0.5l1.5,0.5l1.5,0.5l1.5,0.4l1.5,0.4l1.5,0.4l1.5,0.4l1.5,0.4l1.5,0.4l1.5,0.4l1.5,0.4"/>
			</g>
		</g>
		<g id="patch_3">
			<path class="st8" d="M19.7,266.5V0.4"/>
		</g>
		<g id="patch_4">
			<path class="st8" d="M182.1,266.5V0.4"/>
		</g>
		<g id="patch_5">
			<path class="st8" d="M19.7,266.5h162.3"/>
		</g>
		<g id="patch_6">
			<path class="st8" d="M19.7,0.4h162.3"/>
		</g>
		<g id="legend_1">
			<g id="patch_7">
				<path class="st9" d="M86.9,37.8h88.1c1.3,0,2-0.7,2-2V7.4c0-1.3-0.7-2-2-2H86.9c-1.3,0-2,0.7-2,2v28.4
					C84.9,37.1,85.6,37.8,86.9,37.8z"/>
			</g>
			<g id="line2d_12">
				<path class="st10" d="M88.9,13.5h20"/>
			</g>
			<g id="line2d_13">
			</g>
			<g id="text_10">
				<text transform="matrix(1 0 0 1 116.9111 16.9984)" class="st4 st5">degree = 1</text>
			</g>
			<g id="line2d_14">
				<path class="st11" d="M88.9,28.2h20"/>
			</g>
			<g id="line2d_15">
			</g>
			<g id="text_11">
				<text transform="matrix(1 0 0 1 116.9111 31.6766)" class="st4 st5">degree = 3</text>
			</g>
		</g>
	</g>
	<g id="axes_2">
		<g id="patch_8">
			<path class="st0" d="M214.5,266.5h162.3V0.4H214.5V266.5z"/>
		</g>
		<g id="PathCollection_2">
			<g>
				<defs>
					<rect id="SVGID_7_" x="214.5" y="0.4" width="162.3" height="266.1"/>
				</defs>
				<clipPath id="SVGID_8_">
					<use xlink:href="#SVGID_7_"  style="overflow:visible;"/>
				</clipPath>
				<g class="st12">
					<g>
						<path id="m65e247a979_10_" class="st2" d="M221.9,162.8c0.8,0,1.6-0.3,2.1-0.9c0.6-0.6,0.9-1.3,0.9-2.1s-0.3-1.6-0.9-2.1
							c-0.6-0.6-1.3-0.9-2.1-0.9s-1.6,0.3-2.1,0.9c-0.6,0.6-0.9,1.3-0.9,2.1s0.3,1.6,0.9,2.1C220.3,162.5,221.1,162.8,221.9,162.8z"
							/>
					</g>
					<g>
						<path id="m65e247a979_11_" class="st2" d="M236.8,120.7c0.8,0,1.6-0.3,2.1-0.9c0.6-0.6,0.9-1.3,0.9-2.1s-0.3-1.6-0.9-2.1
							c-0.6-0.6-1.3-0.9-2.1-0.9s-1.6,0.3-2.1,0.9c-0.6,0.6-0.9,1.3-0.9,2.1s0.3,1.6,0.9,2.1C235.2,120.4,236,120.7,236.8,120.7z"/>
					</g>
					<g>
						<path id="m65e247a979_12_" class="st2" d="M251.7,93.1c0.8,0,1.6-0.3,2.1-0.9c0.6-0.6,0.9-1.3,0.9-2.1s-0.3-1.6-0.9-2.1
							c-0.6-0.6-1.3-0.9-2.1-0.9s-1.6,0.3-2.1,0.9c-0.6,0.6-0.9,1.3-0.9,2.1s0.3,1.6,0.9,2.1C250.1,92.8,250.9,93.1,251.7,93.1z"/>
					</g>
					<g>
						<path id="m65e247a979_13_" class="st2" d="M266.6,73.4c0.8,0,1.6-0.3,2.1-0.9c0.6-0.6,0.9-1.3,0.9-2.1s-0.3-1.6-0.9-2.1
							c-0.6-0.6-1.3-0.9-2.1-0.9s-1.6,0.3-2.1,0.9c-0.6,0.6-0.9,1.3-0.9,2.1s0.3,1.6,0.9,2.1C265.1,73.1,265.8,73.4,266.6,73.4z"/>
					</g>
					<g>
						<path id="m65e247a979_14_" class="st2" d="M281.5,58.6c0.8,0,1.6-0.3,2.1-0.9c0.6-0.6,0.9-1.3,0.9-2.1c0-0.8-0.3-1.6-0.9-2.1
							c-0.6-0.6-1.3-0.9-2.1-0.9s-1.6,0.3-2.1,0.9c-0.6,0.6-0.9,1.3-0.9,2.1c0,0.8,0.3,1.6,0.9,2.1C280,58.3,280.7,58.6,281.5,58.6z
							"/>
					</g>
					<g>
						<path id="m65e247a979_15_" class="st2" d="M296.4,47.1c0.8,0,1.6-0.3,2.1-0.9c0.6-0.6,0.9-1.3,0.9-2.1c0-0.8-0.3-1.6-0.9-2.1
							c-0.6-0.6-1.3-0.9-2.1-0.9s-1.6,0.3-2.1,0.9c-0.6,0.6-0.9,1.3-0.9,2.1c0,0.8,0.3,1.6,0.9,2.1
							C294.9,46.8,295.6,47.1,296.4,47.1z"/>
					</g>
					<g>
						<path id="m65e247a979_16_" class="st2" d="M311.3,38c0.8,0,1.6-0.3,2.1-0.9c0.6-0.6,0.9-1.3,0.9-2.1c0-0.8-0.3-1.6-0.9-2.1
							c-0.6-0.6-1.3-0.9-2.1-0.9s-1.6,0.3-2.1,0.9c-0.6,0.6-0.9,1.3-0.9,2.1c0,0.8,0.3,1.6,0.9,2.1C309.8,37.7,310.5,38,311.3,38z"
							/>
					</g>
					<g>
						<path id="m65e247a979_17_" class="st2" d="M326.2,30.6c0.8,0,1.6-0.3,2.1-0.9c0.6-0.6,0.9-1.3,0.9-2.1s-0.3-1.6-0.9-2.1
							c-0.6-0.6-1.3-0.9-2.1-0.9s-1.6,0.3-2.1,0.9c-0.6,0.6-0.9,1.3-0.9,2.1s0.3,1.6,0.9,2.1C324.7,30.2,325.4,30.6,326.2,30.6z"/>
					</g>
					<g>
						<path id="m65e247a979_18_" class="st2" d="M341.1,24.4c0.8,0,1.6-0.3,2.1-0.9c0.6-0.6,0.9-1.3,0.9-2.1s-0.3-1.6-0.9-2.1
							c-0.6-0.6-1.3-0.9-2.1-0.9s-1.6,0.3-2.1,0.9c-0.6,0.6-0.9,1.3-0.9,2.1s0.3,1.6,0.9,2.1C339.6,24.1,340.3,24.4,341.1,24.4z"/>
					</g>
					<g>
						<path id="m65e247a979_19_" class="st2" d="M356.1,19.3c0.8,0,1.6-0.3,2.1-0.9c0.6-0.6,0.9-1.3,0.9-2.1s-0.3-1.6-0.9-2.1
							c-0.6-0.6-1.3-0.9-2.1-0.9s-1.6,0.3-2.1,0.9c-0.6,0.6-0.9,1.3-0.9,2.1s0.3,1.6,0.9,2.1C354.5,19,355.3,19.3,356.1,19.3z"/>
					</g>
				</g>
			</g>
		</g>
		<g id="matplotlib.axis_3">
			<g id="xtick_6">
				<g id="line2d_16">
					<g>
						<g>
							<path id="m7665214432_5_" class="st3" d="M221.9,266.5v3.5"/>
						</g>
					</g>
				</g>
				<g id="text_12">
					<text transform="matrix(1 0 0 1 210.7629 281.1104)" class="st4 st5">1.00</text>
				</g>
			</g>
			<g id="xtick_7">
				<g id="line2d_17">
					<g>
						<g>
							<path id="m7665214432_6_" class="st3" d="M259.2,266.5v3.5"/>
						</g>
					</g>
				</g>
				<g id="text_13">
					<text transform="matrix(1 0 0 1 248.0282 281.1104)" class="st4 st5">1.25</text>
				</g>
			</g>
			<g id="xtick_8">
				<g id="line2d_18">
					<g>
						<g>
							<path id="m7665214432_7_" class="st3" d="M296.4,266.5v3.5"/>
						</g>
					</g>
				</g>
				<g id="text_14">
					<text transform="matrix(1 0 0 1 285.2933 281.1104)" class="st4 st5">1.50</text>
				</g>
			</g>
			<g id="xtick_9">
				<g id="line2d_19">
					<g>
						<g>
							<path id="m7665214432_8_" class="st3" d="M333.7,266.5v3.5"/>
						</g>
					</g>
				</g>
				<g id="text_15">
					<text transform="matrix(1 0 0 1 322.5586 281.1104)" class="st4 st5">1.75</text>
				</g>
			</g>
			<g id="xtick_10">
				<g id="line2d_20">
					<g>
						<g>
							<path id="m7665214432_9_" class="st3" d="M371,266.5v3.5"/>
						</g>
					</g>
				</g>
				<g id="text_16">
					<text transform="matrix(1 0 0 1 359.8237 281.1104)" class="st4 st5">2.00</text>
				</g>
			</g>
		</g>
		<g id="matplotlib.axis_4">
			<g id="ytick_5">
				<g id="line2d_21">
					<g>
						<g>
							<path id="m3569b07c26_4_" class="st3" d="M214.5,218.9H211"/>
						</g>
					</g>
				</g>
				<g id="text_17">
					<text transform="matrix(1 0 0 1 186.4137 222.7407)" class="st4 st5">−12</text>
				</g>
			</g>
			<g id="ytick_6">
				<g id="line2d_22">
					<g>
						<g>
							<path id="m3569b07c26_5_" class="st3" d="M214.5,159.8H211"/>
						</g>
					</g>
				</g>
				<g id="text_18">
					<text transform="matrix(1 0 0 1 186.4137 163.6198)" class="st4 st5">−10</text>
				</g>
			</g>
			<g id="ytick_7">
				<g id="line2d_23">
					<g>
						<g>
							<path id="m3569b07c26_6_" class="st3" d="M214.5,100.7H211"/>
						</g>
					</g>
				</g>
				<g id="text_19">
					<text transform="matrix(1 0 0 1 192.776 104.4988)" class="st4 st5">−8</text>
				</g>
			</g>
			<g id="ytick_8">
				<g id="line2d_24">
					<g>
						<g>
							<path id="m3569b07c26_7_" class="st3" d="M214.5,41.6H211"/>
						</g>
					</g>
				</g>
				<g id="text_20">
					<text transform="matrix(1 0 0 1 192.776 45.3779)" class="st4 st5">−6</text>
				</g>
			</g>
		</g>
		<g id="line2d_25">
			<g>
				<defs>
					<rect id="SVGID_9_" x="214.5" y="0.4" width="162.3" height="266.1"/>
				</defs>
				<clipPath id="SVGID_10_">
					<use xlink:href="#SVGID_9_"  style="overflow:visible;"/>
				</clipPath>
				<path class="st13" d="M221.9,254.4l1.5-20.2l1.5-17.4l1.5-15.1l1.5-13.2l1.5-11.7l1.5-10.4l1.5-9.3l1.5-8.4l1.5-7.6l1.5-6.9
					l1.5-6.3l1.5-5.8l1.5-5.4l1.5-4.9l1.5-4.6l1.5-4.3l1.5-4l1.5-3.7l1.5-3.5l1.5-3.3l1.5-3.1l1.5-2.9l1.5-2.7l1.5-2.6l1.5-2.4
					l1.5-2.3l1.5-2.2l1.5-2.1l1.5-2l1.5-1.9l1.5-1.8l1.5-1.7l1.5-1.6l1.5-1.6l1.5-1.5l1.5-1.4l1.5-1.4l1.5-1.3l1.5-1.3l1.5-1.2
					l1.5-1.2l1.5-1.1L286,46l1.5-1.1l1.5-1l1.5-1L292,42l1.5-0.9l1.5-0.9l1.5-0.9l1.5-0.8l1.5-0.8l1.5-0.8l1.5-0.8l1.5-0.7l1.5-0.7
					l1.5-0.7l1.5-0.7l1.5-0.7l1.5-0.6l1.5-0.6l1.5-0.6l1.5-0.6l1.5-0.6l1.5-0.6l1.5-0.5l1.5-0.5l1.5-0.5l1.5-0.5l1.5-0.5l1.5-0.5
					l1.5-0.5l1.5-0.5l1.5-0.4l1.5-0.4l1.5-0.4l1.5-0.4l1.5-0.4l1.5-0.4l1.5-0.4l1.5-0.4l1.5-0.4l1.5-0.4l1.5-0.4l1.5-0.3l1.5-0.3
					l1.5-0.3l1.5-0.3l1.5-0.3l1.5-0.3l1.5-0.3l1.5-0.3l1.5-0.3l1.5-0.3l1.5-0.3L365,17l1.5-0.3l1.5-0.3l1.5-0.3"/>
			</g>
		</g>
		<g id="line2d_26">
			<g>
				<defs>
					<rect id="SVGID_11_" x="214.5" y="0.4" width="162.3" height="266.1"/>
				</defs>
				<clipPath id="SVGID_12_">
					<use xlink:href="#SVGID_11_"  style="overflow:visible;"/>
				</clipPath>
				<path class="st14" d="M221.9,160.2l1.5-5.3l1.5-5l1.5-4.8l1.5-4.5l1.5-4.3l1.5-4.1l1.5-3.9l1.5-3.7l1.5-3.6l1.5-3.4l1.5-3.3
					l1.5-3.1l1.5-3l1.5-2.9l1.5-2.8l1.5-2.7l1.5-2.6l1.5-2.5l1.5-2.4l1.5-2.3l1.5-2.2l1.5-2.2l1.5-2.1l1.5-2l1.5-2l1.5-1.9l1.5-1.9
					l1.5-1.8l1.5-1.8l1.5-1.7l1.5-1.7l1.5-1.6l1.5-1.6l1.5-1.5l1.5-1.5l1.5-1.4l1.5-1.4l1.5-1.4L280,57l1.5-1.3l1.5-1.3l1.5-1.2
					L286,52l1.5-1.2l1.5-1.2l1.5-1.1l1.5-1.1l1.5-1.1l1.5-1.1l1.5-1l1.5-1l1.5-1l1.5-1l1.5-0.9l1.5-0.9l1.5-0.9l1.5-0.9l1.5-0.9
					l1.5-0.9l1.5-0.8l1.5-0.8l1.5-0.8l1.5-0.8l1.5-0.8l1.5-0.8l1.5-0.7l1.5-0.7l1.5-0.7l1.5-0.7l1.5-0.7l1.5-0.7l1.5-0.7l1.5-0.6
					l1.5-0.6l1.5-0.6l1.5-0.6l1.5-0.6l1.5-0.6l1.5-0.6l1.5-0.6l1.5-0.6l1.5-0.5l1.5-0.5l1.5-0.5l1.5-0.5l1.5-0.5l1.5-0.5l1.5-0.5
					l1.5-0.5l1.5-0.5l1.5-0.5l1.5-0.4l1.5-0.4l1.5-0.4l1.5-0.4l1.5-0.4l1.5-0.4l1.5-0.4l1.5-0.4"/>
			</g>
		</g>
		<g id="patch_9">
			<path class="st8" d="M214.5,266.5V0.4"/>
		</g>
		<g id="patch_10">
			<path class="st8" d="M376.8,266.5V0.4"/>
		</g>
		<g id="patch_11">
			<path class="st8" d="M214.5,266.5h162.3"/>
		</g>
		<g id="patch_12">
			<path class="st8" d="M214.5,0.4h162.3"/>
		</g>
		<g id="legend_2">
			<g id="patch_13">
				<path class="st9" d="M281.7,261.5h88.1c1.3,0,2-0.7,2-2v-28.4c0-1.3-0.7-2-2-2h-88.1c-1.3,0-2,0.7-2,2v28.4
					C279.7,260.8,280.4,261.5,281.7,261.5z"/>
			</g>
			<g id="line2d_27">
				<path class="st10" d="M283.7,237.3h20"/>
			</g>
			<g id="line2d_28">
			</g>
			<g id="text_21">
				<text transform="matrix(1 0 0 1 311.7039 240.7542)" class="st4 st5">degree = 1</text>
			</g>
			<g id="line2d_29">
				<path class="st11" d="M283.7,251.9h20"/>
			</g>
			<g id="line2d_30">
			</g>
			<g id="text_22">
				<text transform="matrix(1 0 0 1 311.7039 255.4323)" class="st4 st5">degree = 3</text>
			</g>
		</g>
	</g>
</g>
</svg>
