<?xml version="1.0" encoding="utf-8"?>
<!-- Generator: Adobe Illustrator 25.2.1, SVG Export Plug-In . SVG Version: 6.00 Build 0)  -->
<svg version="1.1" id="图层_1" xmlns="http://www.w3.org/2000/svg" xmlns:xlink="http://www.w3.org/1999/xlink" x="0px" y="0px"
	 viewBox="0 0 377.2 285.7" enable-background="new 0 0 377.2 285.7" xml:space="preserve">
<g id="figure_1">
	<g id="axes_1">
		<g id="patch_2">
			<path fill="#FFFFFF" d="M19.7,266.5h357.1V0.4H19.7V266.5z"/>
		</g>
		<g id="matplotlib.axis_1">
			<g id="xtick_1">
				<g id="line2d_1">
					<g>
						<g>
							<path id="m5aca71795b" stroke="#000000" stroke-width="0.8" stroke-linejoin="round" d="M36,266.5v3.5"/>
						</g>
					</g>
				</g>
				<g id="text_1">
					<text transform="matrix(1 0 0 1 32.7762 281.0948)" font-family="'DejaVuSans'" font-size="10px">0</text>
				</g>
			</g>
			<g id="xtick_2">
				<g id="line2d_2">
					<g>
						<g>
							
								<path id="m5aca71795b_00000114752357466326016050000018275561271673838769_" stroke="#000000" stroke-width="0.8" stroke-linejoin="round" d="
								M101.5,266.5v3.5"/>
						</g>
					</g>
				</g>
				<g id="text_2">
					<text transform="matrix(1 0 0 1 98.363 281.0948)" font-family="'DejaVuSans'" font-size="10px">2</text>
				</g>
			</g>
			<g id="xtick_3">
				<g id="line2d_3">
					<g>
						<g>
							
								<path id="m5aca71795b_00000086653677379349981480000003838901157770320521_" stroke="#000000" stroke-width="0.8" stroke-linejoin="round" d="
								M167.1,266.5v3.5"/>
						</g>
					</g>
				</g>
				<g id="text_3">
					<text transform="matrix(1 0 0 1 163.9498 281.0948)" font-family="'DejaVuSans'" font-size="10px">4</text>
				</g>
			</g>
			<g id="xtick_4">
				<g id="line2d_4">
					<g>
						<g>
							
								<path id="m5aca71795b_00000142175476402376972700000015662837999189434253_" stroke="#000000" stroke-width="0.8" stroke-linejoin="round" d="
								M232.7,266.5v3.5"/>
						</g>
					</g>
				</g>
				<g id="text_4">
					<text transform="matrix(1 0 0 1 229.5365 281.0948)" font-family="'DejaVuSans'" font-size="10px">6</text>
				</g>
			</g>
			<g id="xtick_5">
				<g id="line2d_5">
					<g>
						<g>
							
								<path id="m5aca71795b_00000000204054552443896730000001914296773259314850_" stroke="#000000" stroke-width="0.8" stroke-linejoin="round" d="
								M298.3,266.5v3.5"/>
						</g>
					</g>
				</g>
				<g id="text_5">
					<text transform="matrix(1 0 0 1 295.1233 281.0948)" font-family="'DejaVuSans'" font-size="10px">8</text>
				</g>
			</g>
			<g id="xtick_6">
				<g id="line2d_6">
					<g>
						<g>
							
								<path id="m5aca71795b_00000097462534821538545100000016013194055953641362_" stroke="#000000" stroke-width="0.8" stroke-linejoin="round" d="
								M363.9,266.5v3.5"/>
						</g>
					</g>
				</g>
				<g id="text_6">
					<text transform="matrix(1 0 0 1 357.5289 281.0948)" font-family="'DejaVuSans'" font-size="10px">10</text>
				</g>
			</g>
		</g>
		<g id="matplotlib.axis_2">
			<g id="ytick_1">
				<g id="line2d_7">
					<g>
						<g>
							<path id="mf62d41f26b" stroke="#000000" stroke-width="0.8" stroke-linejoin="round" d="M19.7,254.4h-3.5"/>
						</g>
					</g>
				</g>
				<g id="text_7">
					<text transform="matrix(1 0 0 1 6.3623 258.1996)" font-family="'DejaVuSans'" font-size="10px">0</text>
				</g>
			</g>
			<g id="ytick_2">
				<g id="line2d_8">
					<g>
						<g>
							
								<path id="mf62d41f26b_00000079466564744132307800000017371699925967385254_" stroke="#000000" stroke-width="0.8" stroke-linejoin="round" d="
								M19.7,210.5h-3.5"/>
						</g>
					</g>
				</g>
				<g id="text_8">
					<text transform="matrix(1 0 0 1 6.3623 214.3027)" font-family="'DejaVuSans'" font-size="10px">2</text>
				</g>
			</g>
			<g id="ytick_3">
				<g id="line2d_9">
					<g>
						<g>
							
								<path id="mf62d41f26b_00000080908354481578655890000013866591877616554900_" stroke="#000000" stroke-width="0.8" stroke-linejoin="round" d="
								M19.7,166.6h-3.5"/>
						</g>
					</g>
				</g>
				<g id="text_9">
					<text transform="matrix(1 0 0 1 6.3623 170.4058)" font-family="'DejaVuSans'" font-size="10px">4</text>
				</g>
			</g>
			<g id="ytick_4">
				<g id="line2d_10">
					<g>
						<g>
							
								<path id="mf62d41f26b_00000041274420803999042360000002414152849281401747_" stroke="#000000" stroke-width="0.8" stroke-linejoin="round" d="
								M19.7,122.7h-3.5"/>
						</g>
					</g>
				</g>
				<g id="text_10">
					<text transform="matrix(1 0 0 1 6.3623 126.5089)" font-family="'DejaVuSans'" font-size="10px">6</text>
				</g>
			</g>
			<g id="ytick_5">
				<g id="line2d_11">
					<g>
						<g>
							
								<path id="mf62d41f26b_00000056395908209353441280000012325609615780498593_" stroke="#000000" stroke-width="0.8" stroke-linejoin="round" d="
								M19.7,78.8h-3.5"/>
						</g>
					</g>
				</g>
				<g id="text_11">
					<text transform="matrix(1 0 0 1 6.3623 82.612)" font-family="'DejaVuSans'" font-size="10px">8</text>
				</g>
			</g>
			<g id="ytick_6">
				<g id="line2d_12">
					<g>
						<g>
							
								<path id="mf62d41f26b_00000014618573547658478650000012024171165828733851_" stroke="#000000" stroke-width="0.8" stroke-linejoin="round" d="
								M19.7,34.9h-3.5"/>
						</g>
					</g>
				</g>
				<g id="text_12">
					<text transform="matrix(1 0 0 1 0 38.715)" font-family="'DejaVuSans'" font-size="10px">10</text>
				</g>
			</g>
		</g>
		<g id="line2d_13">
			<g>
				<g>
					<defs>
						<rect id="SVGID_1_" x="19.7" y="0.4" width="357.1" height="266.1"/>
					</defs>
					<clipPath id="SVGID_2_">
						<use xlink:href="#SVGID_1_"  overflow="visible"/>
					</clipPath>
					
						<path clip-path="url(#SVGID_2_)" fill="none" stroke="#0000FF" stroke-width="1.5" stroke-linecap="square" stroke-linejoin="round" d="
						M36,254.4l3.3-8.8l3.3-8.7l3.3-8.6l3.3-8.4l3.3-8.1l3.3-7.8l3.3-7.4l3.3-7l3.3-6.5l3.3-6l3.3-5.5l3.3-4.9l3.3-4.3l3.3-3.6
						l3.3-3l3.3-2.3l3.3-1.7l3.3-1l3.3-0.4l3.3,0.2l3.3,0.8l3.3,1.4l3.3,1.9l3.3,2.4l3.3,2.9l3.3,3.3l3.3,3.6l3.3,3.9l3.3,4.1
						l3.3,4.3l3.3,4.4l3.3,4.4l3.3,4.3l3.3,4.2l3.3,4.1l3.3,3.8l3.3,3.6l3.3,3.2l3.3,2.8l3.3,2.4l3.3,1.9l3.3,1.3l3.3,0.7l3.3,0.1
						l3.3-0.5l3.3-1.1l3.3-1.8l3.3-2.4l3.3-3.1l3.3-3.7l3.3-4.4l3.3-5l3.3-5.6l3.3-6.1l3.3-6.6l3.3-7.1l3.3-7.5l3.3-7.9l3.3-8.2
						l3.3-8.4l3.3-8.6l3.3-8.7l3.3-8.8l3.3-8.8l3.3-8.7l3.3-8.5l3.3-8.3l3.3-8.1l3.3-7.7l3.3-7.4l3.3-6.9l3.3-6.5l3.3-5.9l3.3-5.4
						l3.3-4.8l3.3-4.2l3.3-3.5l3.3-2.9l3.3-2.2l3.3-1.6l3.3-0.9l3.3-0.3l1.5,0.5l3.3,0.9l3.3,1.5l3.3,2l3.3,2.5l3.3,2.9l3.3,3.3
						l3.3,3.7l3.3,3.9l3.3,4.1l3.3,4.3l3.3,4.4l3.3,4.4L351,55l3.3,4.2l3.3,4l3.3,3.8"/>
				</g>
			</g>
		</g>
		<g id="line2d_14">
			<g>
				<g>
					<defs>
						<rect id="SVGID_3_" x="19.7" y="0.4" width="357.1" height="266.1"/>
					</defs>
					<clipPath id="SVGID_4_">
						<use xlink:href="#SVGID_3_"  overflow="visible"/>
					</clipPath>
					
						<path clip-path="url(#SVGID_4_)" fill="none" stroke="#FF0000" stroke-width="1.5" stroke-linecap="square" stroke-linejoin="round" d="
						M36,254.4l3.3-8.8l3.3-8.7l3.3-8.6l3.3-8.4l3.3-8.1l3.3-7.8l3.3-7.4l3.3-7l3.3-6.5l3.3-6l3.3-5.5l3.3-4.9l3.3-4.3l3.3-3.6
						l3.3-3l3.3-2.3l3.3-1.7l3.3-1l3.3-0.4h3.3h3.3h3.3h3.3h3.3h3.3h3.3h3.3h3.3h3.3h3.3h3.3h3.3h3.3h3.3h3.3h3.3h3.3h3.3h3.3h3.3
						h3.3h3.3h3.3h3.3h3.3h3.3h3.3h3.3h3.3h3.3h3.3h3.3h3.3h3.3h3.3h3.3h3.3h3.3l3.3-0.9l3.3-8.4l3.3-8.6l3.3-8.7l3.3-8.8l3.3-8.8
						l3.3-8.7l3.3-8.5l3.3-8.3l3.3-8.1l3.3-7.7l3.3-7.4l3.3-6.9l3.3-6.5l3.3-5.9l3.3-5.4l3.3-4.8l3.3-4.2l3.3-3.5l3.3-2.9l3.3-2.2
						l3.3-1.6l3.3-0.9l3.3-0.3h3.3h3.3h3.3h3.3h3.3h3.3h3.3h3.3h3.3h3.3h3.3h3.3h3.3h3.3h3.3h3.3h3.3"/>
				</g>
			</g>
		</g>
		<g id="patch_3">
			<path fill="none" stroke="#000000" stroke-width="0.8" stroke-linecap="square" d="M19.7,266.5V0.4"/>
		</g>
		<g id="patch_4">
			<path fill="none" stroke="#000000" stroke-width="0.8" stroke-linecap="square" d="M376.8,266.5V0.4"/>
		</g>
		<g id="patch_5">
			<path fill="none" stroke="#000000" stroke-width="0.8" stroke-linecap="square" d="M19.7,266.5h357.1"/>
		</g>
		<g id="patch_6">
			<path fill="none" stroke="#000000" stroke-width="0.8" stroke-linecap="square" d="M19.7,0.4h357.1"/>
		</g>
		<g id="legend_1">
			<g id="patch_7">
				<path opacity="0.8" fill="#FFFFFF" stroke="#CCCCCC" enable-background="new    " d="M26.7,37.7h82.8c1.3,0,2-0.7,2-2V7.4
					c0-1.3-0.7-2-2-2H26.7c-1.3,0-2,0.7-2,2v28.4C24.7,37.1,25.4,37.7,26.7,37.7z"/>
			</g>
			<g id="line2d_15">
				<path fill="none" stroke="#0000FF" stroke-width="1.5" stroke-linecap="square" stroke-linejoin="round" d="M28.7,13.5h20"/>
			</g>
			<g id="line2d_16">
			</g>
			<g id="text_13">
				<text transform="matrix(1 0 0 1 56.7246 16.9829)" font-family="'DejaVuSans'" font-size="10px">original</text>
			</g>
			<g id="line2d_17">
				<path fill="none" stroke="#FF0000" stroke-width="1.5" stroke-linecap="square" stroke-linejoin="round" d="M28.7,28.2h20"/>
			</g>
			<g id="line2d_18">
			</g>
			<g id="text_14">
				<text transform="matrix(1 0 0 1 56.7246 31.661)" font-family="'DejaVuSans'" font-size="10px">monotone</text>
			</g>
		</g>
	</g>
</g>
</svg>
