<?xml version="1.0" encoding="utf-8"?>
<!-- Generator: Adobe Illustrator 25.2.1, SVG Export Plug-In . SVG Version: 6.00 Build 0)  -->
<svg version="1.1" id="图层_1" xmlns="http://www.w3.org/2000/svg" xmlns:xlink="http://www.w3.org/1999/xlink" x="0px" y="0px"
	 viewBox="0 0 370.9 285.7" style="enable-background:new 0 0 370.9 285.7;" xml:space="preserve">
<style type="text/css">
	.st0{fill:#FFFFFF;}
	.st1{clip-path:url(#SVGID_2_);}
	.st2{fill:#FF0000;stroke:#FF0000;stroke-linejoin:round;}
	.st3{stroke:#000000;stroke-width:0.8;stroke-linejoin:round;}
	.st4{font-family:'DejaVuSans';}
	.st5{font-size:10px;}
	.st6{clip-path:url(#SVGID_4_);fill:none;stroke:#008000;stroke-width:1.5;stroke-linecap:square;stroke-linejoin:round;}
	.st7{clip-path:url(#SVGID_6_);fill:none;stroke:#FFA500;stroke-width:1.5;stroke-linecap:square;stroke-linejoin:round;}
	.st8{clip-path:url(#SVGID_8_);fill:none;stroke:#0000FF;stroke-width:1.5;stroke-linecap:square;stroke-linejoin:round;}
	.st9{fill:none;stroke:#000000;stroke-width:0.8;stroke-linecap:square;}
	.st10{opacity:0.8;fill:#FFFFFF;stroke:#CCCCCC;enable-background:new    ;}
	.st11{fill:none;stroke:#008000;stroke-width:1.5;stroke-linecap:square;stroke-linejoin:round;}
	.st12{fill:none;stroke:#FFA500;stroke-width:1.5;stroke-linecap:square;stroke-linejoin:round;}
	.st13{fill:none;stroke:#0000FF;stroke-width:1.5;stroke-linecap:square;stroke-linejoin:round;}
</style>
<g id="figure_1">
	<g id="axes_1">
		<g id="patch_2">
			<path class="st0" d="M13.4,266.5h357.1V0.4H13.4V266.5z"/>
		</g>
		<g id="PathCollection_1">
			<g>
				<defs>
					<rect id="SVGID_1_" x="13.4" y="0.4" width="357.1" height="266.1"/>
				</defs>
				<clipPath id="SVGID_2_">
					<use xlink:href="#SVGID_1_"  style="overflow:visible;"/>
				</clipPath>
				<g class="st1">
					<g>
						<path id="me72631953d" class="st2" d="M29.6,257.4c0.8,0,1.6-0.3,2.1-0.9c0.6-0.6,0.9-1.3,0.9-2.1s-0.3-1.6-0.9-2.1
							c-0.6-0.6-1.3-0.9-2.1-0.9s-1.6,0.3-2.1,0.9c-0.6,0.6-0.9,1.3-0.9,2.1s0.3,1.6,0.9,2.1C28,257.1,28.8,257.4,29.6,257.4z"/>
					</g>
					<g>
						<path id="me72631953d_1_" class="st2" d="M62.7,257.4c0.8,0,1.6-0.3,2.1-0.9c0.6-0.6,0.9-1.3,0.9-2.1s-0.3-1.6-0.9-2.1
							c-0.6-0.6-1.3-0.9-2.1-0.9s-1.6,0.3-2.1,0.9c-0.6,0.6-0.9,1.3-0.9,2.1s0.3,1.6,0.9,2.1C61.2,257.1,61.9,257.4,62.7,257.4z"/>
					</g>
					<g>
						<path id="me72631953d_2_" class="st2" d="M95.9,257.4c0.8,0,1.6-0.3,2.1-0.9c0.6-0.6,0.9-1.3,0.9-2.1s-0.3-1.6-0.9-2.1
							c-0.6-0.6-1.3-0.9-2.1-0.9s-1.6,0.3-2.1,0.9c-0.6,0.6-0.9,1.3-0.9,2.1s0.3,1.6,0.9,2.1C94.3,257.1,95.1,257.4,95.9,257.4z"/>
					</g>
					<g>
						<path id="me72631953d_3_" class="st2" d="M129,257.3c0.8,0,1.6-0.3,2.1-0.9c0.6-0.6,0.9-1.3,0.9-2.1s-0.3-1.6-0.9-2.1
							c-0.6-0.6-1.3-0.9-2.1-0.9s-1.6,0.3-2.1,0.9c-0.6,0.6-0.9,1.3-0.9,2.1s0.3,1.6,0.9,2.1C127.4,257,128.2,257.3,129,257.3z"/>
					</g>
					<g>
						<path id="me72631953d_4_" class="st2" d="M162.1,255.6c0.8,0,1.6-0.3,2.1-0.9c0.6-0.6,0.9-1.3,0.9-2.1s-0.3-1.6-0.9-2.1
							c-0.6-0.6-1.3-0.9-2.1-0.9s-1.6,0.3-2.1,0.9c-0.6,0.6-0.9,1.3-0.9,2.1s0.3,1.6,0.9,2.1C160.5,255.3,161.3,255.6,162.1,255.6z"
							/>
					</g>
					<g>
						<path id="me72631953d_5_" class="st2" d="M195.2,226.6c0.8,0,1.6-0.3,2.1-0.9c0.6-0.6,0.9-1.3,0.9-2.1s-0.3-1.6-0.9-2.1
							c-0.6-0.6-1.3-0.9-2.1-0.9s-1.6,0.3-2.1,0.9c-0.6,0.6-0.9,1.3-0.9,2.1s0.3,1.6,0.9,2.1C193.7,226.3,194.4,226.6,195.2,226.6z"
							/>
					</g>
					<g>
						<path id="me72631953d_6_" class="st2" d="M228.4,85.7c0.8,0,1.6-0.3,2.1-0.9c0.6-0.6,0.9-1.3,0.9-2.1s-0.3-1.6-0.9-2.1
							c-0.6-0.6-1.3-0.9-2.1-0.9s-1.6,0.3-2.1,0.9c-0.6,0.6-0.9,1.3-0.9,2.1s0.3,1.6,0.9,2.1C226.8,85.4,227.6,85.7,228.4,85.7z"/>
					</g>
					<g>
						<path id="me72631953d_7_" class="st2" d="M261.5,50.5c0.8,0,1.6-0.3,2.1-0.9c0.6-0.6,0.9-1.3,0.9-2.1c0-0.8-0.3-1.6-0.9-2.1
							c-0.6-0.6-1.3-0.9-2.1-0.9s-1.6,0.3-2.1,0.9c-0.6,0.6-0.9,1.3-0.9,2.1c0,0.8,0.3,1.6,0.9,2.1
							C259.9,50.2,260.7,50.5,261.5,50.5z"/>
					</g>
					<g>
						<path id="me72631953d_8_" class="st2" d="M294.6,49.4c0.8,0,1.6-0.3,2.1-0.9c0.6-0.6,0.9-1.3,0.9-2.1c0-0.8-0.3-1.6-0.9-2.1
							c-0.6-0.6-1.3-0.9-2.1-0.9s-1.6,0.3-2.1,0.9c-0.6,0.6-0.9,1.3-0.9,2.1c0,0.8,0.3,1.6,0.9,2.1C293.1,49,293.8,49.4,294.6,49.4z
							"/>
					</g>
					<g>
						<path id="me72631953d_9_" class="st2" d="M327.7,49.3c0.8,0,1.6-0.3,2.1-0.9c0.6-0.6,0.9-1.3,0.9-2.1c0-0.8-0.3-1.6-0.9-2.1
							c-0.6-0.6-1.3-0.9-2.1-0.9s-1.6,0.3-2.1,0.9c-0.6,0.6-0.9,1.3-0.9,2.1c0,0.8,0.3,1.6,0.9,2.1C326.2,49,327,49.3,327.7,49.3z"
							/>
					</g>
				</g>
			</g>
		</g>
		<g id="matplotlib.axis_1">
			<g id="xtick_1">
				<g id="line2d_1">
					<g>
						<g>
							<path id="m9a06aebeca" class="st3" d="M29.6,266.5v3.5"/>
						</g>
					</g>
				</g>
				<g id="text_1">
					<text transform="matrix(1 0 0 1 21.6432 281.1104)" class="st4 st5">3.0</text>
				</g>
			</g>
			<g id="xtick_2">
				<g id="line2d_2">
					<g>
						<g>
							<path id="m9a06aebeca_1_" class="st3" d="M95.9,266.5v3.5"/>
						</g>
					</g>
				</g>
				<g id="text_2">
					<text transform="matrix(1 0 0 1 87.8993 281.1104)" class="st4 st5">3.2</text>
				</g>
			</g>
			<g id="xtick_3">
				<g id="line2d_3">
					<g>
						<g>
							<path id="m9a06aebeca_2_" class="st3" d="M162.1,266.5v3.5"/>
						</g>
					</g>
				</g>
				<g id="text_3">
					<text transform="matrix(1 0 0 1 154.1553 281.1104)" class="st4 st5">3.4</text>
				</g>
			</g>
			<g id="xtick_4">
				<g id="line2d_4">
					<g>
						<g>
							<path id="m9a06aebeca_3_" class="st3" d="M228.4,266.5v3.5"/>
						</g>
					</g>
				</g>
				<g id="text_4">
					<text transform="matrix(1 0 0 1 220.4114 281.1104)" class="st4 st5">3.6</text>
				</g>
			</g>
			<g id="xtick_5">
				<g id="line2d_5">
					<g>
						<g>
							<path id="m9a06aebeca_4_" class="st3" d="M294.6,266.5v3.5"/>
						</g>
					</g>
				</g>
				<g id="text_5">
					<text transform="matrix(1 0 0 1 286.6674 281.1104)" class="st4 st5">3.8</text>
				</g>
			</g>
			<g id="xtick_6">
				<g id="line2d_6">
					<g>
						<g>
							<path id="m9a06aebeca_5_" class="st3" d="M360.9,266.5v3.5"/>
						</g>
					</g>
				</g>
				<g id="text_6">
					<text transform="matrix(1 0 0 1 352.9235 281.1104)" class="st4 st5">4.0</text>
				</g>
			</g>
		</g>
		<g id="matplotlib.axis_2">
			<g id="ytick_1">
				<g id="line2d_7">
					<g>
						<g>
							<path id="m20fc6d42c6" class="st3" d="M13.4,254.4H9.9"/>
						</g>
					</g>
				</g>
				<g id="text_7">
					<text transform="matrix(1 0 0 1 -1.220703e-04 258.2144)" class="st4 st5">1</text>
				</g>
			</g>
			<g id="ytick_2">
				<g id="line2d_8">
					<g>
						<g>
							<path id="m20fc6d42c6_1_" class="st3" d="M13.4,219.7H9.9"/>
						</g>
					</g>
				</g>
				<g id="text_8">
					<text transform="matrix(1 0 0 1 -1.220703e-04 223.5335)" class="st4 st5">2</text>
				</g>
			</g>
			<g id="ytick_3">
				<g id="line2d_9">
					<g>
						<g>
							<path id="m20fc6d42c6_2_" class="st3" d="M13.4,185.1H9.9"/>
						</g>
					</g>
				</g>
				<g id="text_9">
					<text transform="matrix(1 0 0 1 -1.220703e-04 188.8527)" class="st4 st5">3</text>
				</g>
			</g>
			<g id="ytick_4">
				<g id="line2d_10">
					<g>
						<g>
							<path id="m20fc6d42c6_3_" class="st3" d="M13.4,150.4H9.9"/>
						</g>
					</g>
				</g>
				<g id="text_10">
					<text transform="matrix(1 0 0 1 -1.220703e-04 154.1718)" class="st4 st5">4</text>
				</g>
			</g>
			<g id="ytick_5">
				<g id="line2d_11">
					<g>
						<g>
							<path id="m20fc6d42c6_4_" class="st3" d="M13.4,115.7H9.9"/>
						</g>
					</g>
				</g>
				<g id="text_11">
					<text transform="matrix(1 0 0 1 -1.220703e-04 119.4909)" class="st4 st5">5</text>
				</g>
			</g>
			<g id="ytick_6">
				<g id="line2d_12">
					<g>
						<g>
							<path id="m20fc6d42c6_5_" class="st3" d="M13.4,81H9.9"/>
						</g>
					</g>
				</g>
				<g id="text_12">
					<text transform="matrix(1 0 0 1 -1.220703e-04 84.8099)" class="st4 st5">6</text>
				</g>
			</g>
			<g id="ytick_7">
				<g id="line2d_13">
					<g>
						<g>
							<path id="m20fc6d42c6_6_" class="st3" d="M13.4,46.3H9.9"/>
						</g>
					</g>
				</g>
				<g id="text_13">
					<text transform="matrix(1 0 0 1 -1.220703e-04 50.1291)" class="st4 st5">7</text>
				</g>
			</g>
			<g id="ytick_8">
				<g id="line2d_14">
					<g>
						<g>
							<path id="m20fc6d42c6_7_" class="st3" d="M13.4,11.6H9.9"/>
						</g>
					</g>
				</g>
				<g id="text_14">
					<text transform="matrix(1 0 0 1 -1.220703e-04 15.4482)" class="st4 st5">8</text>
				</g>
			</g>
		</g>
		<g id="line2d_15">
			<g>
				<defs>
					<rect id="SVGID_3_" x="13.4" y="0.4" width="357.1" height="266.1"/>
				</defs>
				<clipPath id="SVGID_4_">
					<use xlink:href="#SVGID_3_"  style="overflow:visible;"/>
				</clipPath>
				<path class="st6" d="M29.6,254.4l6.6,0l6.6,0l6.6,0l6.6,0l6.6,0l6.6,0l6.6,0l6.6,0l6.6,0l6.6,0l6.6,0l6.6,0l6.6-0.1l6.6-0.1
					l6.6-0.2l6.6-0.3l6.6-0.6l6.6-1l6.6-1.7l6.6-2.9l6.6-5l6.6-8.2l6.6-12.9l6.6-19l6.6-25.1l6.6-28.9l6.6-28.6l6.6-24.3l6.6-18.1
					l6.6-12.2l6.6-7.7l6.6-4.7l6.6-2.7l6.6-1.6l6.6-0.9l6.6-0.5l6.6-0.3l6.6-0.2l6.6-0.1l6.6-0.1l6.6,0l6.6,0l6.6,0l6.6,0l6.6,0
					l6.6,0l6.6,0l6.6,0l6.6,0"/>
			</g>
		</g>
		<g id="line2d_16">
			<g>
				<defs>
					<rect id="SVGID_5_" x="13.4" y="0.4" width="357.1" height="266.1"/>
				</defs>
				<clipPath id="SVGID_6_">
					<use xlink:href="#SVGID_5_"  style="overflow:visible;"/>
				</clipPath>
				<path class="st7" d="M29.6,254.4l6.6,0l6.6,0l6.6,0l6.6,0l6.6,0l6.6,0l6.6,0l6.6,0l6.6,0l6.6,0l6.6,0l6.6,0l6.6,0l6.6,0l6.6-0.1
					l6.6-0.1l6.6-0.1l6.6-0.2l6.6-0.3l6.6-0.4l6.6-0.6l6.6-0.9l6.6-1.3l6.6-1.9l6.6-2.7l6.6-3.8l6.6-5.3l6.6-7.3l6.6-9.7l6.6-12.7
					L235,191l6.6-18.9l6.6-21.3l6.6-22.4l6.6-22.1l6.6-20.4l6.6-17.7l6.6-14.5l6.6-11.4l6.6-8.7l6.6-6.4l6.6-4.6l6.6-3.3l6.6-2.3
					l6.6-1.6l6.6-1.1l6.6-0.8l6.6-0.5l6.6-0.4"/>
			</g>
		</g>
		<g id="line2d_17">
			<g>
				<defs>
					<rect id="SVGID_7_" x="13.4" y="0.4" width="357.1" height="266.1"/>
				</defs>
				<clipPath id="SVGID_8_">
					<use xlink:href="#SVGID_7_"  style="overflow:visible;"/>
				</clipPath>
				<path class="st8" d="M29.6,254.4l6.6,0l6.6,0l6.6,0l6.6,0l6.6,0l6.6,0l6.6,0l6.6,0l6.6,0l6.6,0l6.6,0l6.6,0l6.6,0l6.6,0l6.6,0
					l6.6-0.1l6.6-0.1l6.6-0.2l6.6-0.4l6.6-0.7l6.6-1.3l6.6-2.4l6.6-4.5l6.6-8.1l6.6-14l6.6-22.2l6.6-30.7l6.6-35.1l6.6-32l6.6-23.7
					l6.6-14.9l6.6-8.4l6.6-4.5l6.6-2.3l6.6-1.1l6.6-0.6l6.6-0.3l6.6-0.1l6.6-0.1l6.6,0l6.6,0l6.6,0l6.6,0l6.6,0l6.6,0l6.6,0l6.6,0
					l6.6,0l6.6,0"/>
			</g>
		</g>
		<g id="patch_3">
			<path class="st9" d="M13.4,266.5V0.4"/>
		</g>
		<g id="patch_4">
			<path class="st9" d="M370.5,266.5V0.4"/>
		</g>
		<g id="patch_5">
			<path class="st9" d="M13.4,266.5h357.1"/>
		</g>
		<g id="patch_6">
			<path class="st9" d="M13.4,0.4h357.1"/>
		</g>
		<g id="legend_1">
			<g id="patch_7">
				<path class="st10" d="M20.4,52.4h127.6c1.3,0,2-0.7,2-2v-43c0-1.3-0.7-2-2-2H20.4c-1.3,0-2,0.7-2,2v43
					C18.4,51.8,19,52.4,20.4,52.4z"/>
			</g>
			<g id="line2d_18">
				<path class="st11" d="M22.4,13.5h20"/>
			</g>
			<g id="line2d_19">
			</g>
			<g id="text_15">
				<text transform="matrix(1 0 0 1 50.3622 16.9984)" class="st4 st5">degree = 1</text>
			</g>
			<g id="line2d_20">
				<path class="st12" d="M22.4,28.2h20"/>
			</g>
			<g id="line2d_21">
			</g>
			<g id="text_16">
				<text transform="matrix(1 0 0 1 50.3622 31.6766)" class="st4 st5">degree = 1 (offset)</text>
			</g>
			<g id="line2d_22">
				<path class="st13" d="M22.4,42.9h20"/>
			</g>
			<g id="line2d_23">
			</g>
			<g id="text_17">
				<text transform="matrix(1 0 0 1 50.3622 46.3547)" class="st4 st5">degree = 3</text>
			</g>
		</g>
	</g>
</g>
</svg>
