<?xml version="1.0" encoding="utf-8"?>
<!-- Generator: Adobe Illustrator 25.2.1, SVG Export Plug-In . SVG Version: 6.00 Build 0)  -->
<svg version="1.1" id="图层_1" xmlns="http://www.w3.org/2000/svg" xmlns:xlink="http://www.w3.org/1999/xlink" x="0px" y="0px"
	 viewBox="0 0 370.9 285.7" enable-background="new 0 0 370.9 285.7" xml:space="preserve">
<g id="figure_1">
	<g id="axes_1">
		<g id="patch_2">
			<path fill="#FFFFFF" d="M13.4,266.5h357.1V0.4H13.4V266.5z"/>
		</g>
		<g id="PathCollection_1">
			<g>
				<defs>
					<rect id="SVGID_1_" x="13.4" y="0.4" width="357.1" height="266.1"/>
				</defs>
				<clipPath id="SVGID_2_">
					<use xlink:href="#SVGID_1_"  overflow="visible"/>
				</clipPath>
				<g clip-path="url(#SVGID_2_)">
					<g>
						<path id="mf567bcea52" fill="#FF0000" stroke="#FF0000" stroke-linejoin="round" d="M29.6,253.3c0.8,0,1.6-0.3,2.1-0.9
							c0.6-0.6,0.9-1.3,0.9-2.1s-0.3-1.6-0.9-2.1c-0.6-0.6-1.3-0.9-2.1-0.9s-1.6,0.3-2.1,0.9c-0.6,0.6-0.9,1.3-0.9,2.1
							s0.3,1.6,0.9,2.1C28,253,28.8,253.3,29.6,253.3z"/>
					</g>
					<g>
						<path id="mf567bcea52_1_" fill="#FF0000" stroke="#FF0000" stroke-linejoin="round" d="M62.7,251.5c0.8,0,1.6-0.3,2.1-0.9
							c0.6-0.6,0.9-1.3,0.9-2.1s-0.3-1.6-0.9-2.1c-0.6-0.6-1.3-0.9-2.1-0.9s-1.6,0.3-2.1,0.9c-0.6,0.6-0.9,1.3-0.9,2.1
							s0.3,1.6,0.9,2.1C61.2,251.2,61.9,251.5,62.7,251.5z"/>
					</g>
					<g>
						<path id="mf567bcea52_2_" fill="#FF0000" stroke="#FF0000" stroke-linejoin="round" d="M95.9,248.6c0.8,0,1.6-0.3,2.1-0.9
							c0.6-0.6,0.9-1.3,0.9-2.1s-0.3-1.6-0.9-2.1c-0.6-0.6-1.3-0.9-2.1-0.9s-1.6,0.3-2.1,0.9c-0.6,0.6-0.9,1.3-0.9,2.1
							s0.3,1.6,0.9,2.1C94.3,248.3,95.1,248.6,95.9,248.6z"/>
					</g>
					<g>
						<path id="mf567bcea52_3_" fill="#FF0000" stroke="#FF0000" stroke-linejoin="round" d="M129,243.5c0.8,0,1.6-0.3,2.1-0.9
							c0.6-0.6,0.9-1.3,0.9-2.1s-0.3-1.6-0.9-2.1c-0.6-0.6-1.3-0.9-2.1-0.9s-1.6,0.3-2.1,0.9c-0.6,0.6-0.9,1.3-0.9,2.1
							s0.3,1.6,0.9,2.1C127.4,243.2,128.2,243.5,129,243.5z"/>
					</g>
					<g>
						<path id="mf567bcea52_4_" fill="#FF0000" stroke="#FF0000" stroke-linejoin="round" d="M162.1,232.3c0.8,0,1.6-0.3,2.1-0.9
							c0.6-0.6,0.9-1.3,0.9-2.1s-0.3-1.6-0.9-2.1c-0.6-0.6-1.3-0.9-2.1-0.9s-1.6,0.3-2.1,0.9c-0.6,0.6-0.9,1.3-0.9,2.1
							s0.3,1.6,0.9,2.1C160.5,232,161.3,232.3,162.1,232.3z"/>
					</g>
					<g>
						<path id="mf567bcea52_5_" fill="#FF0000" stroke="#FF0000" stroke-linejoin="round" d="M195.2,195.1c0.8,0,1.6-0.3,2.1-0.9
							c0.6-0.6,0.9-1.3,0.9-2.1s-0.3-1.6-0.9-2.1c-0.6-0.6-1.3-0.9-2.1-0.9s-1.6,0.3-2.1,0.9c-0.6,0.6-0.9,1.3-0.9,2.1
							s0.3,1.6,0.9,2.1C193.7,194.8,194.4,195.1,195.2,195.1z"/>
					</g>
					<g>
						<path id="mf567bcea52_6_" fill="#FF0000" stroke="#FF0000" stroke-linejoin="round" d="M228.4,82c0.8,0,1.6-0.3,2.1-0.9
							c0.6-0.6,0.9-1.3,0.9-2.1s-0.3-1.6-0.9-2.1c-0.6-0.6-1.3-0.9-2.1-0.9s-1.6,0.3-2.1,0.9c-0.6,0.6-0.9,1.3-0.9,2.1
							s0.3,1.6,0.9,2.1C226.8,81.7,227.6,82,228.4,82z"/>
					</g>
					<g>
						<path id="mf567bcea52_7_" fill="#FF0000" stroke="#FF0000" stroke-linejoin="round" d="M261.5,37.6c0.8,0,1.6-0.3,2.1-0.9
							c0.6-0.6,0.9-1.3,0.9-2.1c0-0.8-0.3-1.6-0.9-2.1c-0.6-0.6-1.3-0.9-2.1-0.9s-1.6,0.3-2.1,0.9c-0.6,0.6-0.9,1.3-0.9,2.1
							c0,0.8,0.3,1.6,0.9,2.1C259.9,37.3,260.7,37.6,261.5,37.6z"/>
					</g>
					<g>
						<path id="mf567bcea52_8_" fill="#FF0000" stroke="#FF0000" stroke-linejoin="round" d="M294.6,25.1c0.8,0,1.6-0.3,2.1-0.9
							c0.6-0.6,0.9-1.3,0.9-2.1s-0.3-1.6-0.9-2.1c-0.6-0.6-1.3-0.9-2.1-0.9s-1.6,0.3-2.1,0.9c-0.6,0.6-0.9,1.3-0.9,2.1
							s0.3,1.6,0.9,2.1C293.1,24.8,293.8,25.1,294.6,25.1z"/>
					</g>
					<g>
						<path id="mf567bcea52_9_" fill="#FF0000" stroke="#FF0000" stroke-linejoin="round" d="M327.7,19.5c0.8,0,1.6-0.3,2.1-0.9
							c0.6-0.6,0.9-1.3,0.9-2.1s-0.3-1.6-0.9-2.1c-0.6-0.6-1.3-0.9-2.1-0.9s-1.6,0.3-2.1,0.9c-0.6,0.6-0.9,1.3-0.9,2.1
							s0.3,1.6,0.9,2.1C326.2,19.2,327,19.5,327.7,19.5z"/>
					</g>
				</g>
			</g>
		</g>
		<g id="matplotlib.axis_1">
			<g id="xtick_1">
				<g id="line2d_1">
					<g>
						<g>
							<path id="m0d12e9c6d5" stroke="#000000" stroke-width="0.8" stroke-linejoin="round" d="M29.6,266.5v3.5"/>
						</g>
					</g>
				</g>
				<g id="text_1">
					<text transform="matrix(1 0 0 1 21.6432 281.1104)" font-family="'DejaVuSans'" font-size="10px">3.0</text>
				</g>
			</g>
			<g id="xtick_2">
				<g id="line2d_2">
					<g>
						<g>
							<path id="m0d12e9c6d5_1_" stroke="#000000" stroke-width="0.8" stroke-linejoin="round" d="M95.9,266.5v3.5"/>
						</g>
					</g>
				</g>
				<g id="text_2">
					<text transform="matrix(1 0 0 1 87.8993 281.1104)" font-family="'DejaVuSans'" font-size="10px">3.2</text>
				</g>
			</g>
			<g id="xtick_3">
				<g id="line2d_3">
					<g>
						<g>
							<path id="m0d12e9c6d5_2_" stroke="#000000" stroke-width="0.8" stroke-linejoin="round" d="M162.1,266.5v3.5"/>
						</g>
					</g>
				</g>
				<g id="text_3">
					<text transform="matrix(1 0 0 1 154.1553 281.1104)" font-family="'DejaVuSans'" font-size="10px">3.4</text>
				</g>
			</g>
			<g id="xtick_4">
				<g id="line2d_4">
					<g>
						<g>
							<path id="m0d12e9c6d5_3_" stroke="#000000" stroke-width="0.8" stroke-linejoin="round" d="M228.4,266.5v3.5"/>
						</g>
					</g>
				</g>
				<g id="text_4">
					<text transform="matrix(1 0 0 1 220.4114 281.1104)" font-family="'DejaVuSans'" font-size="10px">3.6</text>
				</g>
			</g>
			<g id="xtick_5">
				<g id="line2d_5">
					<g>
						<g>
							<path id="m0d12e9c6d5_4_" stroke="#000000" stroke-width="0.8" stroke-linejoin="round" d="M294.6,266.5v3.5"/>
						</g>
					</g>
				</g>
				<g id="text_5">
					<text transform="matrix(1 0 0 1 286.6674 281.1104)" font-family="'DejaVuSans'" font-size="10px">3.8</text>
				</g>
			</g>
			<g id="xtick_6">
				<g id="line2d_6">
					<g>
						<g>
							<path id="m0d12e9c6d5_5_" stroke="#000000" stroke-width="0.8" stroke-linejoin="round" d="M360.9,266.5v3.5"/>
						</g>
					</g>
				</g>
				<g id="text_6">
					<text transform="matrix(1 0 0 1 352.9235 281.1104)" font-family="'DejaVuSans'" font-size="10px">4.0</text>
				</g>
			</g>
		</g>
		<g id="matplotlib.axis_2">
			<g id="ytick_1">
				<g id="line2d_7">
					<g>
						<g>
							<path id="mdcbe972d56" stroke="#000000" stroke-width="0.8" stroke-linejoin="round" d="M13.4,242.5H9.9"/>
						</g>
					</g>
				</g>
				<g id="text_7">
					<text transform="matrix(1 0 0 1 -1.220703e-04 246.2916)" font-family="'DejaVuSans'" font-size="10px">0</text>
				</g>
			</g>
			<g id="ytick_2">
				<g id="line2d_8">
					<g>
						<g>
							<path id="mdcbe972d56_1_" stroke="#000000" stroke-width="0.8" stroke-linejoin="round" d="M13.4,187.8H9.9"/>
						</g>
					</g>
				</g>
				<g id="text_8">
					<text transform="matrix(1 0 0 1 -1.220703e-04 191.624)" font-family="'DejaVuSans'" font-size="10px">2</text>
				</g>
			</g>
			<g id="ytick_3">
				<g id="line2d_9">
					<g>
						<g>
							<path id="mdcbe972d56_2_" stroke="#000000" stroke-width="0.8" stroke-linejoin="round" d="M13.4,133.2H9.9"/>
						</g>
					</g>
				</g>
				<g id="text_9">
					<text transform="matrix(1 0 0 1 -1.220703e-04 136.9564)" font-family="'DejaVuSans'" font-size="10px">4</text>
				</g>
			</g>
			<g id="ytick_4">
				<g id="line2d_10">
					<g>
						<g>
							<path id="mdcbe972d56_3_" stroke="#000000" stroke-width="0.8" stroke-linejoin="round" d="M13.4,78.5H9.9"/>
						</g>
					</g>
				</g>
				<g id="text_10">
					<text transform="matrix(1 0 0 1 -1.220703e-04 82.2889)" font-family="'DejaVuSans'" font-size="10px">6</text>
				</g>
			</g>
			<g id="ytick_5">
				<g id="line2d_11">
					<g>
						<g>
							<path id="mdcbe972d56_4_" stroke="#000000" stroke-width="0.8" stroke-linejoin="round" d="M13.4,23.8H9.9"/>
						</g>
					</g>
				</g>
				<g id="text_11">
					<text transform="matrix(1 0 0 1 -1.220703e-04 27.6213)" font-family="'DejaVuSans'" font-size="10px">8</text>
				</g>
			</g>
		</g>
		<g id="line2d_12">
			<g>
				<defs>
					<rect id="SVGID_3_" x="13.4" y="0.4" width="357.1" height="266.1"/>
				</defs>
				<clipPath id="SVGID_4_">
					<use xlink:href="#SVGID_3_"  overflow="visible"/>
				</clipPath>
				
					<path clip-path="url(#SVGID_4_)" fill="none" stroke="#008000" stroke-width="1.5" stroke-linecap="square" stroke-linejoin="round" d="
					M29.6,247l6.6-0.6l6.6-0.7l6.6-0.8l6.6-0.9l6.6-1.1l6.6-1.3l6.6-1.5l6.6-1.7l6.6-2l6.6-2.3l6.6-2.6l6.6-3l6.6-3.4l6.6-3.9
					l6.6-4.4l6.6-5l6.6-5.5l6.6-6.1l6.6-6.7l6.6-7.3l6.6-7.8l6.6-8.4l6.6-8.8l6.6-9.1l6.6-9.4l6.6-9.5l6.6-9.5l6.6-9.4l6.6-9.1
					l6.6-8.8l6.6-8.3l6.6-7.8l6.6-7.3l6.6-6.7l6.6-6.1l6.6-5.5l6.6-4.9l6.6-4.4l6.6-3.9l6.6-3.4l6.6-3l6.6-2.6l6.6-2.3l6.6-2
					l6.6-1.7l6.6-1.5l6.6-1.3l6.6-1.1l6.6-0.9"/>
			</g>
		</g>
		<g id="line2d_13">
			<g>
				<defs>
					<rect id="SVGID_5_" x="13.4" y="0.4" width="357.1" height="266.1"/>
				</defs>
				<clipPath id="SVGID_6_">
					<use xlink:href="#SVGID_5_"  overflow="visible"/>
				</clipPath>
				
					<path clip-path="url(#SVGID_6_)" fill="none" stroke="#FFA500" stroke-width="1.5" stroke-linecap="square" stroke-linejoin="round" d="
					M29.6,254.4l6.6-1.1l6.6-1.2l6.6-1.4l6.6-1.5l6.6-1.7l6.6-1.9l6.6-2.2l6.6-2.4l6.6-2.7l6.6-3l6.6-3.3l6.6-3.7l6.6-4.1l6.6-4.4
					l6.6-4.9l6.6-5.3l6.6-5.7l6.6-6.1l6.6-6.6l6.6-7l6.6-7.4l6.6-7.7l6.6-8l6.6-8.2l6.6-8.4l6.6-8.6l6.6-8.6l6.6-8.6l6.6-8.5
					l6.6-8.3L235,94l6.6-7.8l6.6-7.4l6.6-7.1l6.6-6.7l6.6-6.2l6.6-5.8l6.6-5.4l6.6-5l6.6-4.5l6.6-4.1l6.6-3.8l6.6-3.4l6.6-3.1
					l6.6-2.8l6.6-2.5l6.6-2.2l6.6-2l6.6-1.8"/>
			</g>
		</g>
		<g id="line2d_14">
			<g>
				<defs>
					<rect id="SVGID_7_" x="13.4" y="0.4" width="357.1" height="266.1"/>
				</defs>
				<clipPath id="SVGID_8_">
					<use xlink:href="#SVGID_7_"  overflow="visible"/>
				</clipPath>
				
					<path clip-path="url(#SVGID_8_)" fill="none" stroke="#0000FF" stroke-width="1.5" stroke-linecap="square" stroke-linejoin="round" d="
					M29.6,237l6.6,1.9l6.6,1.4l6.6,1l6.6,0.7l6.6,0.4l6.6,0.2l6.6,0l6.6-0.2l6.6-0.3l6.6-0.5l6.6-0.7l6.6-1l6.6-1.3l6.6-1.6l6.6-2.1
					l6.6-2.6l6.6-3.2l6.6-4l6.6-5l6.6-6l6.6-7.3l6.6-8.6l6.6-10.1l6.6-11.5l6.6-12.7l6.6-13.7l6.6-14.2l6.6-14.3l6.6-13.9l6.6-13.1
					l6.6-11.9l6.6-10.6l6.6-9.1l6.6-7.7l6.6-6.5l6.6-5.3l6.6-4.3l6.6-3.5l6.6-2.8l6.6-2.2l6.6-1.8l6.6-1.4l6.6-1.1l6.6-0.8l6.6-0.6
					l6.6-0.4l6.6-0.2l6.6-0.1l6.6,0.1"/>
			</g>
		</g>
		<g id="patch_3">
			<path fill="none" stroke="#000000" stroke-width="0.8" stroke-linecap="square" d="M13.4,266.5V0.4"/>
		</g>
		<g id="patch_4">
			<path fill="none" stroke="#000000" stroke-width="0.8" stroke-linecap="square" d="M370.5,266.5V0.4"/>
		</g>
		<g id="patch_5">
			<path fill="none" stroke="#000000" stroke-width="0.8" stroke-linecap="square" d="M13.4,266.5h357.1"/>
		</g>
		<g id="patch_6">
			<path fill="none" stroke="#000000" stroke-width="0.8" stroke-linecap="square" d="M13.4,0.4h357.1"/>
		</g>
		<g id="legend_1">
			<g id="patch_7">
				<path opacity="0.8" fill="#FFFFFF" stroke="#CCCCCC" enable-background="new    " d="M20.4,52.4h127.6c1.3,0,2-0.7,2-2v-43
					c0-1.3-0.7-2-2-2H20.4c-1.3,0-2,0.7-2,2v43C18.4,51.8,19,52.4,20.4,52.4z"/>
			</g>
			<g id="line2d_15">
				<path fill="none" stroke="#008000" stroke-width="1.5" stroke-linecap="square" stroke-linejoin="round" d="M22.4,13.5h20"/>
			</g>
			<g id="line2d_16">
			</g>
			<g id="text_12">
				<text transform="matrix(1 0 0 1 50.3622 16.9984)" font-family="'DejaVuSans'" font-size="10px">degree = 1</text>
			</g>
			<g id="line2d_17">
				<path fill="none" stroke="#FFA500" stroke-width="1.5" stroke-linecap="square" stroke-linejoin="round" d="M22.4,28.2h20"/>
			</g>
			<g id="line2d_18">
			</g>
			<g id="text_13">
				<text transform="matrix(1 0 0 1 50.3622 31.6766)" font-family="'DejaVuSans'" font-size="10px">degree = 1 (offset)</text>
			</g>
			<g id="line2d_19">
				<path fill="none" stroke="#0000FF" stroke-width="1.5" stroke-linecap="square" stroke-linejoin="round" d="M22.4,42.9h20"/>
			</g>
			<g id="line2d_20">
			</g>
			<g id="text_14">
				<text transform="matrix(1 0 0 1 50.3622 46.3547)" font-family="'DejaVuSans'" font-size="10px">degree = 3</text>
			</g>
		</g>
	</g>
</g>
</svg>
