<?xml version="1.0" encoding="utf-8"?>
<!-- Generator: Adobe Illustrator 25.4.1, SVG Export Plug-In . SVG Version: 6.00 Build 0)  -->
<svg version="1.1" id="图层_1" xmlns="http://www.w3.org/2000/svg" xmlns:xlink="http://www.w3.org/1999/xlink" x="0px" y="0px"
	 viewBox="0 0 380 288.2" style="enable-background:new 0 0 380 288.2;" xml:space="preserve">
<style type="text/css">
	.st0{fill:#FFFFFF;}
	.st1{stroke:#000000;stroke-width:0.8;stroke-linejoin:round;}
	.st2{font-family:'DejaVuSans';}
	.st3{font-size:10px;}
	
		.st4{clip-path:url(#SVGID_00000058566140579035616900000013480123770206378381_);fill:none;stroke:#0000FF;stroke-width:1.5;stroke-linecap:square;stroke-linejoin:round;}
	
		.st5{clip-path:url(#SVGID_00000021105266018162469010000009595873876032187560_);fill:none;stroke:#FF0000;stroke-width:1.5;stroke-linecap:square;stroke-linejoin:round;}
	
		.st6{clip-path:url(#SVGID_00000010281761214173909250000016373707518894026906_);fill:none;stroke:#008000;stroke-width:1.5;stroke-linecap:square;stroke-linejoin:round;}
	.st7{fill:none;stroke:#000000;stroke-width:0.8;stroke-linecap:square;}
	.st8{opacity:0.8;fill:#FFFFFF;stroke:#CCCCCC;enable-background:new    ;}
	.st9{fill:none;stroke:#0000FF;stroke-width:1.5;stroke-linecap:square;stroke-linejoin:round;}
	.st10{fill:none;stroke:#FF0000;stroke-width:1.5;stroke-linecap:square;stroke-linejoin:round;}
	.st11{fill:none;stroke:#008000;stroke-width:1.5;stroke-linecap:square;stroke-linejoin:round;}
</style>
<g id="figure_1">
	<g id="axes_1">
		<g id="patch_2">
			<path class="st0" d="M18.6,273.6h357.1V7.5H18.6V273.6z"/>
		</g>
		<g id="matplotlib.axis_1">
			<g id="xtick_1">
				<g id="line2d_1">
					<g>
						<g>
							<path id="m0b51835de1" class="st1" d="M34.9,273.6v3.5"/>
						</g>
					</g>
				</g>
				<g id="text_1">
					<text transform="matrix(1 0 0 1 31.6766 288.1824)" class="st2 st3">0</text>
				</g>
			</g>
			<g id="xtick_2">
				<g id="line2d_2">
					<g>
						<g>
							<path id="m0b51835de1_00000047747409385295597950000000765482228798222214_" class="st1" d="M103.2,273.6v3.5"/>
						</g>
					</g>
				</g>
				<g id="text_2">
					<text transform="matrix(1 0 0 1 100.0249 288.1824)" class="st2 st3">2</text>
				</g>
			</g>
			<g id="xtick_3">
				<g id="line2d_3">
					<g>
						<g>
							<path id="m0b51835de1_00000158713931629534688380000010139871397695571377_" class="st1" d="M171.6,273.6v3.5"/>
						</g>
					</g>
				</g>
				<g id="text_3">
					<text transform="matrix(1 0 0 1 168.3732 288.1824)" class="st2 st3">4</text>
				</g>
			</g>
			<g id="xtick_4">
				<g id="line2d_4">
					<g>
						<g>
							<path id="m0b51835de1_00000183245257357809062090000006839965066778888620_" class="st1" d="M239.9,273.6v3.5"/>
						</g>
					</g>
				</g>
				<g id="text_4">
					<text transform="matrix(1 0 0 1 236.7216 288.1824)" class="st2 st3">6</text>
				</g>
			</g>
			<g id="xtick_5">
				<g id="line2d_5">
					<g>
						<g>
							<path id="m0b51835de1_00000034787276095647165930000008674643321923243196_" class="st1" d="M308.3,273.6v3.5"/>
						</g>
					</g>
				</g>
				<g id="text_5">
					<text transform="matrix(1 0 0 1 305.0699 288.1824)" class="st2 st3">8</text>
				</g>
			</g>
		</g>
		<g id="matplotlib.axis_2">
			<g id="ytick_1">
				<g id="line2d_6">
					<g>
						<g>
							<path id="mac98a2585d" class="st1" d="M18.6,261.5h-3.5"/>
						</g>
					</g>
				</g>
				<g id="text_6">
					<text transform="matrix(1 0 0 1 5.2627 265.2872)" class="st2 st3">0</text>
				</g>
			</g>
			<g id="ytick_2">
				<g id="line2d_7">
					<g>
						<g>
							<path id="mac98a2585d_00000124863384818128844500000017573970716755337345_" class="st1" d="M18.6,217.4h-3.5"/>
						</g>
					</g>
				</g>
				<g id="text_7">
					<text transform="matrix(1 0 0 1 5.2627 221.1738)" class="st2 st3">2</text>
				</g>
			</g>
			<g id="ytick_3">
				<g id="line2d_8">
					<g>
						<g>
							<path id="mac98a2585d_00000003069444284966995440000016466830034952543911_" class="st1" d="M18.6,173.3h-3.5"/>
						</g>
					</g>
				</g>
				<g id="text_8">
					<text transform="matrix(1 0 0 1 5.2627 177.0602)" class="st2 st3">4</text>
				</g>
			</g>
			<g id="ytick_4">
				<g id="line2d_9">
					<g>
						<g>
							<path id="mac98a2585d_00000080177806547176800390000002967882892869035194_" class="st1" d="M18.6,129.1h-3.5"/>
						</g>
					</g>
				</g>
				<g id="text_9">
					<text transform="matrix(1 0 0 1 5.2627 132.9468)" class="st2 st3">6</text>
				</g>
			</g>
			<g id="ytick_5">
				<g id="line2d_10">
					<g>
						<g>
							<path id="mac98a2585d_00000166654096266413251080000010805119083722755240_" class="st1" d="M18.6,85h-3.5"/>
						</g>
					</g>
				</g>
				<g id="text_10">
					<text transform="matrix(1 0 0 1 5.2627 88.8333)" class="st2 st3">8</text>
				</g>
			</g>
			<g id="ytick_6">
				<g id="line2d_11">
					<g>
						<g>
							<path id="mac98a2585d_00000172405331110845948940000008673547806179989388_" class="st1" d="M18.6,40.9h-3.5"/>
						</g>
					</g>
				</g>
				<g id="text_11">
					<text transform="matrix(1 0 0 1 -1.0996 44.7198)" class="st2 st3">10</text>
				</g>
			</g>
		</g>
		<g id="line2d_12">
			<g>
				<defs>
					<rect id="SVGID_1_" x="18.6" y="7.5" width="357.1" height="266.1"/>
				</defs>
				<clipPath id="SVGID_00000106119812691881321870000004550657523224463014_">
					<use xlink:href="#SVGID_1_"  style="overflow:visible;"/>
				</clipPath>
				
					<path style="clip-path:url(#SVGID_00000106119812691881321870000004550657523224463014_);fill:none;stroke:#0000FF;stroke-width:1.5;stroke-linecap:square;stroke-linejoin:round;" d="
					M34.9,261.5l17.1-42.8l17.1-35l17.1-21.4l17.1-5.2l17.1,9.5l17.1,19.2l17.1,21.5l17.1,15.8l17.1,3.6l17.1-12.3l17.1-27.8
					l17.1-39.2l17.1-43.8l17.1-40.3L291.2,34l17.1-14.4l17.1,1.6l17.1,14.5l17.1,21.2"/>
			</g>
		</g>
		<g id="line2d_13">
			<g>
				<defs>
					<rect id="SVGID_00000122714336603870414230000017136289563893703595_" x="18.6" y="7.5" width="357.1" height="266.1"/>
				</defs>
				<clipPath id="SVGID_00000090278254846082956290000011216352061886202772_">
					<use xlink:href="#SVGID_00000122714336603870414230000017136289563893703595_"  style="overflow:visible;"/>
				</clipPath>
				
					<path style="clip-path:url(#SVGID_00000090278254846082956290000011216352061886202772_);fill:none;stroke:#FF0000;stroke-width:1.5;stroke-linecap:square;stroke-linejoin:round;" d="
					M34.9,247.2l17.1-25.9l17.1-33l17.1-20.5l17.1-5.7l17.1,7.9l17.1,16.8l17.1,18.9l17.1,13.6l17.1,2.4l17.1-12.2l17.1-26.4
					l17.1-36.9L257,105l17.1-37.9l17.1-28.1l17.1-14.1l17.1,0.6l17.1,12.5l17.1,11.9"/>
			</g>
		</g>
		<g id="line2d_14">
			<g>
				<defs>
					<rect id="SVGID_00000077322626713536184900000012219952761533768338_" x="18.6" y="7.5" width="357.1" height="266.1"/>
				</defs>
				<clipPath id="SVGID_00000042724270265163013150000005524895529208273556_">
					<use xlink:href="#SVGID_00000077322626713536184900000012219952761533768338_"  style="overflow:visible;"/>
				</clipPath>
				
					<path style="clip-path:url(#SVGID_00000042724270265163013150000005524895529208273556_);fill:none;stroke:#008000;stroke-width:1.5;stroke-linecap:square;stroke-linejoin:round;" d="
					M34.9,229.1l17.1-9.5l17.1-7.6l17.1-5.4l17.1-3.8l17.1-3.5l17.1-4.7l17.1-3.2l17.1-3.6l17.1-5.9l17.1-9.4l17.1-13.3l17.1-16.6
					l17.1-18.6l17.1-18.8l17.1-17l17.1-15.8l17.1-13l17.1-9.1l17.1-4.7"/>
			</g>
		</g>
		<g id="patch_3">
			<path class="st7" d="M18.6,273.6V7.5"/>
		</g>
		<g id="patch_4">
			<path class="st7" d="M375.7,273.6V7.5"/>
		</g>
		<g id="patch_5">
			<path class="st7" d="M18.6,273.6h357.1"/>
		</g>
		<g id="patch_6">
			<path class="st7" d="M18.6,7.5h357.1"/>
		</g>
		<g id="legend_1">
			<g id="patch_7">
				<path class="st8" d="M25.6,59.5h91c1.3,0,2-0.7,2-2v-43c0-1.3-0.7-2-2-2h-91c-1.3,0-2,0.7-2,2v43C23.6,58.8,24.3,59.5,25.6,59.5
					z"/>
			</g>
			<g id="line2d_15">
				<path class="st9" d="M27.6,20.6h20"/>
			</g>
			<g id="line2d_16">
			</g>
			<g id="text_12">
				<text transform="matrix(1 0 0 1 55.625 24.0704)" class="st2 st3">original</text>
			</g>
			<g id="line2d_17">
				<path class="st10" d="M27.6,35.2h20"/>
			</g>
			<g id="line2d_18">
			</g>
			<g id="text_13">
				<text transform="matrix(1 0 0 1 55.625 38.7486)" class="st2 st3">window=3</text>
			</g>
			<g id="line2d_19">
				<path class="st11" d="M27.6,49.9h20"/>
			</g>
			<g id="line2d_20">
			</g>
			<g id="text_14">
				<text transform="matrix(1 0 0 1 55.625 53.4267)" class="st2 st3">window=10</text>
			</g>
		</g>
	</g>
</g>
</svg>
