<?xml version="1.0" encoding="utf-8"?>
<!-- Generator: Adobe Illustrator 25.4.1, SVG Export Plug-In . SVG Version: 6.00 Build 0)  -->
<svg version="1.1" id="图层_1" xmlns="http://www.w3.org/2000/svg" xmlns:xlink="http://www.w3.org/1999/xlink" x="0px" y="0px"
	 viewBox="0 0 379.5 282.4" style="enable-background:new 0 0 379.5 282.4;" xml:space="preserve">
<style type="text/css">
	.st0{fill:#FFFFFF;}
	.st1{stroke:#000000;stroke-width:0.8;stroke-linejoin:round;}
	.st2{font-family:'DejaVuSans';}
	.st3{font-size:10px;}
	
		.st4{clip-path:url(#SVGID_00000110429033820045559140000014507983968701612965_);fill:none;stroke:#0000FF;stroke-width:1.5;stroke-linecap:square;stroke-linejoin:round;}
	
		.st5{clip-path:url(#SVGID_00000153666500339775404340000012040790962575955845_);fill:none;stroke:#FF0000;stroke-width:1.5;stroke-linecap:square;stroke-linejoin:round;}
	.st6{fill:none;stroke:#000000;stroke-width:0.8;stroke-linecap:square;}
	.st7{opacity:0.8;fill:#FFFFFF;stroke:#CCCCCC;enable-background:new    ;}
	.st8{fill:none;stroke:#0000FF;stroke-width:1.5;stroke-linecap:square;stroke-linejoin:round;}
	.st9{fill:none;stroke:#FF0000;stroke-width:1.5;stroke-linecap:square;stroke-linejoin:round;}
</style>
<g id="figure_1">
	<g id="axes_1">
		<g id="patch_2">
			<path class="st0" d="M18.6,267.7h357.1V1.6H18.6V267.7z"/>
		</g>
		<g id="matplotlib.axis_1">
			<g id="xtick_1">
				<g id="line2d_1">
					<g>
						<g>
							<path id="m5aca71795b" class="st1" d="M34.9,267.7v3.5"/>
						</g>
					</g>
				</g>
				<g id="text_1">
					<text transform="matrix(1 0 0 1 31.6766 282.2948)" class="st2 st3">0</text>
				</g>
			</g>
			<g id="xtick_2">
				<g id="line2d_2">
					<g>
						<g>
							<path id="m5aca71795b_00000114752357466326016050000018275561271673838769_" class="st1" d="M100.4,267.7v3.5"/>
						</g>
					</g>
				</g>
				<g id="text_2">
					<text transform="matrix(1 0 0 1 97.2634 282.2948)" class="st2 st3">2</text>
				</g>
			</g>
			<g id="xtick_3">
				<g id="line2d_3">
					<g>
						<g>
							<path id="m5aca71795b_00000086653677379349981480000003838901157770320521_" class="st1" d="M166,267.7v3.5"/>
						</g>
					</g>
				</g>
				<g id="text_3">
					<text transform="matrix(1 0 0 1 162.8502 282.2948)" class="st2 st3">4</text>
				</g>
			</g>
			<g id="xtick_4">
				<g id="line2d_4">
					<g>
						<g>
							<path id="m5aca71795b_00000142175476402376972700000015662837999189434253_" class="st1" d="M231.6,267.7v3.5"/>
						</g>
					</g>
				</g>
				<g id="text_4">
					<text transform="matrix(1 0 0 1 228.4369 282.2948)" class="st2 st3">6</text>
				</g>
			</g>
			<g id="xtick_5">
				<g id="line2d_5">
					<g>
						<g>
							<path id="m5aca71795b_00000000204054552443896730000001914296773259314850_" class="st1" d="M297.2,267.7v3.5"/>
						</g>
					</g>
				</g>
				<g id="text_5">
					<text transform="matrix(1 0 0 1 294.0237 282.2948)" class="st2 st3">8</text>
				</g>
			</g>
			<g id="xtick_6">
				<g id="line2d_6">
					<g>
						<g>
							<path id="m5aca71795b_00000097462534821538545100000016013194055953641362_" class="st1" d="M362.8,267.7v3.5"/>
						</g>
					</g>
				</g>
				<g id="text_6">
					<text transform="matrix(1 0 0 1 356.4293 282.2948)" class="st2 st3">10</text>
				</g>
			</g>
		</g>
		<g id="matplotlib.axis_2">
			<g id="ytick_1">
				<g id="line2d_7">
					<g>
						<g>
							<path id="mf62d41f26b" class="st1" d="M18.6,255.6h-3.5"/>
						</g>
					</g>
				</g>
				<g id="text_7">
					<text transform="matrix(1 0 0 1 5.2627 259.3996)" class="st2 st3">0</text>
				</g>
			</g>
			<g id="ytick_2">
				<g id="line2d_8">
					<g>
						<g>
							<path id="mf62d41f26b_00000079466564744132307800000017371699925967385254_" class="st1" d="M18.6,211.7h-3.5"/>
						</g>
					</g>
				</g>
				<g id="text_8">
					<text transform="matrix(1 0 0 1 5.2627 215.5027)" class="st2 st3">2</text>
				</g>
			</g>
			<g id="ytick_3">
				<g id="line2d_9">
					<g>
						<g>
							<path id="mf62d41f26b_00000080908354481578655890000013866591877616554900_" class="st1" d="M18.6,167.8h-3.5"/>
						</g>
					</g>
				</g>
				<g id="text_9">
					<text transform="matrix(1 0 0 1 5.2627 171.6058)" class="st2 st3">4</text>
				</g>
			</g>
			<g id="ytick_4">
				<g id="line2d_10">
					<g>
						<g>
							<path id="mf62d41f26b_00000041274420803999042360000002414152849281401747_" class="st1" d="M18.6,123.9h-3.5"/>
						</g>
					</g>
				</g>
				<g id="text_10">
					<text transform="matrix(1 0 0 1 5.2627 127.7089)" class="st2 st3">6</text>
				</g>
			</g>
			<g id="ytick_5">
				<g id="line2d_11">
					<g>
						<g>
							<path id="mf62d41f26b_00000056395908209353441280000012325609615780498593_" class="st1" d="M18.6,80h-3.5"/>
						</g>
					</g>
				</g>
				<g id="text_11">
					<text transform="matrix(1 0 0 1 5.2627 83.812)" class="st2 st3">8</text>
				</g>
			</g>
			<g id="ytick_6">
				<g id="line2d_12">
					<g>
						<g>
							<path id="mf62d41f26b_00000014618573547658478650000012024171165828733851_" class="st1" d="M18.6,36.1h-3.5"/>
						</g>
					</g>
				</g>
				<g id="text_12">
					<text transform="matrix(1 0 0 1 -1.0996 39.9151)" class="st2 st3">10</text>
				</g>
			</g>
		</g>
		<g id="line2d_13">
			<g>
				<defs>
					<rect id="SVGID_1_" x="18.6" y="1.6" width="357.1" height="266.1"/>
				</defs>
				<clipPath id="SVGID_00000151530201248079775670000003911101816692842637_">
					<use xlink:href="#SVGID_1_"  style="overflow:visible;"/>
				</clipPath>
				
					<path style="clip-path:url(#SVGID_00000151530201248079775670000003911101816692842637_);fill:none;stroke:#0000FF;stroke-width:1.5;stroke-linecap:square;stroke-linejoin:round;" d="
					M34.9,255.6l3.3-8.8l3.3-8.7l3.3-8.6l3.3-8.4l3.3-8.1l3.3-7.8l3.3-7.4l3.3-7l3.3-6.5l3.3-6l3.3-5.5l3.3-4.9l3.3-4.3l3.3-3.6
					l3.3-3l3.3-2.3l3.3-1.7l3.3-1l3.3-0.4l3.3,0.2l3.3,0.8l3.3,1.4l3.3,1.9l3.3,2.4l3.3,2.9l3.3,3.3l3.3,3.6l3.3,3.9l3.3,4.1
					l3.3,4.3l3.3,4.4l3.3,4.4l3.3,4.3l3.3,4.2l3.3,4.1l3.3,3.8l3.3,3.6l3.3,3.2l3.3,2.8l3.3,2.4l3.3,1.9l3.3,1.3l3.3,0.7l3.3,0.1
					l3.3-0.5l3.3-1.1l3.3-1.8l3.3-2.4l3.3-3.1l3.3-3.7l3.3-4.4l3.3-5l3.3-5.6l3.3-6.1l3.3-6.6l3.3-7.1l3.3-7.5l3.3-7.9l3.3-8.2
					l3.3-8.4l3.3-8.6l3.3-8.7l3.3-8.8l3.3-8.8l3.3-8.7l3.3-8.5l3.3-8.3l3.3-8.1l3.3-7.7l3.3-7.4l3.3-6.9l3.3-6.5l3.3-5.9l3.3-5.4
					l3.3-4.8l3.3-4.2l3.3-3.5l3.3-2.9l3.3-2.2l3.3-1.6l3.3-0.9l3.3-0.3L307,14l3.3,0.9l3.3,1.5l3.3,2l3.3,2.5l3.3,2.9l3.3,3.3
					l3.3,3.7l3.3,3.9l3.3,4.1l3.3,4.3l3.3,4.4l3.3,4.4l3.3,4.3l3.3,4.2l3.3,4l3.3,3.8"/>
			</g>
		</g>
		<g id="line2d_14">
			<g>
				<defs>
					<rect id="SVGID_00000149371007199076852090000013096014840301825426_" x="18.6" y="1.6" width="357.1" height="266.1"/>
				</defs>
				<clipPath id="SVGID_00000093143133900449749690000018163200901576802197_">
					<use xlink:href="#SVGID_00000149371007199076852090000013096014840301825426_"  style="overflow:visible;"/>
				</clipPath>
				
					<path style="clip-path:url(#SVGID_00000093143133900449749690000018163200901576802197_);fill:none;stroke:#FF0000;stroke-width:1.5;stroke-linecap:square;stroke-linejoin:round;" d="
					M34.9,255.6l3.3-8.8l3.3-8.7l3.3-8.6l3.3-8.4l3.3-8.1l3.3-7.8l3.3-7.4l3.3-7l3.3-6.5l3.3-6l3.3-5.5l3.3-4.9l3.3-4.3l3.3-3.6
					l3.3-3l3.3-2.3l3.3-1.7l3.3-1l3.3-0.4h3.3h3.3h3.3h3.3h3.3h3.3h3.3h3.3h3.3h3.3h3.3h3.3h3.3h3.3h3.3h3.3h3.3h3.3h3.3h3.3h3.3
					h3.3h3.3h3.3h3.3h3.3h3.3h3.3h3.3h3.3h3.3h3.3h3.3h3.3h3.3h3.3h3.3h3.3h3.3l3.3-0.9l3.3-8.4l3.3-8.6l3.3-8.7l3.3-8.8l3.3-8.8
					l3.3-8.7l3.3-8.5l3.3-8.3l3.3-8.1l3.3-7.7l3.3-7.4l3.3-6.9l3.3-6.5l3.3-5.9l3.3-5.4l3.3-4.8l3.3-4.2l3.3-3.5l3.3-2.9l3.3-2.2
					l3.3-1.6l3.3-0.9l3.3-0.3h3.3h3.3h3.3h3.3h3.3h3.3h3.3h3.3h3.3h3.3h3.3h3.3h3.3h3.3h3.3h3.3h3.3"/>
			</g>
		</g>
		<g id="patch_3">
			<path class="st6" d="M18.6,267.7V1.6"/>
		</g>
		<g id="patch_4">
			<path class="st6" d="M375.7,267.7V1.6"/>
		</g>
		<g id="patch_5">
			<path class="st6" d="M18.6,267.7h357.1"/>
		</g>
		<g id="patch_6">
			<path class="st6" d="M18.6,1.6h357.1"/>
		</g>
		<g id="legend_1">
			<g id="patch_7">
				<path class="st7" d="M25.6,38.9h82.8c1.3,0,2-0.7,2-2V8.6c0-1.3-0.7-2-2-2H25.6c-1.3,0-2,0.7-2,2v28.4
					C23.6,38.3,24.3,38.9,25.6,38.9z"/>
			</g>
			<g id="line2d_15">
				<path class="st8" d="M27.6,14.7h20"/>
			</g>
			<g id="line2d_16">
			</g>
			<g id="text_13">
				<text transform="matrix(1 0 0 1 55.625 18.1828)" class="st2 st3">original</text>
			</g>
			<g id="line2d_17">
				<path class="st9" d="M27.6,29.4h20"/>
			</g>
			<g id="line2d_18">
			</g>
			<g id="text_14">
				<text transform="matrix(1 0 0 1 55.625 32.861)" class="st2 st3">monotone</text>
			</g>
		</g>
	</g>
</g>
</svg>
