<?xml version="1.0" encoding="utf-8"?>
<!-- Generator: Adobe Illustrator 25.2.1, SVG Export Plug-In . SVG Version: 6.00 Build 0)  -->
<svg version="1.1" id="图层_1" xmlns="http://www.w3.org/2000/svg" xmlns:xlink="http://www.w3.org/1999/xlink" x="0px" y="0px"
	 viewBox="0 0 377.2 287.2" enable-background="new 0 0 377.2 287.2" xml:space="preserve">
<g id="figure_1">
	<g id="axes_1">
		<g id="patch_2">
			<path fill="#FFFFFF" d="M19.7,268h357.1V1.9H19.7V268z"/>
		</g>
		<g id="PathCollection_1">
			<g>
				<defs>
					<rect id="SVGID_1_" x="19.7" y="1.9" width="357.1" height="266.1"/>
				</defs>
				<clipPath id="SVGID_2_">
					<use xlink:href="#SVGID_1_"  overflow="visible"/>
				</clipPath>
				<g clip-path="url(#SVGID_2_)">
					<g>
						<path id="mdf5879828b" fill="#FF0000" stroke="#FF0000" stroke-linejoin="round" d="M36,248.7c0.8,0,1.6-0.3,2.1-0.9
							c0.6-0.6,0.9-1.3,0.9-2.1s-0.3-1.6-0.9-2.1c-0.6-0.6-1.3-0.9-2.1-0.9s-1.6,0.3-2.1,0.9c-0.6,0.6-0.9,1.3-0.9,2.1
							s0.3,1.6,0.9,2.1C34.4,248.4,35.2,248.7,36,248.7z"/>
					</g>
					<g>
						<path id="mdf5879828b_1_" fill="#FF0000" stroke="#FF0000" stroke-linejoin="round" d="M52.4,209.8c0.8,0,1.6-0.3,2.1-0.9
							c0.6-0.6,0.9-1.3,0.9-2.1s-0.3-1.6-0.9-2.1c-0.6-0.6-1.3-0.9-2.1-0.9s-1.6,0.3-2.1,0.9c-0.6,0.6-0.9,1.3-0.9,2.1
							s0.3,1.6,0.9,2.1C50.8,209.5,51.6,209.8,52.4,209.8z"/>
					</g>
					<g>
						<path id="mdf5879828b_2_" fill="#FF0000" stroke="#FF0000" stroke-linejoin="round" d="M68.8,178c0.8,0,1.6-0.3,2.1-0.9
							c0.6-0.6,0.9-1.3,0.9-2.1s-0.3-1.6-0.9-2.1c-0.6-0.6-1.3-0.9-2.1-0.9s-1.6,0.3-2.1,0.9c-0.6,0.6-0.9,1.3-0.9,2.1
							s0.3,1.6,0.9,2.1C67.2,177.7,68,178,68.8,178z"/>
					</g>
					<g>
						<path id="mdf5879828b_3_" fill="#FF0000" stroke="#FF0000" stroke-linejoin="round" d="M85.1,158.5c0.8,0,1.6-0.3,2.1-0.9
							c0.6-0.6,0.9-1.3,0.9-2.1s-0.3-1.6-0.9-2.1c-0.6-0.6-1.3-0.9-2.1-0.9s-1.6,0.3-2.1,0.9c-0.6,0.6-0.9,1.3-0.9,2.1
							s0.3,1.6,0.9,2.1C83.6,158.2,84.4,158.5,85.1,158.5z"/>
					</g>
					<g>
						<path id="mdf5879828b_4_" fill="#FF0000" stroke="#FF0000" stroke-linejoin="round" d="M101.5,153.8c0.8,0,1.6-0.3,2.1-0.9
							c0.6-0.6,0.9-1.3,0.9-2.1s-0.3-1.6-0.9-2.1c-0.6-0.6-1.3-0.9-2.1-0.9s-1.6,0.3-2.1,0.9c-0.6,0.6-0.9,1.3-0.9,2.1
							s0.3,1.6,0.9,2.1C100,153.5,100.7,153.8,101.5,153.8z"/>
					</g>
					<g>
						<path id="mdf5879828b_5_" fill="#FF0000" stroke="#FF0000" stroke-linejoin="round" d="M117.9,162.5c0.8,0,1.6-0.3,2.1-0.9
							c0.6-0.6,0.9-1.3,0.9-2.1s-0.3-1.6-0.9-2.1c-0.6-0.6-1.3-0.9-2.1-0.9s-1.6,0.3-2.1,0.9c-0.6,0.6-0.9,1.3-0.9,2.1
							s0.3,1.6,0.9,2.1C116.4,162.2,117.1,162.5,117.9,162.5z"/>
					</g>
					<g>
						<path id="mdf5879828b_6_" fill="#FF0000" stroke="#FF0000" stroke-linejoin="round" d="M134.3,180c0.8,0,1.6-0.3,2.1-0.9
							s0.9-1.3,0.9-2.1s-0.3-1.6-0.9-2.1s-1.3-0.9-2.1-0.9s-1.6,0.3-2.1,0.9s-0.9,1.3-0.9,2.1s0.3,1.6,0.9,2.1S133.5,180,134.3,180z
							"/>
					</g>
					<g>
						<path id="mdf5879828b_7_" fill="#FF0000" stroke="#FF0000" stroke-linejoin="round" d="M150.7,199.6c0.8,0,1.6-0.3,2.1-0.9
							s0.9-1.3,0.9-2.1s-0.3-1.6-0.9-2.1s-1.3-0.9-2.1-0.9s-1.6,0.3-2.1,0.9s-0.9,1.3-0.9,2.1s0.3,1.6,0.9,2.1
							S149.9,199.6,150.7,199.6z"/>
					</g>
					<g>
						<path id="mdf5879828b_8_" fill="#FF0000" stroke="#FF0000" stroke-linejoin="round" d="M167.1,214c0.8,0,1.6-0.3,2.1-0.9
							s0.9-1.3,0.9-2.1s-0.3-1.6-0.9-2.1s-1.3-0.9-2.1-0.9s-1.6,0.3-2.1,0.9s-0.9,1.3-0.9,2.1s0.3,1.6,0.9,2.1S166.3,214,167.1,214z
							"/>
					</g>
					<g>
						<path id="mdf5879828b_9_" fill="#FF0000" stroke="#FF0000" stroke-linejoin="round" d="M183.5,217.3c0.8,0,1.6-0.3,2.1-0.9
							s0.9-1.3,0.9-2.1s-0.3-1.6-0.9-2.1s-1.3-0.9-2.1-0.9s-1.6,0.3-2.1,0.9s-0.9,1.3-0.9,2.1s0.3,1.6,0.9,2.1
							S182.7,217.3,183.5,217.3z"/>
					</g>
					<g>
						<path id="mdf5879828b_10_" fill="#FF0000" stroke="#FF0000" stroke-linejoin="round" d="M199.9,206.1c0.8,0,1.6-0.3,2.1-0.9
							s0.9-1.3,0.9-2.1s-0.3-1.6-0.9-2.1s-1.3-0.9-2.1-0.9s-1.6,0.3-2.1,0.9s-0.9,1.3-0.9,2.1s0.3,1.6,0.9,2.1
							S199.1,206.1,199.9,206.1z"/>
					</g>
					<g>
						<path id="mdf5879828b_11_" fill="#FF0000" stroke="#FF0000" stroke-linejoin="round" d="M216.3,180.8c0.8,0,1.6-0.3,2.1-0.9
							s0.9-1.3,0.9-2.1s-0.3-1.6-0.9-2.1s-1.3-0.9-2.1-0.9s-1.6,0.3-2.1,0.9s-0.9,1.3-0.9,2.1s0.3,1.6,0.9,2.1
							S215.5,180.8,216.3,180.8z"/>
					</g>
					<g>
						<path id="mdf5879828b_12_" fill="#FF0000" stroke="#FF0000" stroke-linejoin="round" d="M232.7,145.1c0.8,0,1.6-0.3,2.1-0.9
							s0.9-1.3,0.9-2.1s-0.3-1.6-0.9-2.1s-1.3-0.9-2.1-0.9s-1.6,0.3-2.1,0.9s-0.9,1.3-0.9,2.1s0.3,1.6,0.9,2.1
							S231.9,145.1,232.7,145.1z"/>
					</g>
					<g>
						<path id="mdf5879828b_13_" fill="#FF0000" stroke="#FF0000" stroke-linejoin="round" d="M249.1,105.3c0.8,0,1.6-0.3,2.1-0.9
							c0.6-0.6,0.9-1.3,0.9-2.1s-0.3-1.6-0.9-2.1c-0.6-0.6-1.3-0.9-2.1-0.9s-1.6,0.3-2.1,0.9c-0.6,0.6-0.9,1.3-0.9,2.1
							s0.3,1.6,0.9,2.1C247.6,105,248.3,105.3,249.1,105.3z"/>
					</g>
					<g>
						<path id="mdf5879828b_14_" fill="#FF0000" stroke="#FF0000" stroke-linejoin="round" d="M265.5,68.6c0.8,0,1.6-0.3,2.1-0.9
							c0.6-0.6,0.9-1.3,0.9-2.1s-0.3-1.6-0.9-2.1c-0.6-0.6-1.3-0.9-2.1-0.9s-1.6,0.3-2.1,0.9c-0.6,0.6-0.9,1.3-0.9,2.1
							s0.3,1.6,0.9,2.1C264,68.3,264.7,68.6,265.5,68.6z"/>
					</g>
					<g>
						<path id="mdf5879828b_15_" fill="#FF0000" stroke="#FF0000" stroke-linejoin="round" d="M281.9,41.7c0.8,0,1.6-0.3,2.1-0.9
							c0.6-0.6,0.9-1.3,0.9-2.1s-0.3-1.6-0.9-2.1c-0.6-0.6-1.3-0.9-2.1-0.9s-1.6,0.3-2.1,0.9c-0.6,0.6-0.9,1.3-0.9,2.1
							s0.3,1.6,0.9,2.1C280.3,41.4,281.1,41.7,281.9,41.7z"/>
					</g>
					<g>
						<path id="mdf5879828b_16_" fill="#FF0000" stroke="#FF0000" stroke-linejoin="round" d="M298.3,28.6c0.8,0,1.6-0.3,2.1-0.9
							c0.6-0.6,0.9-1.3,0.9-2.1s-0.3-1.6-0.9-2.1c-0.6-0.6-1.3-0.9-2.1-0.9s-1.6,0.3-2.1,0.9c-0.6,0.6-0.9,1.3-0.9,2.1
							s0.3,1.6,0.9,2.1C296.7,28.2,297.5,28.6,298.3,28.6z"/>
					</g>
					<g>
						<path id="mdf5879828b_17_" fill="#FF0000" stroke="#FF0000" stroke-linejoin="round" d="M314.7,30c0.8,0,1.6-0.3,2.1-0.9
							c0.6-0.6,0.9-1.3,0.9-2.1s-0.3-1.6-0.9-2.1c-0.6-0.6-1.3-0.9-2.1-0.9s-1.6,0.3-2.1,0.9c-0.6,0.6-0.9,1.3-0.9,2.1
							s0.3,1.6,0.9,2.1C313.1,29.7,313.9,30,314.7,30z"/>
					</g>
					<g>
						<path id="mdf5879828b_18_" fill="#FF0000" stroke="#FF0000" stroke-linejoin="round" d="M331.1,43.2c0.8,0,1.6-0.3,2.1-0.9
							c0.6-0.6,0.9-1.3,0.9-2.1s-0.3-1.6-0.9-2.1c-0.6-0.6-1.3-0.9-2.1-0.9s-1.6,0.3-2.1,0.9c-0.6,0.6-0.9,1.3-0.9,2.1
							s0.3,1.6,0.9,2.1C329.5,42.9,330.3,43.2,331.1,43.2z"/>
					</g>
					<g>
						<path id="mdf5879828b_19_" fill="#FF0000" stroke="#FF0000" stroke-linejoin="round" d="M347.5,62.6c0.8,0,1.6-0.3,2.1-0.9
							c0.6-0.6,0.9-1.3,0.9-2.1s-0.3-1.6-0.9-2.1c-0.6-0.6-1.3-0.9-2.1-0.9s-1.6,0.3-2.1,0.9c-0.6,0.6-0.9,1.3-0.9,2.1
							s0.3,1.6,0.9,2.1C345.9,62.2,346.7,62.6,347.5,62.6z"/>
					</g>
				</g>
			</g>
		</g>
		<g id="matplotlib.axis_1">
			<g id="xtick_1">
				<g id="line2d_1">
					<g>
						<g>
							<path id="m9880f8a194" stroke="#000000" stroke-width="0.8" stroke-linejoin="round" d="M36,268v3.5"/>
						</g>
					</g>
				</g>
				<g id="text_1">
					<text transform="matrix(1 0 0 1 32.7761 282.5809)" font-family="'DejaVuSans'" font-size="10px">0</text>
				</g>
			</g>
			<g id="xtick_2">
				<g id="line2d_2">
					<g>
						<g>
							<path id="m9880f8a194_1_" stroke="#000000" stroke-width="0.8" stroke-linejoin="round" d="M101.5,268v3.5"/>
						</g>
					</g>
				</g>
				<g id="text_2">
					<text transform="matrix(1 0 0 1 98.3629 282.5809)" font-family="'DejaVuSans'" font-size="10px">2</text>
				</g>
			</g>
			<g id="xtick_3">
				<g id="line2d_3">
					<g>
						<g>
							<path id="m9880f8a194_2_" stroke="#000000" stroke-width="0.8" stroke-linejoin="round" d="M167.1,268v3.5"/>
						</g>
					</g>
				</g>
				<g id="text_3">
					<text transform="matrix(1 0 0 1 163.9496 282.5809)" font-family="'DejaVuSans'" font-size="10px">4</text>
				</g>
			</g>
			<g id="xtick_4">
				<g id="line2d_4">
					<g>
						<g>
							<path id="m9880f8a194_3_" stroke="#000000" stroke-width="0.8" stroke-linejoin="round" d="M232.7,268v3.5"/>
						</g>
					</g>
				</g>
				<g id="text_4">
					<text transform="matrix(1 0 0 1 229.5364 282.5809)" font-family="'DejaVuSans'" font-size="10px">6</text>
				</g>
			</g>
			<g id="xtick_5">
				<g id="line2d_5">
					<g>
						<g>
							<path id="m9880f8a194_4_" stroke="#000000" stroke-width="0.8" stroke-linejoin="round" d="M298.3,268v3.5"/>
						</g>
					</g>
				</g>
				<g id="text_5">
					<text transform="matrix(1 0 0 1 295.1232 282.5809)" font-family="'DejaVuSans'" font-size="10px">8</text>
				</g>
			</g>
			<g id="xtick_6">
				<g id="line2d_6">
					<g>
						<g>
							<path id="m9880f8a194_5_" stroke="#000000" stroke-width="0.8" stroke-linejoin="round" d="M363.9,268v3.5"/>
						</g>
					</g>
				</g>
				<g id="text_6">
					<text transform="matrix(1 0 0 1 357.5288 282.5809)" font-family="'DejaVuSans'" font-size="10px">10</text>
				</g>
			</g>
		</g>
		<g id="matplotlib.axis_2">
			<g id="ytick_1">
				<g id="line2d_7">
					<g>
						<g>
							<path id="mb03a05164b" stroke="#000000" stroke-width="0.8" stroke-linejoin="round" d="M19.7,245.7h-3.5"/>
						</g>
					</g>
				</g>
				<g id="text_7">
					<text transform="matrix(1 0 0 1 6.3622 249.5292)" font-family="'DejaVuSans'" font-size="10px">0</text>
				</g>
			</g>
			<g id="ytick_2">
				<g id="line2d_8">
					<g>
						<g>
							<path id="mb03a05164b_1_" stroke="#000000" stroke-width="0.8" stroke-linejoin="round" d="M19.7,205.6h-3.5"/>
						</g>
					</g>
				</g>
				<g id="text_8">
					<text transform="matrix(1 0 0 1 6.3622 209.3818)" font-family="'DejaVuSans'" font-size="10px">2</text>
				</g>
			</g>
			<g id="ytick_3">
				<g id="line2d_9">
					<g>
						<g>
							<path id="mb03a05164b_2_" stroke="#000000" stroke-width="0.8" stroke-linejoin="round" d="M19.7,165.4h-3.5"/>
						</g>
					</g>
				</g>
				<g id="text_9">
					<text transform="matrix(1 0 0 1 6.3622 169.2343)" font-family="'DejaVuSans'" font-size="10px">4</text>
				</g>
			</g>
			<g id="ytick_4">
				<g id="line2d_10">
					<g>
						<g>
							<path id="mb03a05164b_3_" stroke="#000000" stroke-width="0.8" stroke-linejoin="round" d="M19.7,125.3h-3.5"/>
						</g>
					</g>
				</g>
				<g id="text_10">
					<text transform="matrix(1 0 0 1 6.3622 129.0869)" font-family="'DejaVuSans'" font-size="10px">6</text>
				</g>
			</g>
			<g id="ytick_5">
				<g id="line2d_11">
					<g>
						<g>
							<path id="mb03a05164b_4_" stroke="#000000" stroke-width="0.8" stroke-linejoin="round" d="M19.7,85.1h-3.5"/>
						</g>
					</g>
				</g>
				<g id="text_11">
					<text transform="matrix(1 0 0 1 6.3622 88.9395)" font-family="'DejaVuSans'" font-size="10px">8</text>
				</g>
			</g>
			<g id="ytick_6">
				<g id="line2d_12">
					<g>
						<g>
							<path id="mb03a05164b_5_" stroke="#000000" stroke-width="0.8" stroke-linejoin="round" d="M19.7,45h-3.5"/>
						</g>
					</g>
				</g>
				<g id="text_12">
					<text transform="matrix(1 0 0 1 -1.220703e-04 48.792)" font-family="'DejaVuSans'" font-size="10px">10</text>
				</g>
			</g>
			<g id="ytick_7">
				<g id="line2d_13">
					<g>
						<g>
							<path id="mb03a05164b_6_" stroke="#000000" stroke-width="0.8" stroke-linejoin="round" d="M19.7,4.8h-3.5"/>
						</g>
					</g>
				</g>
				<g id="text_13">
					<text transform="matrix(1 0 0 1 -1.220703e-04 8.6445)" font-family="'DejaVuSans'" font-size="10px">12</text>
				</g>
			</g>
		</g>
		<g id="line2d_14">
			<g>
				<defs>
					<rect id="SVGID_3_" x="19.7" y="1.9" width="357.1" height="266.1"/>
				</defs>
				<clipPath id="SVGID_4_">
					<use xlink:href="#SVGID_3_"  overflow="visible"/>
				</clipPath>
				
					<path clip-path="url(#SVGID_4_)" fill="none" stroke="#008000" stroke-width="1.5" stroke-linecap="square" stroke-linejoin="round" d="
					M36,233.5l3.3-2l3.3-2l3.3-2l3.3-2l3.3-2l3.3-2l3.3-2l3.3-2l3.3-2l3.3-2l3.3-2l3.3-2l3.3-2l3.3-2l3.3-2l3.3-2l3.3-2l3.3-2l3.3-2
					l3.3-2l3.3-2l3.3-2l3.3-2l3.3-2l3.3-2l3.3-2l3.3-2l3.3-2l3.3-2l3.3-2l3.3-2l3.3-2l3.3-2l3.3-2l3.3-2l3.3-2l3.3-2l3.3-2l3.3-2
					l3.3-2l3.3-2l3.3-2l3.3-2l3.3-2l3.3-2l3.3-2l3.3-2l3.3-2l3.3-2l3.3-2l3.3-2l3.3-2l3.3-2l3.3-2l3.3-2l3.3-2l3.3-2l3.3-2l3.3-2
					l3.3-2l3.3-2l3.3-2l3.3-2l3.3-2l3.3-2l3.3-2l3.3-2l3.3-2l3.3-2l3.3-2l3.3-2l3.3-2l3.3-2l3.3-2l3.3-2l3.3-2l3.3-2l3.3-2l3.3-2
					l3.3-2l3.3-2l3.3-2l3.3-2l3.3-2l3.3-2l3.3-2l3.3-2l3.3-2l3.3-2l3.3-2l3.3-2l3.3-2l3.3-2l3.3-2l3.3-2l3.3-2l3.3-2l3.3-2l3.3-2"/>
			</g>
		</g>
		<g id="line2d_15">
			<g>
				<defs>
					<rect id="SVGID_5_" x="19.7" y="1.9" width="357.1" height="266.1"/>
				</defs>
				<clipPath id="SVGID_6_">
					<use xlink:href="#SVGID_5_"  overflow="visible"/>
				</clipPath>
				
					<path clip-path="url(#SVGID_6_)" fill="none" stroke="#0000FF" stroke-width="1.5" stroke-linecap="square" stroke-linejoin="round" d="
					M36,255.9l3.3-15.1l3.3-13.6l3.3-12.1l3.3-10.8l3.3-9.5l3.3-8.3l3.3-7.1l3.3-6.1l3.3-5.1l3.3-4.2l3.3-3.3l3.3-2.5l3.3-1.8
					l3.3-1.1l3.3-0.5l3.3,0.1l3.3,0.6l3.3,1l3.3,1.4l3.3,1.7l3.3,2l3.3,2.3l3.3,2.5l3.3,2.6l3.3,2.7l3.3,2.8l3.3,2.9l3.3,2.9
					l3.3,2.8l3.3,2.8l3.3,2.7l3.3,2.5l3.3,2.4l3.3,2.2l3.3,2l3.3,1.8l3.3,1.5l3.3,1.2l3.3,0.9l3.3,0.6l3.3,0.3l3.3,0l3.3-0.3
					l3.3-0.7l3.3-1l3.3-1.4l3.3-1.7l3.3-2.1l3.3-2.5l3.3-2.8l3.3-3.2l3.3-3.5l3.3-3.9l3.3-4.2l3.3-4.5l3.3-4.8l3.3-5.1l3.3-5.4
					l3.3-5.7l3.3-5.9l3.3-6.1l3.3-6.3l3.3-6.5l3.3-6.6l3.3-6.7l3.3-6.8l3.3-6.9l3.3-6.9l3.3-6.9l3.3-6.8l3.3-6.7l3.3-6.6l3.3-6.4
					l3.3-6.2l3.3-5.9l3.3-5.6l3.3-5.2l3.3-4.8l3.3-4.3l3.3-3.8l3.3-3.2l3.3-2.6l3.3-1.9l3.3-1.1l3.3-0.3l3.3,0.6l3.3,1.6l3.3,2.6
					l3.3,3.7l3.3,4.9l3.3,6.1l3.3,7.4l3.3,8.8l3.3,10.3l3.3,11.9l3.3,13.5l3.3,15.3l3.3,17.1l3.3,19"/>
			</g>
		</g>
		<g id="patch_3">
			<path fill="none" stroke="#000000" stroke-width="0.8" stroke-linecap="square" d="M19.7,268V1.9"/>
		</g>
		<g id="patch_4">
			<path fill="none" stroke="#000000" stroke-width="0.8" stroke-linecap="square" d="M376.8,268V1.9"/>
		</g>
		<g id="patch_5">
			<path fill="none" stroke="#000000" stroke-width="0.8" stroke-linecap="square" d="M19.7,268h357.1"/>
		</g>
		<g id="patch_6">
			<path fill="none" stroke="#000000" stroke-width="0.8" stroke-linecap="square" d="M19.7,1.9h357.1"/>
		</g>
		<g id="legend_1">
			<g id="patch_7">
				<path opacity="0.8" fill="#FFFFFF" stroke="#CCCCCC" enable-background="new    " d="M26.7,39.2h88.1c1.3,0,2-0.7,2-2V8.9
					c0-1.3-0.7-2-2-2H26.7c-1.3,0-2,0.7-2,2v28.4C24.7,38.6,25.4,39.2,26.7,39.2z"/>
			</g>
			<g id="line2d_16">
				<path fill="none" stroke="#008000" stroke-width="1.5" stroke-linecap="square" stroke-linejoin="round" d="M28.7,15h20"/>
			</g>
			<g id="text_14">
				<text transform="matrix(1 0 0 1 56.7245 18.4689)" font-family="'DejaVuSans'" font-size="10px">degree = 1</text>
			</g>
			<g id="line2d_18">
				<path fill="none" stroke="#0000FF" stroke-width="1.5" stroke-linecap="square" stroke-linejoin="round" d="M28.7,29.6h20"/>
			</g>
			<g id="text_15">
				<text transform="matrix(1 0 0 1 56.7245 33.147)" font-family="'DejaVuSans'" font-size="10px">degree = 4</text>
			</g>
		</g>
	</g>
</g>
</svg>
